<ttFont>
    <TTGlyph name="A" xMin="-100" yMin="0" xMax="1456" yMax="1462">
      <contour>
        <pt x="438" y="481" on="1"/>
        <pt x="338" y="297" on="1"/>
        <pt x="318" y="260" on="0"/>
        <pt x="299" y="204" on="0"/>
        <pt x="299" y="182" on="1"/>
        <pt x="299" y="144" on="0"/>
        <pt x="355" y="109" on="0"/>
        <pt x="414" y="109" on="1"/>
        <pt x="455" y="109" on="1"/>
        <pt x="432" y="0" on="1"/>
        <pt x="-100" y="0" on="1"/>
        <pt x="-78" y="109" on="1"/>
        <pt x="-35" y="109" on="1"/>
        <pt x="-7" y="109" on="0"/>
        <pt x="36" y="122" on="0"/>
        <pt x="76" y="158" on="0"/>
        <pt x="119" y="220" on="0"/>
        <pt x="147" y="268" on="1"/>
        <pt x="842" y="1462" on="1"/>
        <pt x="1122" y="1462" on="1"/>
        <pt x="1294" y="256" on="1"/>
        <pt x="1299" y="224" on="0"/>
        <pt x="1316" y="170" on="0"/>
        <pt x="1344" y="131" on="0"/>
        <pt x="1387" y="109" on="0"/>
        <pt x="1419" y="109" on="1"/>
        <pt x="1456" y="109" on="1"/>
        <pt x="1434" y="0" on="1"/>
        <pt x="758" y="0" on="1"/>
        <pt x="780" y="109" on="1"/>
        <pt x="827" y="109" on="1"/>
        <pt x="893" y="109" on="0"/>
        <pt x="971" y="150" on="0"/>
        <pt x="971" y="195" on="1"/>
        <pt x="971" y="212" on="0"/>
        <pt x="969" y="245" on="0"/>
        <pt x="967" y="260" on="1"/>
        <pt x="936" y="481" on="1"/>
      </contour>
      <contour>
        <pt x="885" y="950" on="1"/>
        <pt x="880" y="995" on="0"/>
        <pt x="871" y="1074" on="0"/>
        <pt x="864" y="1148" on="0"/>
        <pt x="859" y="1218" on="0"/>
        <pt x="858" y="1255" on="1"/>
        <pt x="843" y="1218" on="0"/>
        <pt x="813" y="1155" on="0"/>
        <pt x="779" y="1090" on="0"/>
        <pt x="738" y="1017" on="0"/>
        <pt x="711" y="969" on="1"/>
        <pt x="508" y="606" on="1"/>
        <pt x="922" y="606" on="1"/>
      </contour>
    </TTGlyph>
    <TTGlyph name="AE" xMin="-90" yMin="0" xMax="2083" yMax="1462">
      <contour>
        <pt x="2083" y="1462" on="1"/>
        <pt x="2011" y="1081" on="1"/>
        <pt x="1866" y="1081" on="1"/>
        <pt x="1867" y="1088" on="0"/>
        <pt x="1870" y="1124" on="0"/>
        <pt x="1873" y="1163" on="0"/>
        <pt x="1876" y="1196" on="0"/>
        <pt x="1876" y="1200" on="1"/>
        <pt x="1876" y="1228" on="0"/>
        <pt x="1860" y="1278" on="0"/>
        <pt x="1826" y="1316" on="0"/>
        <pt x="1771" y="1337" on="0"/>
        <pt x="1731" y="1337" on="1"/>
        <pt x="1458" y="1337" on="1"/>
        <pt x="1350" y="825" on="1"/>
        <pt x="1815" y="825" on="1"/>
        <pt x="1788" y="702" on="1"/>
        <pt x="1323" y="702" on="1"/>
        <pt x="1200" y="125" on="1"/>
        <pt x="1524" y="125" on="1"/>
        <pt x="1572" y="125" on="0"/>
        <pt x="1647" y="152" on="0"/>
        <pt x="1704" y="198" on="0"/>
        <pt x="1743" y="259" on="0"/>
        <pt x="1755" y="293" on="1"/>
        <pt x="1788" y="381" on="1"/>
        <pt x="1933" y="381" on="1"/>
        <pt x="1839" y="0" on="1"/>
        <pt x="664" y="0" on="1"/>
        <pt x="686" y="109" on="1"/>
        <pt x="713" y="109" on="1"/>
        <pt x="745" y="109" on="0"/>
        <pt x="806" y="117" on="0"/>
        <pt x="856" y="143" on="0"/>
        <pt x="893" y="191" on="0"/>
        <pt x="901" y="231" on="1"/>
        <pt x="950" y="469" on="1"/>
        <pt x="483" y="469" on="1"/>
        <pt x="362" y="297" on="1"/>
        <pt x="332" y="254" on="0"/>
        <pt x="305" y="187" on="0"/>
        <pt x="305" y="170" on="1"/>
        <pt x="305" y="138" on="0"/>
        <pt x="361" y="109" on="0"/>
        <pt x="414" y="109" on="1"/>
        <pt x="449" y="109" on="1"/>
        <pt x="426" y="0" on="1"/>
        <pt x="-90" y="0" on="1"/>
        <pt x="-68" y="109" on="1"/>
        <pt x="-43" y="109" on="1"/>
        <pt x="-16" y="109" on="0"/>
        <pt x="34" y="128" on="0"/>
        <pt x="85" y="167" on="0"/>
        <pt x="139" y="227" on="0"/>
        <pt x="170" y="268" on="1"/>
        <pt x="975" y="1343" on="1"/>
        <pt x="842" y="1354" on="1"/>
        <pt x="864" y="1462" on="1"/>
      </contour>
      <contour>
        <pt x="1114" y="1337" on="1"/>
        <pt x="575" y="592" on="1"/>
        <pt x="977" y="592" on="1"/>
        <pt x="1135" y="1337" on="1"/>
      </contour>
    </TTGlyph>
    <TTGlyph name="Aacute" xMin="-100" yMin="0" xMax="1456" yMax="1907">
      <component glyphName="A" x="0" y="0" flags="0x1204"/>
      <component glyphName="acute" x="360" y="338" flags="0x1004"/>
    </TTGlyph>
    <TTGlyph name="Acircumflex" xMin="-100" yMin="0" xMax="1456" yMax="1907">
      <component glyphName="A" x="0" y="0" flags="0x1204"/>
      <component glyphName="circumflex" x="289" y="338" flags="0x1004"/>
    </TTGlyph>
    <TTGlyph name="Adieresis" xMin="-100" yMin="0" xMax="1456" yMax="1868">
      <component glyphName="A" x="0" y="0" flags="0x1204"/>
      <component glyphName="dieresis" x="297" y="338" flags="0x1004"/>
    </TTGlyph>
    <TTGlyph name="Agrave" xMin="-100" yMin="0" xMax="1456" yMax="1907">
      <component glyphName="A" x="0" y="0" flags="0x1204"/>
      <component glyphName="grave" x="156" y="338" flags="0x1004"/>
    </TTGlyph>
    <TTGlyph name="Aring" xMin="-100" yMin="0" xMax="1456" yMax="1796">
      <component glyphName="A" x="0" y="0" flags="0x1204"/>
      <component glyphName="ring" x="467" y="141" flags="0x1004"/>
    </TTGlyph>
    <TTGlyph name="Atilde" xMin="-100" yMin="0" xMax="1456" yMax="1903">
      <component glyphName="A" x="0" y="0" flags="0x1204"/>
      <component glyphName="tilde" x="283" y="338" flags="0x1004"/>
    </TTGlyph>
    <TTGlyph name="B" xMin="-47" yMin="0" xMax="1374" yMax="1462">
      <contour>
        <pt x="-25" y="109" on="1"/>
        <pt x="2" y="109" on="1"/>
        <pt x="34" y="109" on="0"/>
        <pt x="95" y="117" on="0"/>
        <pt x="145" y="143" on="0"/>
        <pt x="182" y="191" on="0"/>
        <pt x="190" y="231" on="1"/>
        <pt x="399" y="1217" on="1"/>
        <pt x="404" y="1237" on="0"/>
        <pt x="412" y="1276" on="0"/>
        <pt x="412" y="1284" on="1"/>
        <pt x="412" y="1306" on="0"/>
        <pt x="390" y="1334" on="0"/>
        <pt x="351" y="1349" on="0"/>
        <pt x="296" y="1354" on="0"/>
        <pt x="264" y="1354" on="1"/>
        <pt x="238" y="1354" on="1"/>
        <pt x="260" y="1462" on="1"/>
        <pt x="895" y="1462" on="1"/>
        <pt x="1133" y="1462" on="0"/>
        <pt x="1374" y="1307" on="0"/>
        <pt x="1374" y="1155" on="1"/>
        <pt x="1374" y="1071" on="0"/>
        <pt x="1323" y="943" on="0"/>
        <pt x="1233" y="850" on="0"/>
        <pt x="1111" y="790" on="0"/>
        <pt x="1040" y="774" on="1"/>
        <pt x="1038" y="766" on="1"/>
        <pt x="1093" y="756" on="0"/>
        <pt x="1185" y="708" on="0"/>
        <pt x="1251" y="633" on="0"/>
        <pt x="1288" y="531" on="0"/>
        <pt x="1288" y="467" on="1"/>
        <pt x="1288" y="355" on="0"/>
        <pt x="1212" y="181" on="0"/>
        <pt x="1064" y="62" on="0"/>
        <pt x="843" y="0" on="0"/>
        <pt x="698" y="0" on="1"/>
        <pt x="-47" y="0" on="1"/>
      </contour>
      <contour>
        <pt x="489" y="125" on="1"/>
        <pt x="631" y="125" on="1"/>
        <pt x="718" y="125" on="0"/>
        <pt x="839" y="171" on="0"/>
        <pt x="915" y="261" on="0"/>
        <pt x="950" y="394" on="0"/>
        <pt x="950" y="481" on="1"/>
        <pt x="950" y="593" on="0"/>
        <pt x="848" y="702" on="0"/>
        <pt x="741" y="702" on="1"/>
        <pt x="612" y="702" on="1"/>
      </contour>
      <contour>
        <pt x="639" y="829" on="1"/>
        <pt x="754" y="829" on="1"/>
        <pt x="899" y="829" on="0"/>
        <pt x="1028" y="980" on="0"/>
        <pt x="1028" y="1120" on="1"/>
        <pt x="1028" y="1229" on="0"/>
        <pt x="930" y="1337" on="0"/>
        <pt x="836" y="1337" on="1"/>
        <pt x="745" y="1337" on="1"/>
      </contour>
    </TTGlyph>
    <TTGlyph name="C" xMin="129" yMin="-20" xMax="1440" yMax="1491">
      <contour>
        <pt x="823" y="152" on="1"/>
        <pt x="894" y="152" on="0"/>
        <pt x="1008" y="184" on="0"/>
        <pt x="1098" y="237" on="0"/>
        <pt x="1166" y="303" on="0"/>
        <pt x="1192" y="338" on="1"/>
        <pt x="1204" y="329" on="0"/>
        <pt x="1227" y="291" on="0"/>
        <pt x="1227" y="268" on="1"/>
        <pt x="1227" y="217" on="0"/>
        <pt x="1165" y="114" on="0"/>
        <pt x="1044" y="31" on="0"/>
        <pt x="866" y="-20" on="0"/>
        <pt x="750" y="-20" on="1"/>
        <pt x="603" y="-20" on="0"/>
        <pt x="372" y="53" on="0"/>
        <pt x="213" y="194" on="0"/>
        <pt x="129" y="399" on="0"/>
        <pt x="129" y="530" on="1"/>
        <pt x="129" y="653" on="0"/>
        <pt x="187" y="891" on="0"/>
        <pt x="297" y="1105" on="0"/>
        <pt x="456" y="1285" on="0"/>
        <pt x="657" y="1417" on="0"/>
        <pt x="897" y="1491" on="0"/>
        <pt x="1034" y="1491" on="1"/>
        <pt x="1136" y="1491" on="0"/>
        <pt x="1289" y="1456" on="0"/>
        <pt x="1390" y="1393" on="0"/>
        <pt x="1440" y="1302" on="0"/>
        <pt x="1440" y="1247" on="1"/>
        <pt x="1440" y="1202" on="0"/>
        <pt x="1396" y="1134" on="0"/>
        <pt x="1319" y="1087" on="0"/>
        <pt x="1213" y="1063" on="0"/>
        <pt x="1151" y="1063" on="1"/>
        <pt x="1151" y="1106" on="0"/>
        <pt x="1139" y="1210" on="0"/>
        <pt x="1102" y="1300" on="0"/>
        <pt x="1034" y="1360" on="0"/>
        <pt x="977" y="1360" on="1"/>
        <pt x="896" y="1360" on="0"/>
        <pt x="759" y="1286" on="0"/>
        <pt x="646" y="1159" on="0"/>
        <pt x="559" y="991" on="0"/>
        <pt x="500" y="804" on="0"/>
        <pt x="469" y="609" on="0"/>
        <pt x="469" y="518" on="1"/>
        <pt x="469" y="343" on="0"/>
        <pt x="647" y="152" on="0"/>
      </contour>
    </TTGlyph>
    <TTGlyph name="Ccedilla" xMin="129" yMin="-492" xMax="1440" yMax="1491">
      <component glyphName="C" x="0" y="0" flags="0x1204"/>
      <component glyphName="cedilla" x="297" y="0" flags="0x1004"/>
    </TTGlyph>
    <TTGlyph name="D" xMin="-49" yMin="0" xMax="1536" yMax="1462">
      <contour>
        <pt x="-27" y="109" on="1"/>
        <pt x="2" y="109" on="1"/>
        <pt x="34" y="109" on="0"/>
        <pt x="95" y="117" on="0"/>
        <pt x="145" y="143" on="0"/>
        <pt x="182" y="191" on="0"/>
        <pt x="190" y="231" on="1"/>
        <pt x="403" y="1237" on="1"/>
        <pt x="407" y="1248" on="0"/>
        <pt x="412" y="1276" on="0"/>
        <pt x="412" y="1284" on="1"/>
        <pt x="412" y="1306" on="0"/>
        <pt x="390" y="1334" on="0"/>
        <pt x="351" y="1349" on="0"/>
        <pt x="296" y="1354" on="0"/>
        <pt x="264" y="1354" on="1"/>
        <pt x="238" y="1354" on="1"/>
        <pt x="260" y="1462" on="1"/>
        <pt x="915" y="1462" on="1"/>
        <pt x="1062" y="1462" on="0"/>
        <pt x="1293" y="1390" on="0"/>
        <pt x="1452" y="1249" on="0"/>
        <pt x="1536" y="1041" on="0"/>
        <pt x="1536" y="905" on="1"/>
        <pt x="1536" y="783" on="0"/>
        <pt x="1485" y="554" on="0"/>
        <pt x="1386" y="353" on="0"/>
        <pt x="1240" y="186" on="0"/>
        <pt x="1048" y="66" on="0"/>
        <pt x="811" y="0" on="0"/>
        <pt x="672" y="0" on="1"/>
        <pt x="-49" y="0" on="1"/>
      </contour>
      <contour>
        <pt x="584" y="127" on="1"/>
        <pt x="728" y="127" on="0"/>
        <pt x="954" y="244" on="0"/>
        <pt x="1110" y="455" on="0"/>
        <pt x="1192" y="747" on="0"/>
        <pt x="1192" y="922" on="1"/>
        <pt x="1192" y="1029" on="0"/>
        <pt x="1142" y="1186" on="0"/>
        <pt x="1049" y="1288" on="0"/>
        <pt x="916" y="1337" on="0"/>
        <pt x="834" y="1337" on="1"/>
        <pt x="748" y="1337" on="1"/>
        <pt x="492" y="127" on="1"/>
      </contour>
    </TTGlyph>
    <TTGlyph name="E" xMin="-47" yMin="0" xMax="1372" yMax="1462">
      <contour>
        <pt x="-25" y="109" on="1"/>
        <pt x="2" y="109" on="1"/>
        <pt x="34" y="109" on="0"/>
        <pt x="95" y="117" on="0"/>
        <pt x="145" y="143" on="0"/>
        <pt x="182" y="191" on="0"/>
        <pt x="190" y="231" on="1"/>
        <pt x="403" y="1237" on="1"/>
        <pt x="407" y="1248" on="0"/>
        <pt x="412" y="1276" on="0"/>
        <pt x="412" y="1284" on="1"/>
        <pt x="412" y="1306" on="0"/>
        <pt x="390" y="1334" on="0"/>
        <pt x="351" y="1349" on="0"/>
        <pt x="296" y="1354" on="0"/>
        <pt x="264" y="1354" on="1"/>
        <pt x="238" y="1354" on="1"/>
        <pt x="260" y="1462" on="1"/>
        <pt x="1372" y="1462" on="1"/>
        <pt x="1300" y="1081" on="1"/>
        <pt x="1155" y="1081" on="1"/>
        <pt x="1156" y="1088" on="0"/>
        <pt x="1159" y="1124" on="0"/>
        <pt x="1162" y="1163" on="0"/>
        <pt x="1165" y="1196" on="0"/>
        <pt x="1165" y="1200" on="1"/>
        <pt x="1165" y="1228" on="0"/>
        <pt x="1149" y="1278" on="0"/>
        <pt x="1115" y="1316" on="0"/>
        <pt x="1060" y="1337" on="0"/>
        <pt x="1020" y="1337" on="1"/>
        <pt x="748" y="1337" on="1"/>
        <pt x="639" y="825" on="1"/>
        <pt x="1104" y="825" on="1"/>
        <pt x="1077" y="702" on="1"/>
        <pt x="612" y="702" on="1"/>
        <pt x="489" y="125" on="1"/>
        <pt x="813" y="125" on="1"/>
        <pt x="861" y="125" on="0"/>
        <pt x="937" y="152" on="0"/>
        <pt x="993" y="198" on="0"/>
        <pt x="1032" y="259" on="0"/>
        <pt x="1044" y="293" on="1"/>
        <pt x="1077" y="381" on="1"/>
        <pt x="1223" y="381" on="1"/>
        <pt x="1128" y="0" on="1"/>
        <pt x="-47" y="0" on="1"/>
      </contour>
    </TTGlyph>
    <TTGlyph name="Eacute" xMin="-47" yMin="0" xMax="1372" yMax="1907">
      <component glyphName="E" x="0" y="0" flags="0x1204"/>
      <component glyphName="acute" x="244" y="338" flags="0x1004"/>
    </TTGlyph>
    <TTGlyph name="Ecircumflex" xMin="-47" yMin="0" xMax="1372" yMax="1907">
      <component glyphName="E" x="0" y="0" flags="0x1204"/>
      <component glyphName="circumflex" x="227" y="338" flags="0x1004"/>
    </TTGlyph>
    <TTGlyph name="Edieresis" xMin="-47" yMin="0" xMax="1372" yMax="1868">
      <component glyphName="E" x="0" y="0" flags="0x1204"/>
      <component glyphName="dieresis" x="195" y="338" flags="0x1004"/>
    </TTGlyph>
    <TTGlyph name="Egrave" xMin="-47" yMin="0" xMax="1372" yMax="1907">
      <component glyphName="E" x="0" y="0" flags="0x1204"/>
      <component glyphName="grave" x="39" y="338" flags="0x1004"/>
    </TTGlyph>
    <TTGlyph name="Eth" xMin="-49" yMin="0" xMax="1536" yMax="1462">
      <contour>
        <pt x="-27" y="109" on="1"/>
        <pt x="2" y="109" on="1"/>
        <pt x="34" y="109" on="0"/>
        <pt x="95" y="117" on="0"/>
        <pt x="145" y="143" on="0"/>
        <pt x="182" y="191" on="0"/>
        <pt x="190" y="231" on="1"/>
        <pt x="289" y="702" on="1"/>
        <pt x="121" y="702" on="1"/>
        <pt x="147" y="827" on="1"/>
        <pt x="315" y="827" on="1"/>
        <pt x="403" y="1237" on="1"/>
        <pt x="406" y="1248" on="0"/>
        <pt x="411" y="1276" on="0"/>
        <pt x="411" y="1284" on="1"/>
        <pt x="411" y="1306" on="0"/>
        <pt x="389" y="1334" on="0"/>
        <pt x="350" y="1349" on="0"/>
        <pt x="296" y="1354" on="0"/>
        <pt x="264" y="1354" on="1"/>
        <pt x="237" y="1354" on="1"/>
        <pt x="260" y="1462" on="1"/>
        <pt x="915" y="1462" on="1"/>
        <pt x="1062" y="1462" on="0"/>
        <pt x="1292" y="1390" on="0"/>
        <pt x="1452" y="1249" on="0"/>
        <pt x="1536" y="1041" on="0"/>
        <pt x="1536" y="905" on="1"/>
        <pt x="1536" y="783" on="0"/>
        <pt x="1485" y="554" on="0"/>
        <pt x="1386" y="353" on="0"/>
        <pt x="1240" y="186" on="0"/>
        <pt x="1048" y="66" on="0"/>
        <pt x="811" y="0" on="0"/>
        <pt x="672" y="0" on="1"/>
        <pt x="-49" y="0" on="1"/>
      </contour>
      <contour>
        <pt x="584" y="127" on="1"/>
        <pt x="728" y="127" on="0"/>
        <pt x="954" y="244" on="0"/>
        <pt x="1110" y="455" on="0"/>
        <pt x="1192" y="747" on="0"/>
        <pt x="1192" y="922" on="1"/>
        <pt x="1192" y="1029" on="0"/>
        <pt x="1142" y="1186" on="0"/>
        <pt x="1048" y="1288" on="0"/>
        <pt x="915" y="1337" on="0"/>
        <pt x="833" y="1337" on="1"/>
        <pt x="747" y="1337" on="1"/>
        <pt x="639" y="827" on="1"/>
        <pt x="897" y="827" on="1"/>
        <pt x="870" y="702" on="1"/>
        <pt x="612" y="702" on="1"/>
        <pt x="491" y="127" on="1"/>
      </contour>
    </TTGlyph>
    <TTGlyph name="F" xMin="-47" yMin="0" xMax="1386" yMax="1462">
      <contour>
        <pt x="514" y="242" on="1"/>
        <pt x="509" y="219" on="0"/>
        <pt x="504" y="186" on="0"/>
        <pt x="504" y="178" on="1"/>
        <pt x="504" y="156" on="0"/>
        <pt x="526" y="129" on="0"/>
        <pt x="566" y="114" on="0"/>
        <pt x="621" y="109" on="0"/>
        <pt x="653" y="109" on="1"/>
        <pt x="680" y="109" on="1"/>
        <pt x="657" y="0" on="1"/>
        <pt x="-47" y="0" on="1"/>
        <pt x="-25" y="109" on="1"/>
        <pt x="2" y="109" on="1"/>
        <pt x="34" y="109" on="0"/>
        <pt x="95" y="117" on="0"/>
        <pt x="145" y="143" on="0"/>
        <pt x="182" y="191" on="0"/>
        <pt x="190" y="231" on="1"/>
        <pt x="399" y="1214" on="1"/>
        <pt x="412" y="1267" on="0"/>
        <pt x="412" y="1284" on="1"/>
        <pt x="412" y="1306" on="0"/>
        <pt x="390" y="1334" on="0"/>
        <pt x="351" y="1349" on="0"/>
        <pt x="296" y="1354" on="0"/>
        <pt x="264" y="1354" on="1"/>
        <pt x="238" y="1354" on="1"/>
        <pt x="260" y="1462" on="1"/>
        <pt x="1386" y="1462" on="1"/>
        <pt x="1315" y="1081" on="1"/>
        <pt x="1169" y="1081" on="1"/>
        <pt x="1171" y="1098" on="0"/>
        <pt x="1175" y="1136" on="0"/>
        <pt x="1178" y="1171" on="0"/>
        <pt x="1180" y="1196" on="0"/>
        <pt x="1180" y="1200" on="1"/>
        <pt x="1180" y="1229" on="0"/>
        <pt x="1164" y="1279" on="0"/>
        <pt x="1128" y="1316" on="0"/>
        <pt x="1069" y="1337" on="0"/>
        <pt x="1026" y="1337" on="1"/>
        <pt x="748" y="1337" on="1"/>
        <pt x="629" y="778" on="1"/>
        <pt x="1114" y="778" on="1"/>
        <pt x="1090" y="657" on="1"/>
        <pt x="604" y="657" on="1"/>
      </contour>
    </TTGlyph>
    <TTGlyph name="G" xMin="129" yMin="-20" xMax="1567" yMax="1483">
      <contour>
        <pt x="1544" y="590" on="1"/>
        <pt x="1542" y="590" on="1"/>
        <pt x="1508" y="590" on="0"/>
        <pt x="1445" y="581" on="0"/>
        <pt x="1394" y="555" on="0"/>
        <pt x="1356" y="505" on="0"/>
        <pt x="1348" y="465" on="1"/>
        <pt x="1270" y="74" on="1"/>
        <pt x="1208" y="50" on="0"/>
        <pt x="1089" y="15" on="0"/>
        <pt x="966" y="-9" on="0"/>
        <pt x="836" y="-20" on="0"/>
        <pt x="764" y="-20" on="1"/>
        <pt x="606" y="-20" on="0"/>
        <pt x="369" y="56" on="0"/>
        <pt x="209" y="198" on="0"/>
        <pt x="129" y="401" on="0"/>
        <pt x="129" y="528" on="1"/>
        <pt x="129" y="660" on="0"/>
        <pt x="191" y="905" on="0"/>
        <pt x="307" y="1117" on="0"/>
        <pt x="475" y="1291" on="0"/>
        <pt x="685" y="1415" on="0"/>
        <pt x="936" y="1483" on="0"/>
        <pt x="1077" y="1483" on="1"/>
        <pt x="1195" y="1483" on="0"/>
        <pt x="1369" y="1441" on="0"/>
        <pt x="1485" y="1373" on="0"/>
        <pt x="1542" y="1285" on="0"/>
        <pt x="1542" y="1239" on="1"/>
        <pt x="1542" y="1199" on="0"/>
        <pt x="1495" y="1130" on="0"/>
        <pt x="1415" y="1079" on="0"/>
        <pt x="1306" y="1049" on="0"/>
        <pt x="1245" y="1049" on="1"/>
        <pt x="1245" y="1113" on="0"/>
        <pt x="1218" y="1224" on="0"/>
        <pt x="1161" y="1306" on="0"/>
        <pt x="1074" y="1352" on="0"/>
        <pt x="1014" y="1352" on="1"/>
        <pt x="936" y="1352" on="0"/>
        <pt x="794" y="1288" on="0"/>
        <pt x="672" y="1174" on="0"/>
        <pt x="573" y="1016" on="0"/>
        <pt x="503" y="828" on="0"/>
        <pt x="465" y="615" on="0"/>
        <pt x="465" y="504" on="1"/>
        <pt x="465" y="418" on="0"/>
        <pt x="499" y="277" on="0"/>
        <pt x="574" y="175" on="0"/>
        <pt x="691" y="119" on="0"/>
        <pt x="774" y="119" on="1"/>
        <pt x="821" y="119" on="0"/>
        <pt x="919" y="135" on="0"/>
        <pt x="956" y="147" on="1"/>
        <pt x="1024" y="451" on="1"/>
        <pt x="1036" y="505" on="0"/>
        <pt x="1036" y="520" on="1"/>
        <pt x="1036" y="542" on="0"/>
        <pt x="1014" y="570" on="0"/>
        <pt x="975" y="585" on="0"/>
        <pt x="921" y="590" on="0"/>
        <pt x="889" y="590" on="1"/>
        <pt x="862" y="590" on="1"/>
        <pt x="885" y="698" on="1"/>
        <pt x="1567" y="698" on="1"/>
      </contour>
    </TTGlyph>
    <TTGlyph name="H" xMin="-47" yMin="0" xMax="1823" yMax="1462">
      <contour>
        <pt x="807" y="0" on="1"/>
        <pt x="829" y="109" on="1"/>
        <pt x="856" y="109" on="1"/>
        <pt x="889" y="109" on="0"/>
        <pt x="951" y="117" on="0"/>
        <pt x="1003" y="144" on="0"/>
        <pt x="1040" y="192" on="0"/>
        <pt x="1049" y="233" on="1"/>
        <pt x="1147" y="700" on="1"/>
        <pt x="612" y="700" on="1"/>
        <pt x="512" y="225" on="1"/>
        <pt x="509" y="214" on="0"/>
        <pt x="504" y="186" on="0"/>
        <pt x="504" y="178" on="1"/>
        <pt x="504" y="156" on="0"/>
        <pt x="526" y="129" on="0"/>
        <pt x="566" y="114" on="0"/>
        <pt x="621" y="109" on="0"/>
        <pt x="653" y="109" on="1"/>
        <pt x="680" y="109" on="1"/>
        <pt x="657" y="0" on="1"/>
        <pt x="-47" y="0" on="1"/>
        <pt x="-25" y="109" on="1"/>
        <pt x="2" y="109" on="1"/>
        <pt x="34" y="109" on="0"/>
        <pt x="95" y="117" on="0"/>
        <pt x="145" y="143" on="0"/>
        <pt x="182" y="191" on="0"/>
        <pt x="190" y="231" on="1"/>
        <pt x="399" y="1214" on="1"/>
        <pt x="412" y="1267" on="0"/>
        <pt x="412" y="1284" on="1"/>
        <pt x="412" y="1306" on="0"/>
        <pt x="390" y="1334" on="0"/>
        <pt x="351" y="1349" on="0"/>
        <pt x="296" y="1354" on="0"/>
        <pt x="264" y="1354" on="1"/>
        <pt x="238" y="1354" on="1"/>
        <pt x="260" y="1462" on="1"/>
        <pt x="967" y="1462" on="1"/>
        <pt x="944" y="1354" on="1"/>
        <pt x="918" y="1354" on="1"/>
        <pt x="884" y="1354" on="0"/>
        <pt x="821" y="1345" on="0"/>
        <pt x="769" y="1319" on="0"/>
        <pt x="731" y="1269" on="0"/>
        <pt x="723" y="1229" on="1"/>
        <pt x="639" y="825" on="1"/>
        <pt x="1174" y="825" on="1"/>
        <pt x="1260" y="1223" on="1"/>
        <pt x="1265" y="1244" on="0"/>
        <pt x="1270" y="1276" on="0"/>
        <pt x="1270" y="1284" on="1"/>
        <pt x="1270" y="1306" on="0"/>
        <pt x="1247" y="1334" on="0"/>
        <pt x="1207" y="1349" on="0"/>
        <pt x="1152" y="1354" on="0"/>
        <pt x="1120" y="1354" on="1"/>
        <pt x="1094" y="1354" on="1"/>
        <pt x="1116" y="1462" on="1"/>
        <pt x="1823" y="1462" on="1"/>
        <pt x="1800" y="1354" on="1"/>
        <pt x="1774" y="1354" on="1"/>
        <pt x="1741" y="1354" on="0"/>
        <pt x="1679" y="1345" on="0"/>
        <pt x="1627" y="1319" on="0"/>
        <pt x="1590" y="1269" on="0"/>
        <pt x="1581" y="1229" on="1"/>
        <pt x="1370" y="225" on="1"/>
        <pt x="1367" y="214" on="0"/>
        <pt x="1362" y="186" on="0"/>
        <pt x="1362" y="178" on="1"/>
        <pt x="1362" y="156" on="0"/>
        <pt x="1384" y="129" on="0"/>
        <pt x="1423" y="114" on="0"/>
        <pt x="1477" y="109" on="0"/>
        <pt x="1509" y="109" on="1"/>
        <pt x="1536" y="109" on="1"/>
        <pt x="1513" y="0" on="1"/>
      </contour>
    </TTGlyph>
    <TTGlyph name="I" xMin="-47" yMin="0" xMax="967" yMax="1462">
      <contour>
        <pt x="-47" y="0" on="1"/>
        <pt x="-25" y="109" on="1"/>
        <pt x="2" y="109" on="1"/>
        <pt x="34" y="109" on="0"/>
        <pt x="95" y="117" on="0"/>
        <pt x="145" y="143" on="0"/>
        <pt x="182" y="191" on="0"/>
        <pt x="190" y="231" on="1"/>
        <pt x="403" y="1237" on="1"/>
        <pt x="407" y="1248" on="0"/>
        <pt x="412" y="1276" on="0"/>
        <pt x="412" y="1284" on="1"/>
        <pt x="412" y="1306" on="0"/>
        <pt x="390" y="1334" on="0"/>
        <pt x="351" y="1349" on="0"/>
        <pt x="296" y="1354" on="0"/>
        <pt x="264" y="1354" on="1"/>
        <pt x="238" y="1354" on="1"/>
        <pt x="260" y="1462" on="1"/>
        <pt x="967" y="1462" on="1"/>
        <pt x="944" y="1354" on="1"/>
        <pt x="918" y="1354" on="1"/>
        <pt x="884" y="1354" on="0"/>
        <pt x="821" y="1345" on="0"/>
        <pt x="769" y="1319" on="0"/>
        <pt x="731" y="1269" on="0"/>
        <pt x="723" y="1229" on="1"/>
        <pt x="512" y="225" on="1"/>
        <pt x="510" y="214" on="0"/>
        <pt x="504" y="186" on="0"/>
        <pt x="504" y="178" on="1"/>
        <pt x="504" y="156" on="0"/>
        <pt x="526" y="129" on="0"/>
        <pt x="566" y="114" on="0"/>
        <pt x="621" y="109" on="0"/>
        <pt x="653" y="109" on="1"/>
        <pt x="680" y="109" on="1"/>
        <pt x="657" y="0" on="1"/>
      </contour>
    </TTGlyph>
    <TTGlyph name="Iacute" xMin="-47" yMin="0" xMax="1066" yMax="1907">
      <component glyphName="I" x="0" y="0" flags="0x1204"/>
      <component glyphName="acute" x="-3" y="338" flags="0x1004"/>
    </TTGlyph>
    <TTGlyph name="Icircumflex" xMin="-47" yMin="0" xMax="999" yMax="1907">
      <component glyphName="I" x="0" y="0" flags="0x1204"/>
      <component glyphName="circumflex" x="-58" y="338" flags="0x1004"/>
    </TTGlyph>
    <TTGlyph name="Idieresis" xMin="-47" yMin="0" xMax="984" yMax="1868">
      <component glyphName="I" x="0" y="0" flags="0x1204"/>
      <component glyphName="dieresis" x="-60" y="338" flags="0x1004"/>
    </TTGlyph>
    <TTGlyph name="Igrave" xMin="-47" yMin="0" xMax="967" yMax="1907">
      <component glyphName="I" x="0" y="0" flags="0x1204"/>
      <component glyphName="grave" x="-202" y="338" flags="0x1004"/>
    </TTGlyph>
    <TTGlyph name="J" xMin="-324" yMin="-492" xMax="967" yMax="1462">
      <contour>
        <pt x="463" y="-6" on="1"/>
        <pt x="437" y="-131" on="0"/>
        <pt x="315" y="-314" on="0"/>
        <pt x="149" y="-434" on="0"/>
        <pt x="-51" y="-492" on="0"/>
        <pt x="-156" y="-492" on="1"/>
        <pt x="-211" y="-492" on="0"/>
        <pt x="-286" y="-480" on="0"/>
        <pt x="-324" y="-469" on="1"/>
        <pt x="-295" y="-356" on="1"/>
        <pt x="-282" y="-361" on="0"/>
        <pt x="-249" y="-368" on="0"/>
        <pt x="-213" y="-373" on="0"/>
        <pt x="-177" y="-375" on="0"/>
        <pt x="-162" y="-375" on="1"/>
        <pt x="-109" y="-375" on="0"/>
        <pt x="-18" y="-337" on="0"/>
        <pt x="57" y="-250" on="0"/>
        <pt x="117" y="-109" on="0"/>
        <pt x="139" y="-6" on="1"/>
        <pt x="403" y="1237" on="1"/>
        <pt x="407" y="1248" on="0"/>
        <pt x="412" y="1276" on="0"/>
        <pt x="412" y="1284" on="1"/>
        <pt x="412" y="1306" on="0"/>
        <pt x="390" y="1334" on="0"/>
        <pt x="351" y="1349" on="0"/>
        <pt x="296" y="1354" on="0"/>
        <pt x="264" y="1354" on="1"/>
        <pt x="238" y="1354" on="1"/>
        <pt x="260" y="1462" on="1"/>
        <pt x="967" y="1462" on="1"/>
        <pt x="944" y="1354" on="1"/>
        <pt x="918" y="1354" on="1"/>
        <pt x="884" y="1354" on="0"/>
        <pt x="821" y="1345" on="0"/>
        <pt x="769" y="1319" on="0"/>
        <pt x="731" y="1269" on="0"/>
        <pt x="723" y="1229" on="1"/>
      </contour>
    </TTGlyph>
    <TTGlyph name="K" xMin="-47" yMin="0" xMax="1659" yMax="1462">
      <contour>
        <pt x="1036" y="1110" on="1"/>
        <pt x="1078" y="1147" on="0"/>
        <pt x="1131" y="1206" on="0"/>
        <pt x="1162" y="1253" on="0"/>
        <pt x="1174" y="1289" on="0"/>
        <pt x="1174" y="1303" on="1"/>
        <pt x="1174" y="1329" on="0"/>
        <pt x="1134" y="1356" on="0"/>
        <pt x="1083" y="1356" on="1"/>
        <pt x="1106" y="1462" on="1"/>
        <pt x="1659" y="1462" on="1"/>
        <pt x="1636" y="1356" on="1"/>
        <pt x="1595" y="1356" on="0"/>
        <pt x="1519" y="1336" on="0"/>
        <pt x="1441" y="1294" on="0"/>
        <pt x="1356" y="1230" on="0"/>
        <pt x="1307" y="1186" on="1"/>
        <pt x="975" y="893" on="1"/>
        <pt x="1214" y="317" on="1"/>
        <pt x="1239" y="260" on="0"/>
        <pt x="1280" y="180" on="0"/>
        <pt x="1323" y="131" on="0"/>
        <pt x="1374" y="109" on="0"/>
        <pt x="1409" y="109" on="1"/>
        <pt x="1415" y="109" on="1"/>
        <pt x="1395" y="0" on="1"/>
        <pt x="1288" y="0" on="1"/>
        <pt x="1186" y="0" on="0"/>
        <pt x="1051" y="25" on="0"/>
        <pt x="958" y="89" on="0"/>
        <pt x="893" y="198" on="0"/>
        <pt x="860" y="283" on="1"/>
        <pt x="709" y="674" on="1"/>
        <pt x="588" y="588" on="1"/>
        <pt x="512" y="225" on="1"/>
        <pt x="510" y="214" on="0"/>
        <pt x="504" y="186" on="0"/>
        <pt x="504" y="178" on="1"/>
        <pt x="504" y="156" on="0"/>
        <pt x="526" y="129" on="0"/>
        <pt x="566" y="114" on="0"/>
        <pt x="621" y="109" on="0"/>
        <pt x="653" y="109" on="1"/>
        <pt x="680" y="109" on="1"/>
        <pt x="657" y="0" on="1"/>
        <pt x="-47" y="0" on="1"/>
        <pt x="-25" y="109" on="1"/>
        <pt x="2" y="109" on="1"/>
        <pt x="34" y="109" on="0"/>
        <pt x="95" y="117" on="0"/>
        <pt x="145" y="143" on="0"/>
        <pt x="182" y="191" on="0"/>
        <pt x="190" y="231" on="1"/>
        <pt x="399" y="1214" on="1"/>
        <pt x="412" y="1267" on="0"/>
        <pt x="412" y="1284" on="1"/>
        <pt x="412" y="1306" on="0"/>
        <pt x="390" y="1334" on="0"/>
        <pt x="351" y="1349" on="0"/>
        <pt x="296" y="1354" on="0"/>
        <pt x="264" y="1354" on="1"/>
        <pt x="238" y="1354" on="1"/>
        <pt x="260" y="1462" on="1"/>
        <pt x="967" y="1462" on="1"/>
        <pt x="944" y="1354" on="1"/>
        <pt x="918" y="1354" on="1"/>
        <pt x="884" y="1354" on="0"/>
        <pt x="821" y="1345" on="0"/>
        <pt x="769" y="1319" on="0"/>
        <pt x="731" y="1269" on="0"/>
        <pt x="723" y="1229" on="1"/>
        <pt x="621" y="743" on="1"/>
      </contour>
    </TTGlyph>
    <TTGlyph name="L" xMin="-47" yMin="0" xMax="1266" yMax="1462">
      <contour>
        <pt x="834" y="125" on="1"/>
        <pt x="890" y="125" on="0"/>
        <pt x="972" y="153" on="0"/>
        <pt x="1033" y="208" on="0"/>
        <pt x="1079" y="292" on="0"/>
        <pt x="1098" y="348" on="1"/>
        <pt x="1135" y="457" on="1"/>
        <pt x="1266" y="457" on="1"/>
        <pt x="1153" y="0" on="1"/>
        <pt x="-47" y="0" on="1"/>
        <pt x="-25" y="109" on="1"/>
        <pt x="2" y="109" on="1"/>
        <pt x="34" y="109" on="0"/>
        <pt x="95" y="117" on="0"/>
        <pt x="145" y="143" on="0"/>
        <pt x="182" y="191" on="0"/>
        <pt x="190" y="231" on="1"/>
        <pt x="399" y="1214" on="1"/>
        <pt x="412" y="1267" on="0"/>
        <pt x="412" y="1284" on="1"/>
        <pt x="412" y="1306" on="0"/>
        <pt x="390" y="1334" on="0"/>
        <pt x="351" y="1349" on="0"/>
        <pt x="296" y="1354" on="0"/>
        <pt x="264" y="1354" on="1"/>
        <pt x="238" y="1354" on="1"/>
        <pt x="260" y="1462" on="1"/>
        <pt x="967" y="1462" on="1"/>
        <pt x="944" y="1354" on="1"/>
        <pt x="918" y="1354" on="1"/>
        <pt x="884" y="1354" on="0"/>
        <pt x="821" y="1345" on="0"/>
        <pt x="769" y="1319" on="0"/>
        <pt x="731" y="1269" on="0"/>
        <pt x="723" y="1229" on="1"/>
        <pt x="492" y="125" on="1"/>
      </contour>
    </TTGlyph>
    <TTGlyph name="M" xMin="-47" yMin="0" xMax="2097" yMax="1462">
      <contour>
        <pt x="2097" y="1462" on="1"/>
        <pt x="2075" y="1354" on="1"/>
        <pt x="2048" y="1354" on="1"/>
        <pt x="2015" y="1354" on="0"/>
        <pt x="1953" y="1345" on="0"/>
        <pt x="1901" y="1319" on="0"/>
        <pt x="1864" y="1269" on="0"/>
        <pt x="1855" y="1229" on="1"/>
        <pt x="1645" y="225" on="1"/>
        <pt x="1641" y="214" on="0"/>
        <pt x="1636" y="186" on="0"/>
        <pt x="1636" y="178" on="1"/>
        <pt x="1636" y="156" on="0"/>
        <pt x="1658" y="129" on="0"/>
        <pt x="1697" y="114" on="0"/>
        <pt x="1752" y="109" on="0"/>
        <pt x="1784" y="109" on="1"/>
        <pt x="1810" y="109" on="1"/>
        <pt x="1788" y="0" on="1"/>
        <pt x="1090" y="0" on="1"/>
        <pt x="1112" y="109" on="1"/>
        <pt x="1139" y="109" on="1"/>
        <pt x="1172" y="109" on="0"/>
        <pt x="1234" y="117" on="0"/>
        <pt x="1285" y="144" on="0"/>
        <pt x="1323" y="192" on="0"/>
        <pt x="1331" y="233" on="1"/>
        <pt x="1548" y="1260" on="1"/>
        <pt x="870" y="0" on="1"/>
        <pt x="729" y="0" on="1"/>
        <pt x="563" y="1260" on="1"/>
        <pt x="346" y="242" on="1"/>
        <pt x="341" y="219" on="0"/>
        <pt x="336" y="186" on="0"/>
        <pt x="336" y="178" on="1"/>
        <pt x="336" y="156" on="0"/>
        <pt x="358" y="129" on="0"/>
        <pt x="398" y="114" on="0"/>
        <pt x="453" y="109" on="0"/>
        <pt x="485" y="109" on="1"/>
        <pt x="492" y="109" on="1"/>
        <pt x="469" y="0" on="1"/>
        <pt x="-47" y="0" on="1"/>
        <pt x="-25" y="109" on="1"/>
        <pt x="2" y="109" on="1"/>
        <pt x="34" y="109" on="0"/>
        <pt x="95" y="117" on="0"/>
        <pt x="145" y="143" on="0"/>
        <pt x="182" y="191" on="0"/>
        <pt x="190" y="231" on="1"/>
        <pt x="399" y="1214" on="1"/>
        <pt x="412" y="1267" on="0"/>
        <pt x="412" y="1284" on="1"/>
        <pt x="412" y="1306" on="0"/>
        <pt x="390" y="1334" on="0"/>
        <pt x="351" y="1349" on="0"/>
        <pt x="296" y="1354" on="0"/>
        <pt x="264" y="1354" on="1"/>
        <pt x="238" y="1354" on="1"/>
        <pt x="260" y="1462" on="1"/>
        <pt x="831" y="1462" on="1"/>
        <pt x="969" y="467" on="1"/>
        <pt x="1505" y="1462" on="1"/>
      </contour>
    </TTGlyph>
    <TTGlyph name="N" xMin="-47" yMin="0" xMax="1780" yMax="1462">
      <contour>
        <pt x="1094" y="0" on="1"/>
        <pt x="539" y="1159" on="1"/>
        <pt x="346" y="242" on="1"/>
        <pt x="341" y="219" on="0"/>
        <pt x="336" y="186" on="0"/>
        <pt x="336" y="178" on="1"/>
        <pt x="336" y="156" on="0"/>
        <pt x="358" y="129" on="0"/>
        <pt x="398" y="114" on="0"/>
        <pt x="453" y="109" on="0"/>
        <pt x="485" y="109" on="1"/>
        <pt x="492" y="109" on="1"/>
        <pt x="469" y="0" on="1"/>
        <pt x="-47" y="0" on="1"/>
        <pt x="-25" y="109" on="1"/>
        <pt x="2" y="109" on="1"/>
        <pt x="34" y="109" on="0"/>
        <pt x="95" y="117" on="0"/>
        <pt x="145" y="143" on="0"/>
        <pt x="182" y="191" on="0"/>
        <pt x="190" y="231" on="1"/>
        <pt x="399" y="1214" on="1"/>
        <pt x="412" y="1267" on="0"/>
        <pt x="412" y="1284" on="1"/>
        <pt x="412" y="1306" on="0"/>
        <pt x="390" y="1334" on="0"/>
        <pt x="351" y="1349" on="0"/>
        <pt x="296" y="1354" on="0"/>
        <pt x="264" y="1354" on="1"/>
        <pt x="238" y="1354" on="1"/>
        <pt x="260" y="1462" on="1"/>
        <pt x="715" y="1462" on="1"/>
        <pt x="1214" y="412" on="1"/>
        <pt x="1386" y="1221" on="1"/>
        <pt x="1397" y="1268" on="0"/>
        <pt x="1397" y="1284" on="1"/>
        <pt x="1397" y="1306" on="0"/>
        <pt x="1374" y="1334" on="0"/>
        <pt x="1334" y="1349" on="0"/>
        <pt x="1279" y="1354" on="0"/>
        <pt x="1247" y="1354" on="1"/>
        <pt x="1241" y="1354" on="1"/>
        <pt x="1264" y="1462" on="1"/>
        <pt x="1780" y="1462" on="1"/>
        <pt x="1757" y="1354" on="1"/>
        <pt x="1731" y="1354" on="1"/>
        <pt x="1699" y="1354" on="0"/>
        <pt x="1638" y="1345" on="0"/>
        <pt x="1588" y="1319" on="0"/>
        <pt x="1551" y="1271" on="0"/>
        <pt x="1542" y="1231" on="1"/>
        <pt x="1282" y="0" on="1"/>
      </contour>
    </TTGlyph>
    <TTGlyph name="Ntilde" xMin="-47" yMin="0" xMax="1780" yMax="1903">
      <component glyphName="N" x="0" y="0" flags="0x1204"/>
      <component glyphName="tilde" x="342" y="338" flags="0x1004"/>
    </TTGlyph>
    <TTGlyph name="O" xMin="129" yMin="-23" xMax="1567" yMax="1485">
      <contour>
        <pt x="129" y="545" on="1"/>
        <pt x="129" y="643" on="0"/>
        <pt x="178" y="859" on="0"/>
        <pt x="276" y="1068" on="0"/>
        <pt x="422" y="1257" on="0"/>
        <pt x="615" y="1400" on="0"/>
        <pt x="857" y="1485" on="0"/>
        <pt x="1001" y="1485" on="1"/>
        <pt x="1114" y="1485" on="0"/>
        <pt x="1319" y="1419" on="0"/>
        <pt x="1475" y="1281" on="0"/>
        <pt x="1567" y="1069" on="0"/>
        <pt x="1567" y="922" on="1"/>
        <pt x="1567" y="828" on="0"/>
        <pt x="1520" y="614" on="0"/>
        <pt x="1425" y="404" on="0"/>
        <pt x="1282" y="212" on="0"/>
        <pt x="1089" y="65" on="0"/>
        <pt x="846" y="-23" on="0"/>
        <pt x="700" y="-23" on="1"/>
        <pt x="579" y="-23" on="0"/>
        <pt x="370" y="50" on="0"/>
        <pt x="217" y="194" on="0"/>
        <pt x="129" y="406" on="0"/>
      </contour>
      <contour>
        <pt x="463" y="496" on="1"/>
        <pt x="463" y="395" on="0"/>
        <pt x="506" y="250" on="0"/>
        <pt x="581" y="157" on="0"/>
        <pt x="683" y="113" on="0"/>
        <pt x="741" y="113" on="1"/>
        <pt x="826" y="113" on="0"/>
        <pt x="965" y="195" on="0"/>
        <pt x="1075" y="332" on="0"/>
        <pt x="1156" y="509" on="0"/>
        <pt x="1209" y="699" on="0"/>
        <pt x="1235" y="888" on="0"/>
        <pt x="1235" y="969" on="1"/>
        <pt x="1235" y="1069" on="0"/>
        <pt x="1193" y="1213" on="0"/>
        <pt x="1120" y="1307" on="0"/>
        <pt x="1018" y="1352" on="0"/>
        <pt x="958" y="1352" on="1"/>
        <pt x="873" y="1352" on="0"/>
        <pt x="734" y="1270" on="0"/>
        <pt x="624" y="1133" on="0"/>
        <pt x="542" y="956" on="0"/>
        <pt x="489" y="765" on="0"/>
        <pt x="463" y="576" on="0"/>
      </contour>
    </TTGlyph>
    <TTGlyph name="Oacute" xMin="129" yMin="-23" xMax="1567" yMax="1907">
      <component glyphName="O" x="0" y="0" flags="0x1204"/>
      <component glyphName="acute" x="377" y="338" flags="0x1004"/>
    </TTGlyph>
    <TTGlyph name="Ocircumflex" xMin="129" yMin="-23" xMax="1567" yMax="1907">
      <component glyphName="O" x="0" y="0" flags="0x1204"/>
      <component glyphName="circumflex" x="322" y="338" flags="0x1004"/>
    </TTGlyph>
    <TTGlyph name="Odieresis" xMin="129" yMin="-23" xMax="1567" yMax="1868">
      <component glyphName="O" x="0" y="0" flags="0x1204"/>
      <component glyphName="dieresis" x="326" y="338" flags="0x1004"/>
    </TTGlyph>
    <TTGlyph name="Ograve" xMin="129" yMin="-23" xMax="1567" yMax="1907">
      <component glyphName="O" x="0" y="0" flags="0x1204"/>
      <component glyphName="grave" x="152" y="338" flags="0x1004"/>
    </TTGlyph>
    <TTGlyph name="Oslash" xMin="129" yMin="-82" xMax="1567" yMax="1546">
      <contour>
        <pt x="129" y="545" on="1"/>
        <pt x="129" y="643" on="0"/>
        <pt x="178" y="859" on="0"/>
        <pt x="276" y="1068" on="0"/>
        <pt x="422" y="1257" on="0"/>
        <pt x="615" y="1400" on="0"/>
        <pt x="857" y="1485" on="0"/>
        <pt x="1001" y="1485" on="1"/>
        <pt x="1163" y="1485" on="0"/>
        <pt x="1296" y="1417" on="1"/>
        <pt x="1393" y="1546" on="1"/>
        <pt x="1536" y="1546" on="1"/>
        <pt x="1391" y="1354" on="1"/>
        <pt x="1471" y="1285" on="0"/>
        <pt x="1567" y="1071" on="0"/>
        <pt x="1567" y="922" on="1"/>
        <pt x="1567" y="828" on="0"/>
        <pt x="1520" y="614" on="0"/>
        <pt x="1425" y="404" on="0"/>
        <pt x="1282" y="212" on="0"/>
        <pt x="1089" y="65" on="0"/>
        <pt x="846" y="-23" on="0"/>
        <pt x="700" y="-23" on="1"/>
        <pt x="619" y="-23" on="0"/>
        <pt x="473" y="11" on="0"/>
        <pt x="408" y="43" on="1"/>
        <pt x="315" y="-82" on="1"/>
        <pt x="170" y="-82" on="1"/>
        <pt x="313" y="104" on="1"/>
        <pt x="227" y="177" on="0"/>
        <pt x="129" y="396" on="0"/>
      </contour>
      <contour>
        <pt x="463" y="496" on="1"/>
        <pt x="463" y="400" on="0"/>
        <pt x="481" y="330" on="1"/>
        <pt x="1167" y="1245" on="1"/>
        <pt x="1130" y="1299" on="0"/>
        <pt x="1023" y="1352" on="0"/>
        <pt x="958" y="1352" on="1"/>
        <pt x="873" y="1352" on="0"/>
        <pt x="734" y="1270" on="0"/>
        <pt x="624" y="1133" on="0"/>
        <pt x="542" y="956" on="0"/>
        <pt x="489" y="765" on="0"/>
        <pt x="463" y="576" on="0"/>
      </contour>
      <contour>
        <pt x="1235" y="969" on="1"/>
        <pt x="1235" y="1012" on="0"/>
        <pt x="1227" y="1090" on="0"/>
        <pt x="1219" y="1122" on="1"/>
        <pt x="537" y="213" on="1"/>
        <pt x="574" y="160" on="0"/>
        <pt x="679" y="113" on="0"/>
        <pt x="741" y="113" on="1"/>
        <pt x="826" y="113" on="0"/>
        <pt x="965" y="195" on="0"/>
        <pt x="1075" y="332" on="0"/>
        <pt x="1156" y="509" on="0"/>
        <pt x="1209" y="699" on="0"/>
        <pt x="1235" y="888" on="0"/>
      </contour>
    </TTGlyph>
    <TTGlyph name="Otilde" xMin="129" yMin="-23" xMax="1567" yMax="1903">
      <component glyphName="O" x="0" y="0" flags="0x1204"/>
      <component glyphName="tilde" x="279" y="338" flags="0x1004"/>
    </TTGlyph>
    <TTGlyph name="P" xMin="-47" yMin="0" xMax="1368" yMax="1462">
      <contour>
        <pt x="610" y="678" on="1"/>
        <pt x="696" y="678" on="1"/>
        <pt x="789" y="678" on="0"/>
        <pt x="918" y="734" on="0"/>
        <pt x="998" y="835" on="0"/>
        <pt x="1034" y="974" on="0"/>
        <pt x="1034" y="1057" on="1"/>
        <pt x="1034" y="1134" on="0"/>
        <pt x="999" y="1242" on="0"/>
        <pt x="937" y="1310" on="0"/>
        <pt x="850" y="1341" on="0"/>
        <pt x="799" y="1341" on="1"/>
        <pt x="754" y="1341" on="1"/>
      </contour>
      <contour>
        <pt x="512" y="225" on="1"/>
        <pt x="509" y="214" on="0"/>
        <pt x="504" y="186" on="0"/>
        <pt x="504" y="178" on="1"/>
        <pt x="504" y="156" on="0"/>
        <pt x="526" y="129" on="0"/>
        <pt x="566" y="114" on="0"/>
        <pt x="621" y="109" on="0"/>
        <pt x="653" y="109" on="1"/>
        <pt x="721" y="109" on="1"/>
        <pt x="698" y="0" on="1"/>
        <pt x="-47" y="0" on="1"/>
        <pt x="-25" y="109" on="1"/>
        <pt x="2" y="109" on="1"/>
        <pt x="34" y="109" on="0"/>
        <pt x="95" y="117" on="0"/>
        <pt x="145" y="143" on="0"/>
        <pt x="182" y="191" on="0"/>
        <pt x="190" y="231" on="1"/>
        <pt x="399" y="1214" on="1"/>
        <pt x="412" y="1267" on="0"/>
        <pt x="412" y="1284" on="1"/>
        <pt x="412" y="1306" on="0"/>
        <pt x="390" y="1334" on="0"/>
        <pt x="351" y="1349" on="0"/>
        <pt x="296" y="1354" on="0"/>
        <pt x="264" y="1354" on="1"/>
        <pt x="238" y="1354" on="1"/>
        <pt x="260" y="1462" on="1"/>
        <pt x="846" y="1462" on="1"/>
        <pt x="966" y="1462" on="0"/>
        <pt x="1160" y="1411" on="0"/>
        <pt x="1295" y="1310" on="0"/>
        <pt x="1368" y="1161" on="0"/>
        <pt x="1368" y="1063" on="1"/>
        <pt x="1368" y="1011" on="0"/>
        <pt x="1348" y="895" on="0"/>
        <pt x="1297" y="783" on="0"/>
        <pt x="1207" y="682" on="0"/>
        <pt x="1068" y="605" on="0"/>
        <pt x="873" y="559" on="0"/>
        <pt x="741" y="559" on="1"/>
        <pt x="586" y="559" on="1"/>
      </contour>
    </TTGlyph>
    <TTGlyph name="Q" xMin="127" yMin="-492" xMax="1565" yMax="1485">
      <contour>
        <pt x="127" y="545" on="1"/>
        <pt x="127" y="643" on="0"/>
        <pt x="176" y="859" on="0"/>
        <pt x="274" y="1068" on="0"/>
        <pt x="420" y="1257" on="0"/>
        <pt x="613" y="1400" on="0"/>
        <pt x="855" y="1485" on="0"/>
        <pt x="999" y="1485" on="1"/>
        <pt x="1112" y="1485" on="0"/>
        <pt x="1317" y="1419" on="0"/>
        <pt x="1473" y="1281" on="0"/>
        <pt x="1565" y="1069" on="0"/>
        <pt x="1565" y="922" on="1"/>
        <pt x="1565" y="838" on="0"/>
        <pt x="1528" y="652" on="0"/>
        <pt x="1455" y="465" on="0"/>
        <pt x="1343" y="288" on="0"/>
        <pt x="1194" y="139" on="0"/>
        <pt x="1006" y="27" on="0"/>
        <pt x="893" y="0" on="1"/>
        <pt x="896" y="-113" on="0"/>
        <pt x="932" y="-258" on="0"/>
        <pt x="994" y="-341" on="0"/>
        <pt x="1077" y="-373" on="0"/>
        <pt x="1128" y="-373" on="1"/>
        <pt x="1161" y="-373" on="1"/>
        <pt x="1135" y="-492" on="1"/>
        <pt x="987" y="-492" on="1"/>
        <pt x="895" y="-492" on="0"/>
        <pt x="737" y="-437" on="0"/>
        <pt x="620" y="-320" on="0"/>
        <pt x="552" y="-136" on="0"/>
        <pt x="549" y="-6" on="1"/>
        <pt x="456" y="13" on="0"/>
        <pt x="301" y="102" on="0"/>
        <pt x="189" y="241" on="0"/>
        <pt x="127" y="428" on="0"/>
      </contour>
      <contour>
        <pt x="461" y="496" on="1"/>
        <pt x="461" y="395" on="0"/>
        <pt x="504" y="250" on="0"/>
        <pt x="579" y="157" on="0"/>
        <pt x="681" y="113" on="0"/>
        <pt x="739" y="113" on="1"/>
        <pt x="824" y="113" on="0"/>
        <pt x="963" y="195" on="0"/>
        <pt x="1073" y="332" on="0"/>
        <pt x="1154" y="509" on="0"/>
        <pt x="1207" y="699" on="0"/>
        <pt x="1233" y="888" on="0"/>
        <pt x="1233" y="969" on="1"/>
        <pt x="1233" y="1069" on="0"/>
        <pt x="1191" y="1213" on="0"/>
        <pt x="1118" y="1307" on="0"/>
        <pt x="1016" y="1352" on="0"/>
        <pt x="956" y="1352" on="1"/>
        <pt x="871" y="1352" on="0"/>
        <pt x="732" y="1270" on="0"/>
        <pt x="622" y="1133" on="0"/>
        <pt x="540" y="956" on="0"/>
        <pt x="487" y="765" on="0"/>
        <pt x="461" y="576" on="0"/>
      </contour>
      <contour>
        <pt x="700" y="-23" on="1"/>
      </contour>
    </TTGlyph>
    <TTGlyph name="R" xMin="-47" yMin="0" xMax="1405" yMax="1462">
      <contour>
        <pt x="621" y="754" on="1"/>
        <pt x="748" y="754" on="1"/>
        <pt x="813" y="754" on="0"/>
        <pt x="926" y="792" on="0"/>
        <pt x="1009" y="873" on="0"/>
        <pt x="1057" y="1002" on="0"/>
        <pt x="1057" y="1094" on="1"/>
        <pt x="1057" y="1163" on="0"/>
        <pt x="1033" y="1257" on="0"/>
        <pt x="983" y="1316" on="0"/>
        <pt x="907" y="1341" on="0"/>
        <pt x="856" y="1341" on="1"/>
        <pt x="752" y="1341" on="1"/>
      </contour>
      <contour>
        <pt x="918" y="1462" on="1"/>
        <pt x="1163" y="1462" on="0"/>
        <pt x="1405" y="1292" on="0"/>
        <pt x="1405" y="1120" on="1"/>
        <pt x="1405" y="1016" on="0"/>
        <pt x="1338" y="870" on="0"/>
        <pt x="1233" y="771" on="0"/>
        <pt x="1103" y="713" on="0"/>
        <pt x="1040" y="698" on="1"/>
        <pt x="1182" y="317" on="1"/>
        <pt x="1203" y="259" on="0"/>
        <pt x="1243" y="179" on="0"/>
        <pt x="1288" y="130" on="0"/>
        <pt x="1341" y="109" on="0"/>
        <pt x="1376" y="109" on="1"/>
        <pt x="1384" y="109" on="1"/>
        <pt x="1362" y="0" on="1"/>
        <pt x="1341" y="0" on="1"/>
        <pt x="1234" y="0" on="0"/>
        <pt x="1077" y="18" on="0"/>
        <pt x="965" y="69" on="0"/>
        <pt x="891" y="160" on="0"/>
        <pt x="868" y="233" on="1"/>
        <pt x="739" y="635" on="1"/>
        <pt x="598" y="635" on="1"/>
        <pt x="518" y="260" on="1"/>
        <pt x="510" y="223" on="0"/>
        <pt x="504" y="186" on="0"/>
        <pt x="504" y="178" on="1"/>
        <pt x="504" y="156" on="0"/>
        <pt x="526" y="129" on="0"/>
        <pt x="566" y="114" on="0"/>
        <pt x="621" y="109" on="0"/>
        <pt x="653" y="109" on="1"/>
        <pt x="721" y="109" on="1"/>
        <pt x="698" y="0" on="1"/>
        <pt x="-47" y="0" on="1"/>
        <pt x="-25" y="109" on="1"/>
        <pt x="2" y="109" on="1"/>
        <pt x="34" y="109" on="0"/>
        <pt x="95" y="117" on="0"/>
        <pt x="145" y="143" on="0"/>
        <pt x="182" y="191" on="0"/>
        <pt x="190" y="231" on="1"/>
        <pt x="399" y="1214" on="1"/>
        <pt x="412" y="1267" on="0"/>
        <pt x="412" y="1284" on="1"/>
        <pt x="412" y="1306" on="0"/>
        <pt x="390" y="1334" on="0"/>
        <pt x="351" y="1349" on="0"/>
        <pt x="296" y="1354" on="0"/>
        <pt x="264" y="1354" on="1"/>
        <pt x="238" y="1354" on="1"/>
        <pt x="260" y="1462" on="1"/>
      </contour>
    </TTGlyph>
    <TTGlyph name="S" xMin="29" yMin="-20" xMax="1219" yMax="1483">
      <contour>
        <pt x="535" y="-20" on="1"/>
        <pt x="408" y="-20" on="0"/>
        <pt x="218" y="26" on="0"/>
        <pt x="92" y="106" on="0"/>
        <pt x="29" y="215" on="0"/>
        <pt x="29" y="279" on="1"/>
        <pt x="29" y="327" on="0"/>
        <pt x="68" y="399" on="0"/>
        <pt x="139" y="447" on="0"/>
        <pt x="236" y="471" on="0"/>
        <pt x="295" y="471" on="1"/>
        <pt x="295" y="377" on="0"/>
        <pt x="335" y="239" on="0"/>
        <pt x="407" y="148" on="0"/>
        <pt x="507" y="104" on="0"/>
        <pt x="567" y="104" on="1"/>
        <pt x="625" y="104" on="0"/>
        <pt x="715" y="137" on="0"/>
        <pt x="778" y="194" on="0"/>
        <pt x="811" y="271" on="0"/>
        <pt x="811" y="315" on="1"/>
        <pt x="811" y="358" on="0"/>
        <pt x="790" y="430" on="0"/>
        <pt x="734" y="498" on="0"/>
        <pt x="636" y="568" on="0"/>
        <pt x="559" y="610" on="1"/>
        <pt x="479" y="654" on="0"/>
        <pt x="358" y="747" on="0"/>
        <pt x="277" y="855" on="0"/>
        <pt x="236" y="984" on="0"/>
        <pt x="236" y="1065" on="1"/>
        <pt x="236" y="1157" on="0"/>
        <pt x="310" y="1311" on="0"/>
        <pt x="448" y="1422" on="0"/>
        <pt x="644" y="1483" on="0"/>
        <pt x="766" y="1483" on="1"/>
        <pt x="880" y="1483" on="0"/>
        <pt x="1050" y="1447" on="0"/>
        <pt x="1163" y="1385" on="0"/>
        <pt x="1219" y="1301" on="0"/>
        <pt x="1219" y="1253" on="1"/>
        <pt x="1219" y="1170" on="0"/>
        <pt x="1093" y="1075" on="0"/>
        <pt x="950" y="1075" on="1"/>
        <pt x="950" y="1121" on="0"/>
        <pt x="932" y="1221" on="0"/>
        <pt x="886" y="1304" on="0"/>
        <pt x="808" y="1358" on="0"/>
        <pt x="748" y="1358" on="1"/>
        <pt x="707" y="1358" on="0"/>
        <pt x="626" y="1332" on="0"/>
        <pt x="562" y="1280" on="0"/>
        <pt x="522" y="1201" on="0"/>
        <pt x="522" y="1147" on="1"/>
        <pt x="522" y="1093" on="0"/>
        <pt x="556" y="1017" on="0"/>
        <pt x="624" y="952" on="0"/>
        <pt x="726" y="891" on="0"/>
        <pt x="795" y="854" on="1"/>
        <pt x="950" y="770" on="0"/>
        <pt x="1098" y="567" on="0"/>
        <pt x="1098" y="436" on="1"/>
        <pt x="1098" y="327" on="0"/>
        <pt x="1019" y="157" on="0"/>
        <pt x="872" y="41" on="0"/>
        <pt x="664" y="-20" on="0"/>
      </contour>
    </TTGlyph>
    <TTGlyph name="T" xMin="139" yMin="0" xMax="1507" yMax="1462">
      <contour>
        <pt x="213" y="0" on="1"/>
        <pt x="236" y="109" on="1"/>
        <pt x="262" y="109" on="1"/>
        <pt x="294" y="109" on="0"/>
        <pt x="355" y="117" on="0"/>
        <pt x="405" y="143" on="0"/>
        <pt x="442" y="191" on="0"/>
        <pt x="451" y="231" on="1"/>
        <pt x="682" y="1337" on="1"/>
        <pt x="518" y="1337" on="1"/>
        <pt x="470" y="1337" on="0"/>
        <pt x="403" y="1313" on="0"/>
        <pt x="354" y="1266" on="0"/>
        <pt x="320" y="1198" on="0"/>
        <pt x="305" y="1153" on="1"/>
        <pt x="276" y="1065" on="1"/>
        <pt x="139" y="1065" on="1"/>
        <pt x="233" y="1462" on="1"/>
        <pt x="1507" y="1462" on="1"/>
        <pt x="1436" y="1065" on="1"/>
        <pt x="1298" y="1065" on="1"/>
        <pt x="1299" y="1072" on="0"/>
        <pt x="1304" y="1121" on="0"/>
        <pt x="1310" y="1177" on="0"/>
        <pt x="1315" y="1224" on="0"/>
        <pt x="1315" y="1229" on="1"/>
        <pt x="1315" y="1283" on="0"/>
        <pt x="1250" y="1337" on="0"/>
        <pt x="1171" y="1337" on="1"/>
        <pt x="1008" y="1337" on="1"/>
        <pt x="772" y="225" on="1"/>
        <pt x="770" y="214" on="0"/>
        <pt x="764" y="186" on="0"/>
        <pt x="764" y="178" on="1"/>
        <pt x="764" y="156" on="0"/>
        <pt x="786" y="129" on="0"/>
        <pt x="826" y="114" on="0"/>
        <pt x="881" y="109" on="0"/>
        <pt x="913" y="109" on="1"/>
        <pt x="940" y="109" on="1"/>
        <pt x="918" y="0" on="1"/>
      </contour>
    </TTGlyph>
    <TTGlyph name="Thorn" xMin="-47" yMin="0" xMax="1307" yMax="1462">
      <contour>
        <pt x="-47" y="0" on="1"/>
        <pt x="-25" y="109" on="1"/>
        <pt x="2" y="109" on="1"/>
        <pt x="34" y="109" on="0"/>
        <pt x="95" y="117" on="0"/>
        <pt x="145" y="143" on="0"/>
        <pt x="182" y="191" on="0"/>
        <pt x="190" y="231" on="1"/>
        <pt x="403" y="1237" on="1"/>
        <pt x="407" y="1248" on="0"/>
        <pt x="412" y="1276" on="0"/>
        <pt x="412" y="1284" on="1"/>
        <pt x="412" y="1306" on="0"/>
        <pt x="390" y="1334" on="0"/>
        <pt x="351" y="1349" on="0"/>
        <pt x="296" y="1354" on="0"/>
        <pt x="264" y="1354" on="1"/>
        <pt x="238" y="1354" on="1"/>
        <pt x="260" y="1462" on="1"/>
        <pt x="967" y="1462" on="1"/>
        <pt x="944" y="1354" on="1"/>
        <pt x="918" y="1354" on="1"/>
        <pt x="884" y="1354" on="0"/>
        <pt x="821" y="1345" on="0"/>
        <pt x="769" y="1319" on="0"/>
        <pt x="731" y="1269" on="0"/>
        <pt x="723" y="1229" on="1"/>
        <pt x="717" y="1198" on="1"/>
        <pt x="784" y="1198" on="1"/>
        <pt x="905" y="1198" on="0"/>
        <pt x="1098" y="1147" on="0"/>
        <pt x="1234" y="1046" on="0"/>
        <pt x="1307" y="897" on="0"/>
        <pt x="1307" y="799" on="1"/>
        <pt x="1307" y="747" on="0"/>
        <pt x="1287" y="631" on="0"/>
        <pt x="1236" y="519" on="0"/>
        <pt x="1146" y="418" on="0"/>
        <pt x="1007" y="341" on="0"/>
        <pt x="811" y="295" on="0"/>
        <pt x="680" y="295" on="1"/>
        <pt x="526" y="295" on="1"/>
        <pt x="512" y="225" on="1"/>
        <pt x="510" y="214" on="0"/>
        <pt x="504" y="186" on="0"/>
        <pt x="504" y="178" on="1"/>
        <pt x="504" y="156" on="0"/>
        <pt x="526" y="129" on="0"/>
        <pt x="566" y="114" on="0"/>
        <pt x="621" y="109" on="0"/>
        <pt x="653" y="109" on="1"/>
        <pt x="680" y="109" on="1"/>
        <pt x="657" y="0" on="1"/>
      </contour>
      <contour>
        <pt x="551" y="414" on="1"/>
        <pt x="635" y="414" on="1"/>
        <pt x="728" y="414" on="0"/>
        <pt x="857" y="470" on="0"/>
        <pt x="937" y="570" on="0"/>
        <pt x="973" y="710" on="0"/>
        <pt x="973" y="793" on="1"/>
        <pt x="973" y="869" on="0"/>
        <pt x="938" y="977" on="0"/>
        <pt x="875" y="1046" on="0"/>
        <pt x="788" y="1077" on="0"/>
        <pt x="737" y="1077" on="1"/>
        <pt x="692" y="1077" on="1"/>
      </contour>
    </TTGlyph>
    <TTGlyph name="U" xMin="203" yMin="-20" xMax="1700" yMax="1462">
      <contour>
        <pt x="772" y="125" on="1"/>
        <pt x="865" y="125" on="0"/>
        <pt x="993" y="179" on="0"/>
        <pt x="1079" y="274" on="0"/>
        <pt x="1131" y="405" on="0"/>
        <pt x="1147" y="483" on="1"/>
        <pt x="1305" y="1223" on="1"/>
        <pt x="1308" y="1240" on="0"/>
        <pt x="1313" y="1276" on="0"/>
        <pt x="1313" y="1284" on="1"/>
        <pt x="1313" y="1306" on="0"/>
        <pt x="1291" y="1334" on="0"/>
        <pt x="1252" y="1349" on="0"/>
        <pt x="1197" y="1354" on="0"/>
        <pt x="1165" y="1354" on="1"/>
        <pt x="1139" y="1354" on="1"/>
        <pt x="1161" y="1462" on="1"/>
        <pt x="1700" y="1462" on="1"/>
        <pt x="1677" y="1354" on="1"/>
        <pt x="1651" y="1354" on="1"/>
        <pt x="1618" y="1354" on="0"/>
        <pt x="1556" y="1345" on="0"/>
        <pt x="1504" y="1319" on="0"/>
        <pt x="1467" y="1269" on="0"/>
        <pt x="1458" y="1229" on="1"/>
        <pt x="1294" y="451" on="1"/>
        <pt x="1270" y="336" on="0"/>
        <pt x="1175" y="160" on="0"/>
        <pt x="1028" y="41" on="0"/>
        <pt x="828" y="-20" on="0"/>
        <pt x="698" y="-20" on="1"/>
        <pt x="578" y="-20" on="0"/>
        <pt x="394" y="27" on="0"/>
        <pt x="268" y="118" on="0"/>
        <pt x="203" y="250" on="0"/>
        <pt x="203" y="334" on="1"/>
        <pt x="203" y="350" on="0"/>
        <pt x="207" y="398" on="0"/>
        <pt x="213" y="449" on="0"/>
        <pt x="221" y="498" on="0"/>
        <pt x="225" y="516" on="1"/>
        <pt x="375" y="1214" on="1"/>
        <pt x="387" y="1269" on="0"/>
        <pt x="387" y="1284" on="1"/>
        <pt x="387" y="1306" on="0"/>
        <pt x="365" y="1334" on="0"/>
        <pt x="326" y="1349" on="0"/>
        <pt x="272" y="1354" on="0"/>
        <pt x="240" y="1354" on="1"/>
        <pt x="213" y="1354" on="1"/>
        <pt x="236" y="1462" on="1"/>
        <pt x="944" y="1462" on="1"/>
        <pt x="922" y="1354" on="1"/>
        <pt x="895" y="1354" on="1"/>
        <pt x="861" y="1354" on="0"/>
        <pt x="798" y="1345" on="0"/>
        <pt x="746" y="1320" on="0"/>
        <pt x="709" y="1272" on="0"/>
        <pt x="700" y="1233" on="1"/>
        <pt x="545" y="512" on="1"/>
        <pt x="541" y="494" on="0"/>
        <pt x="532" y="450" on="0"/>
        <pt x="525" y="403" on="0"/>
        <pt x="520" y="355" on="0"/>
        <pt x="520" y="334" on="1"/>
        <pt x="520" y="231" on="0"/>
        <pt x="648" y="125" on="0"/>
      </contour>
    </TTGlyph>
    <TTGlyph name="Uacute" xMin="203" yMin="-20" xMax="1700" yMax="1907">
      <component glyphName="U" x="0" y="0" flags="0x1204"/>
      <component glyphName="acute" x="410" y="338" flags="0x1004"/>
    </TTGlyph>
    <TTGlyph name="Ucircumflex" xMin="203" yMin="-20" xMax="1700" yMax="1907">
      <component glyphName="U" x="0" y="0" flags="0x1204"/>
      <component glyphName="circumflex" x="367" y="338" flags="0x1004"/>
    </TTGlyph>
    <TTGlyph name="Udieresis" xMin="203" yMin="-20" xMax="1700" yMax="1868">
      <component glyphName="U" x="0" y="0" flags="0x1204"/>
      <component glyphName="dieresis" x="340" y="338" flags="0x1004"/>
    </TTGlyph>
    <TTGlyph name="Ugrave" xMin="203" yMin="-20" xMax="1700" yMax="1907">
      <component glyphName="U" x="0" y="0" flags="0x1204"/>
      <component glyphName="grave" x="184" y="338" flags="0x1004"/>
    </TTGlyph>
    <TTGlyph name="V" xMin="174" yMin="0" xMax="1634" yMax="1462">
      <contour>
        <pt x="659" y="1272" on="1"/>
        <pt x="659" y="1255" on="0"/>
        <pt x="662" y="1216" on="0"/>
        <pt x="664" y="1202" on="1"/>
        <pt x="729" y="662" on="1"/>
        <pt x="733" y="626" on="0"/>
        <pt x="740" y="531" on="0"/>
        <pt x="743" y="434" on="0"/>
        <pt x="745" y="347" on="0"/>
        <pt x="745" y="319" on="1"/>
        <pt x="757" y="347" on="0"/>
        <pt x="784" y="409" on="0"/>
        <pt x="809" y="467" on="0"/>
        <pt x="831" y="517" on="0"/>
        <pt x="840" y="532" on="1"/>
        <pt x="1208" y="1194" on="1"/>
        <pt x="1228" y="1229" on="0"/>
        <pt x="1245" y="1281" on="0"/>
        <pt x="1245" y="1303" on="1"/>
        <pt x="1245" y="1333" on="0"/>
        <pt x="1185" y="1354" on="0"/>
        <pt x="1126" y="1354" on="1"/>
        <pt x="1079" y="1354" on="1"/>
        <pt x="1100" y="1462" on="1"/>
        <pt x="1634" y="1462" on="1"/>
        <pt x="1612" y="1354" on="1"/>
        <pt x="1563" y="1354" on="1"/>
        <pt x="1533" y="1354" on="0"/>
        <pt x="1490" y="1344" on="0"/>
        <pt x="1452" y="1315" on="0"/>
        <pt x="1414" y="1261" on="0"/>
        <pt x="1389" y="1217" on="1"/>
        <pt x="707" y="0" on="1"/>
        <pt x="502" y="0" on="1"/>
        <pt x="330" y="1255" on="1"/>
        <pt x="325" y="1286" on="0"/>
        <pt x="302" y="1325" on="0"/>
        <pt x="269" y="1347" on="0"/>
        <pt x="226" y="1354" on="0"/>
        <pt x="201" y="1354" on="1"/>
        <pt x="174" y="1354" on="1"/>
        <pt x="197" y="1462" on="1"/>
        <pt x="872" y="1462" on="1"/>
        <pt x="850" y="1354" on="1"/>
        <pt x="803" y="1354" on="1"/>
        <pt x="737" y="1354" on="0"/>
        <pt x="659" y="1321" on="0"/>
      </contour>
    </TTGlyph>
    <TTGlyph name="W" xMin="176" yMin="0" xMax="2390" yMax="1462">
      <contour>
        <pt x="2367" y="1354" on="1"/>
        <pt x="2318" y="1354" on="1"/>
        <pt x="2288" y="1354" on="0"/>
        <pt x="2242" y="1342" on="0"/>
        <pt x="2203" y="1309" on="0"/>
        <pt x="2164" y="1250" on="0"/>
        <pt x="2142" y="1204" on="1"/>
        <pt x="1569" y="0" on="1"/>
        <pt x="1335" y="0" on="1"/>
        <pt x="1194" y="977" on="1"/>
        <pt x="696" y="0" on="1"/>
        <pt x="442" y="0" on="1"/>
        <pt x="332" y="1255" on="1"/>
        <pt x="329" y="1286" on="0"/>
        <pt x="307" y="1325" on="0"/>
        <pt x="272" y="1347" on="0"/>
        <pt x="228" y="1354" on="0"/>
        <pt x="203" y="1354" on="1"/>
        <pt x="176" y="1354" on="1"/>
        <pt x="199" y="1462" on="1"/>
        <pt x="868" y="1462" on="1"/>
        <pt x="846" y="1354" on="1"/>
        <pt x="799" y="1354" on="1"/>
        <pt x="733" y="1354" on="0"/>
        <pt x="655" y="1321" on="0"/>
        <pt x="655" y="1272" on="1"/>
        <pt x="655" y="1255" on="0"/>
        <pt x="657" y="1211" on="0"/>
        <pt x="659" y="1182" on="1"/>
        <pt x="698" y="672" on="1"/>
        <pt x="701" y="645" on="0"/>
        <pt x="707" y="556" on="0"/>
        <pt x="712" y="458" on="0"/>
        <pt x="715" y="363" on="0"/>
        <pt x="715" y="330" on="1"/>
        <pt x="736" y="390" on="0"/>
        <pt x="792" y="511" on="0"/>
        <pt x="823" y="571" on="1"/>
        <pt x="1280" y="1448" on="1"/>
        <pt x="1430" y="1448" on="1"/>
        <pt x="1546" y="666" on="1"/>
        <pt x="1560" y="569" on="0"/>
        <pt x="1581" y="392" on="0"/>
        <pt x="1581" y="326" on="1"/>
        <pt x="1593" y="360" on="0"/>
        <pt x="1627" y="450" on="0"/>
        <pt x="1668" y="551" on="0"/>
        <pt x="1714" y="655" on="0"/>
        <pt x="1737" y="705" on="1"/>
        <pt x="1964" y="1194" on="1"/>
        <pt x="1978" y="1223" on="0"/>
        <pt x="1995" y="1281" on="0"/>
        <pt x="1995" y="1303" on="1"/>
        <pt x="1995" y="1333" on="0"/>
        <pt x="1941" y="1354" on="0"/>
        <pt x="1882" y="1354" on="1"/>
        <pt x="1835" y="1354" on="1"/>
        <pt x="1855" y="1462" on="1"/>
        <pt x="2390" y="1462" on="1"/>
      </contour>
    </TTGlyph>
    <TTGlyph name="X" xMin="-86" yMin="0" xMax="1632" yMax="1462">
      <contour>
        <pt x="1610" y="1354" on="1"/>
        <pt x="1591" y="1354" on="1"/>
        <pt x="1561" y="1354" on="0"/>
        <pt x="1511" y="1340" on="0"/>
        <pt x="1458" y="1306" on="0"/>
        <pt x="1399" y="1250" on="0"/>
        <pt x="1360" y="1208" on="1"/>
        <pt x="975" y="803" on="1"/>
        <pt x="1227" y="217" on="1"/>
        <pt x="1255" y="154" on="0"/>
        <pt x="1330" y="109" on="0"/>
        <pt x="1368" y="109" on="1"/>
        <pt x="1395" y="109" on="1"/>
        <pt x="1372" y="0" on="1"/>
        <pt x="696" y="0" on="1"/>
        <pt x="719" y="109" on="1"/>
        <pt x="750" y="109" on="1"/>
        <pt x="811" y="109" on="0"/>
        <pt x="866" y="146" on="0"/>
        <pt x="866" y="180" on="1"/>
        <pt x="866" y="209" on="0"/>
        <pt x="846" y="280" on="0"/>
        <pt x="827" y="322" on="1"/>
        <pt x="702" y="604" on="1"/>
        <pt x="416" y="307" on="1"/>
        <pt x="379" y="269" on="0"/>
        <pt x="334" y="199" on="0"/>
        <pt x="334" y="170" on="1"/>
        <pt x="334" y="155" on="0"/>
        <pt x="344" y="133" on="0"/>
        <pt x="369" y="117" on="0"/>
        <pt x="412" y="109" on="0"/>
        <pt x="446" y="109" on="1"/>
        <pt x="453" y="109" on="1"/>
        <pt x="430" y="0" on="1"/>
        <pt x="-86" y="0" on="1"/>
        <pt x="-63" y="109" on="1"/>
        <pt x="-43" y="109" on="1"/>
        <pt x="-12" y="109" on="0"/>
        <pt x="41" y="124" on="0"/>
        <pt x="96" y="158" on="0"/>
        <pt x="159" y="214" on="0"/>
        <pt x="199" y="256" on="1"/>
        <pt x="651" y="723" on="1"/>
        <pt x="422" y="1249" on="1"/>
        <pt x="407" y="1283" on="0"/>
        <pt x="376" y="1325" on="0"/>
        <pt x="338" y="1347" on="0"/>
        <pt x="291" y="1354" on="0"/>
        <pt x="262" y="1354" on="1"/>
        <pt x="244" y="1354" on="1"/>
        <pt x="266" y="1462" on="1"/>
        <pt x="944" y="1462" on="1"/>
        <pt x="922" y="1354" on="1"/>
        <pt x="874" y="1354" on="1"/>
        <pt x="823" y="1354" on="0"/>
        <pt x="778" y="1324" on="0"/>
        <pt x="778" y="1296" on="1"/>
        <pt x="778" y="1276" on="0"/>
        <pt x="797" y="1217" on="0"/>
        <pt x="815" y="1174" on="1"/>
        <pt x="924" y="920" on="1"/>
        <pt x="1165" y="1178" on="1"/>
        <pt x="1193" y="1207" on="0"/>
        <pt x="1237" y="1275" on="0"/>
        <pt x="1237" y="1303" on="1"/>
        <pt x="1237" y="1329" on="0"/>
        <pt x="1187" y="1354" on="0"/>
        <pt x="1139" y="1354" on="1"/>
        <pt x="1133" y="1354" on="1"/>
        <pt x="1155" y="1462" on="1"/>
        <pt x="1632" y="1462" on="1"/>
      </contour>
    </TTGlyph>
    <TTGlyph name="Y" xMin="180" yMin="0" xMax="1620" yMax="1462">
      <contour>
        <pt x="227" y="0" on="1"/>
        <pt x="250" y="109" on="1"/>
        <pt x="305" y="109" on="1"/>
        <pt x="337" y="109" on="0"/>
        <pt x="397" y="118" on="0"/>
        <pt x="447" y="145" on="0"/>
        <pt x="483" y="193" on="0"/>
        <pt x="492" y="233" on="1"/>
        <pt x="551" y="518" on="1"/>
        <pt x="330" y="1245" on="1"/>
        <pt x="321" y="1275" on="0"/>
        <pt x="302" y="1317" on="0"/>
        <pt x="276" y="1342" on="0"/>
        <pt x="237" y="1354" on="0"/>
        <pt x="207" y="1354" on="1"/>
        <pt x="180" y="1354" on="1"/>
        <pt x="203" y="1462" on="1"/>
        <pt x="868" y="1462" on="1"/>
        <pt x="846" y="1354" on="1"/>
        <pt x="754" y="1354" on="1"/>
        <pt x="707" y="1354" on="0"/>
        <pt x="668" y="1322" on="0"/>
        <pt x="668" y="1294" on="1"/>
        <pt x="668" y="1276" on="0"/>
        <pt x="680" y="1208" on="0"/>
        <pt x="692" y="1161" on="1"/>
        <pt x="766" y="872" on="1"/>
        <pt x="773" y="842" on="0"/>
        <pt x="789" y="774" on="0"/>
        <pt x="802" y="706" on="0"/>
        <pt x="811" y="641" on="0"/>
        <pt x="813" y="616" on="1"/>
        <pt x="832" y="657" on="0"/>
        <pt x="910" y="783" on="0"/>
        <pt x="963" y="858" on="1"/>
        <pt x="1165" y="1147" on="1"/>
        <pt x="1190" y="1182" on="0"/>
        <pt x="1227" y="1264" on="0"/>
        <pt x="1227" y="1298" on="1"/>
        <pt x="1227" y="1326" on="0"/>
        <pt x="1170" y="1354" on="0"/>
        <pt x="1102" y="1354" on="1"/>
        <pt x="1059" y="1354" on="1"/>
        <pt x="1083" y="1462" on="1"/>
        <pt x="1620" y="1462" on="1"/>
        <pt x="1597" y="1354" on="1"/>
        <pt x="1559" y="1354" on="1"/>
        <pt x="1536" y="1354" on="0"/>
        <pt x="1497" y="1342" on="0"/>
        <pt x="1457" y="1311" on="0"/>
        <pt x="1412" y="1260" on="0"/>
        <pt x="1384" y="1221" on="1"/>
        <pt x="877" y="516" on="1"/>
        <pt x="815" y="225" on="1"/>
        <pt x="813" y="214" on="0"/>
        <pt x="807" y="186" on="0"/>
        <pt x="807" y="178" on="1"/>
        <pt x="807" y="156" on="0"/>
        <pt x="829" y="129" on="0"/>
        <pt x="869" y="114" on="0"/>
        <pt x="924" y="109" on="0"/>
        <pt x="956" y="109" on="1"/>
        <pt x="1006" y="109" on="1"/>
        <pt x="983" y="0" on="1"/>
      </contour>
    </TTGlyph>
    <TTGlyph name="Yacute" xMin="180" yMin="0" xMax="1620" yMax="1907">
      <component glyphName="Y" x="0" y="0" flags="0x1204"/>
      <component glyphName="acute" x="328" y="338" flags="0x1004"/>
    </TTGlyph>
    <TTGlyph name="Z" xMin="-4" yMin="0" xMax="1444" yMax="1462">
      <contour>
        <pt x="1423" y="1358" on="1"/>
        <pt x="412" y="125" on="1"/>
        <pt x="834" y="125" on="1"/>
        <pt x="880" y="125" on="0"/>
        <pt x="962" y="149" on="0"/>
        <pt x="1030" y="201" on="0"/>
        <pt x="1084" y="286" on="0"/>
        <pt x="1102" y="348" on="1"/>
        <pt x="1124" y="422" on="1"/>
        <pt x="1272" y="422" on="1"/>
        <pt x="1174" y="0" on="1"/>
        <pt x="-4" y="0" on="1"/>
        <pt x="14" y="102" on="1"/>
        <pt x="1024" y="1337" on="1"/>
        <pt x="668" y="1337" on="1"/>
        <pt x="575" y="1337" on="0"/>
        <pt x="462" y="1253" on="0"/>
        <pt x="436" y="1159" on="1"/>
        <pt x="401" y="1040" on="1"/>
        <pt x="254" y="1040" on="1"/>
        <pt x="354" y="1462" on="1"/>
        <pt x="1444" y="1462" on="1"/>
      </contour>
    </TTGlyph>
    <TTGlyph name="a" xMin="82" yMin="-20" xMax="1292" yMax="1118">
      <contour>
        <pt x="969" y="-20" on="1"/>
        <pt x="878" y="-20" on="0"/>
        <pt x="768" y="63" on="0"/>
        <pt x="768" y="143" on="1"/>
        <pt x="768" y="175" on="0"/>
        <pt x="774" y="236" on="0"/>
        <pt x="782" y="276" on="1"/>
        <pt x="768" y="276" on="1"/>
        <pt x="730" y="205" on="0"/>
        <pt x="655" y="94" on="0"/>
        <pt x="563" y="19" on="0"/>
        <pt x="450" y="-20" on="0"/>
        <pt x="375" y="-20" on="1"/>
        <pt x="302" y="-20" on="0"/>
        <pt x="192" y="37" on="0"/>
        <pt x="119" y="137" on="0"/>
        <pt x="82" y="274" on="0"/>
        <pt x="82" y="354" on="1"/>
        <pt x="82" y="434" on="0"/>
        <pt x="119" y="609" on="0"/>
        <pt x="193" y="779" on="0"/>
        <pt x="302" y="933" on="0"/>
        <pt x="445" y="1049" on="0"/>
        <pt x="621" y="1118" on="0"/>
        <pt x="725" y="1118" on="1"/>
        <pt x="765" y="1118" on="0"/>
        <pt x="848" y="1105" on="0"/>
        <pt x="924" y="1085" on="0"/>
        <pt x="991" y="1060" on="0"/>
        <pt x="1014" y="1047" on="1"/>
        <pt x="1122" y="1096" on="1"/>
        <pt x="1231" y="1096" on="1"/>
        <pt x="1096" y="457" on="1"/>
        <pt x="1092" y="440" on="0"/>
        <pt x="1080" y="384" on="0"/>
        <pt x="1069" y="321" on="0"/>
        <pt x="1061" y="262" on="0"/>
        <pt x="1061" y="242" on="1"/>
        <pt x="1061" y="191" on="0"/>
        <pt x="1101" y="141" on="0"/>
        <pt x="1133" y="141" on="1"/>
        <pt x="1162" y="141" on="0"/>
        <pt x="1215" y="166" on="0"/>
        <pt x="1247" y="184" on="1"/>
        <pt x="1292" y="102" on="1"/>
        <pt x="1266" y="82" on="0"/>
        <pt x="1200" y="39" on="0"/>
        <pt x="1119" y="3" on="0"/>
        <pt x="1024" y="-20" on="0"/>
      </contour>
      <contour>
        <pt x="393" y="352" on="1"/>
        <pt x="393" y="293" on="0"/>
        <pt x="410" y="213" on="0"/>
        <pt x="439" y="164" on="0"/>
        <pt x="480" y="143" on="0"/>
        <pt x="504" y="143" on="1"/>
        <pt x="549" y="143" on="0"/>
        <pt x="645" y="221" on="0"/>
        <pt x="729" y="348" on="0"/>
        <pt x="796" y="508" on="0"/>
        <pt x="813" y="590" on="1"/>
        <pt x="885" y="930" on="1"/>
        <pt x="865" y="959" on="0"/>
        <pt x="794" y="987" on="0"/>
        <pt x="754" y="987" on="1"/>
        <pt x="694" y="987" on="0"/>
        <pt x="595" y="925" on="0"/>
        <pt x="515" y="821" on="0"/>
        <pt x="454" y="689" on="0"/>
        <pt x="413" y="547" on="0"/>
        <pt x="393" y="409" on="0"/>
      </contour>
    </TTGlyph>
    <TTGlyph name="aacute" xMin="82" yMin="-20" xMax="1292" yMax="1569">
      <component glyphName="a" x="0" y="0" flags="0x1204"/>
      <component glyphName="acute" x="133" y="0" flags="0x1004"/>
    </TTGlyph>
    <TTGlyph name="acircumflex" xMin="82" yMin="-20" xMax="1292" yMax="1569">
      <component glyphName="a" x="0" y="0" flags="0x1204"/>
      <component glyphName="circumflex" x="59" y="0" flags="0x1004"/>
    </TTGlyph>
    <TTGlyph name="acute" xMin="498" yMin="1241" xMax="1069" yMax="1569">
      <contour>
        <pt x="504" y="1268" on="1"/>
        <pt x="532" y="1297" on="0"/>
        <pt x="598" y="1373" on="0"/>
        <pt x="663" y="1454" on="0"/>
        <pt x="724" y="1534" on="0"/>
        <pt x="748" y="1569" on="1"/>
        <pt x="1069" y="1569" on="1"/>
        <pt x="1063" y="1548" on="1"/>
        <pt x="1047" y="1530" on="0"/>
        <pt x="991" y="1481" on="0"/>
        <pt x="920" y="1425" on="0"/>
        <pt x="839" y="1366" on="0"/>
        <pt x="755" y="1310" on="0"/>
        <pt x="673" y="1259" on="0"/>
        <pt x="637" y="1241" on="1"/>
        <pt x="498" y="1241" on="1"/>
      </contour>
    </TTGlyph>
    <TTGlyph name="adieresis" xMin="82" yMin="-20" xMax="1292" yMax="1530">
      <component glyphName="a" x="0" y="0" flags="0x1204"/>
      <component glyphName="dieresis" x="43" y="0" flags="0x1004"/>
    </TTGlyph>
    <TTGlyph name="ae" xMin="82" yMin="-20" xMax="1792" yMax="1122">
      <contour>
        <pt x="1325" y="135" on="1"/>
        <pt x="1375" y="135" on="0"/>
        <pt x="1465" y="164" on="0"/>
        <pt x="1541" y="211" on="0"/>
        <pt x="1603" y="270" on="0"/>
        <pt x="1624" y="301" on="1"/>
        <pt x="1636" y="286" on="0"/>
        <pt x="1651" y="239" on="0"/>
        <pt x="1651" y="213" on="1"/>
        <pt x="1651" y="176" on="0"/>
        <pt x="1603" y="94" on="0"/>
        <pt x="1504" y="25" on="0"/>
        <pt x="1350" y="-20" on="0"/>
        <pt x="1245" y="-20" on="1"/>
        <pt x="1058" y="-20" on="0"/>
        <pt x="833" y="130" on="0"/>
        <pt x="795" y="276" on="1"/>
        <pt x="776" y="276" on="1"/>
        <pt x="738" y="205" on="0"/>
        <pt x="660" y="94" on="0"/>
        <pt x="566" y="19" on="0"/>
        <pt x="450" y="-20" on="0"/>
        <pt x="375" y="-20" on="1"/>
        <pt x="302" y="-20" on="0"/>
        <pt x="192" y="37" on="0"/>
        <pt x="119" y="137" on="0"/>
        <pt x="82" y="274" on="0"/>
        <pt x="82" y="354" on="1"/>
        <pt x="82" y="434" on="0"/>
        <pt x="119" y="609" on="0"/>
        <pt x="193" y="779" on="0"/>
        <pt x="302" y="933" on="0"/>
        <pt x="445" y="1049" on="0"/>
        <pt x="621" y="1118" on="0"/>
        <pt x="725" y="1118" on="1"/>
        <pt x="828" y="1118" on="0"/>
        <pt x="994" y="1055" on="0"/>
        <pt x="1065" y="993" on="1"/>
        <pt x="1145" y="1055" on="0"/>
        <pt x="1348" y="1122" on="0"/>
        <pt x="1473" y="1122" on="1"/>
        <pt x="1627" y="1122" on="0"/>
        <pt x="1792" y="995" on="0"/>
        <pt x="1792" y="881" on="1"/>
        <pt x="1792" y="798" on="0"/>
        <pt x="1700" y="645" on="0"/>
        <pt x="1538" y="528" on="0"/>
        <pt x="1314" y="459" on="0"/>
        <pt x="1182" y="459" on="1"/>
        <pt x="1165" y="459" on="0"/>
        <pt x="1124" y="459" on="0"/>
        <pt x="1106" y="461" on="1"/>
        <pt x="1103" y="441" on="0"/>
        <pt x="1102" y="400" on="0"/>
        <pt x="1102" y="383" on="1"/>
        <pt x="1102" y="264" on="0"/>
        <pt x="1213" y="135" on="0"/>
      </contour>
      <contour>
        <pt x="393" y="352" on="1"/>
        <pt x="393" y="293" on="0"/>
        <pt x="410" y="213" on="0"/>
        <pt x="439" y="164" on="0"/>
        <pt x="480" y="143" on="0"/>
        <pt x="504" y="143" on="1"/>
        <pt x="541" y="143" on="0"/>
        <pt x="621" y="199" on="0"/>
        <pt x="696" y="292" on="0"/>
        <pt x="762" y="415" on="0"/>
        <pt x="786" y="483" on="1"/>
        <pt x="796" y="536" on="0"/>
        <pt x="824" y="645" on="0"/>
        <pt x="863" y="749" on="0"/>
        <pt x="912" y="847" on="0"/>
        <pt x="944" y="889" on="1"/>
        <pt x="934" y="904" on="0"/>
        <pt x="895" y="938" on="0"/>
        <pt x="844" y="967" on="0"/>
        <pt x="785" y="987" on="0"/>
        <pt x="754" y="987" on="1"/>
        <pt x="694" y="987" on="0"/>
        <pt x="595" y="925" on="0"/>
        <pt x="515" y="821" on="0"/>
        <pt x="454" y="689" on="0"/>
        <pt x="413" y="547" on="0"/>
        <pt x="393" y="409" on="0"/>
      </contour>
      <contour>
        <pt x="1397" y="999" on="1"/>
        <pt x="1364" y="999" on="0"/>
        <pt x="1301" y="964" on="0"/>
        <pt x="1245" y="903" on="0"/>
        <pt x="1197" y="821" on="0"/>
        <pt x="1157" y="727" on="0"/>
        <pt x="1128" y="627" on="0"/>
        <pt x="1120" y="578" on="1"/>
        <pt x="1139" y="578" on="1"/>
        <pt x="1215" y="578" on="0"/>
        <pt x="1346" y="620" on="0"/>
        <pt x="1442" y="695" on="0"/>
        <pt x="1497" y="801" on="0"/>
        <pt x="1497" y="866" on="1"/>
        <pt x="1497" y="929" on="0"/>
        <pt x="1445" y="999" on="0"/>
      </contour>
    </TTGlyph>
    <TTGlyph name="agrave" xMin="82" yMin="-20" xMax="1292" yMax="1569">
      <component glyphName="a" x="0" y="0" flags="0x1204"/>
      <component glyphName="grave" x="-73" y="0" flags="0x1004"/>
    </TTGlyph>
    <TTGlyph name="ampersand" xMin="70" yMin="-20" xMax="1622" yMax="1483">
      <contour>
        <pt x="1110" y="0" on="1"/>
        <pt x="1008" y="141" on="1"/>
        <pt x="923" y="69" on="0"/>
        <pt x="698" y="-20" on="0"/>
        <pt x="549" y="-20" on="1"/>
        <pt x="425" y="-20" on="0"/>
        <pt x="245" y="38" on="0"/>
        <pt x="127" y="142" on="0"/>
        <pt x="70" y="282" on="0"/>
        <pt x="70" y="365" on="1"/>
        <pt x="70" y="467" on="0"/>
        <pt x="142" y="612" on="0"/>
        <pt x="264" y="718" on="0"/>
        <pt x="426" y="794" on="0"/>
        <pt x="516" y="827" on="1"/>
        <pt x="470" y="906" on="0"/>
        <pt x="420" y="1058" on="0"/>
        <pt x="420" y="1130" on="1"/>
        <pt x="420" y="1218" on="0"/>
        <pt x="482" y="1350" on="0"/>
        <pt x="599" y="1438" on="0"/>
        <pt x="770" y="1483" on="0"/>
        <pt x="879" y="1483" on="1"/>
        <pt x="973" y="1483" on="0"/>
        <pt x="1110" y="1442" on="0"/>
        <pt x="1200" y="1370" on="0"/>
        <pt x="1243" y="1273" on="0"/>
        <pt x="1243" y="1217" on="1"/>
        <pt x="1243" y="1146" on="0"/>
        <pt x="1201" y="1039" on="0"/>
        <pt x="1106" y="949" on="0"/>
        <pt x="954" y="868" on="0"/>
        <pt x="844" y="823" on="1"/>
        <pt x="1096" y="492" on="1"/>
        <pt x="1131" y="566" on="0"/>
        <pt x="1181" y="720" on="0"/>
        <pt x="1196" y="795" on="1"/>
        <pt x="1212" y="872" on="1"/>
        <pt x="1622" y="872" on="1"/>
        <pt x="1599" y="764" on="1"/>
        <pt x="1581" y="764" on="1"/>
        <pt x="1546" y="764" on="0"/>
        <pt x="1480" y="756" on="0"/>
        <pt x="1417" y="727" on="0"/>
        <pt x="1361" y="673" on="0"/>
        <pt x="1337" y="627" on="1"/>
        <pt x="1306" y="567" on="0"/>
        <pt x="1237" y="432" on="0"/>
        <pt x="1192" y="362" on="1"/>
        <pt x="1321" y="193" on="1"/>
        <pt x="1352" y="151" on="0"/>
        <pt x="1445" y="109" on="0"/>
        <pt x="1511" y="109" on="1"/>
        <pt x="1526" y="109" on="1"/>
        <pt x="1503" y="0" on="1"/>
      </contour>
      <contour>
        <pt x="371" y="381" on="1"/>
        <pt x="371" y="324" on="0"/>
        <pt x="403" y="227" on="0"/>
        <pt x="465" y="157" on="0"/>
        <pt x="555" y="117" on="0"/>
        <pt x="612" y="117" on="1"/>
        <pt x="708" y="117" on="0"/>
        <pt x="865" y="190" on="0"/>
        <pt x="928" y="252" on="1"/>
        <pt x="594" y="715" on="1"/>
        <pt x="533" y="681" on="0"/>
        <pt x="448" y="609" on="0"/>
        <pt x="395" y="528" on="0"/>
        <pt x="371" y="435" on="0"/>
      </contour>
      <contour>
        <pt x="1010" y="1188" on="1"/>
        <pt x="1010" y="1269" on="0"/>
        <pt x="937" y="1360" on="0"/>
        <pt x="864" y="1360" on="1"/>
        <pt x="828" y="1360" on="0"/>
        <pt x="766" y="1332" on="0"/>
        <pt x="721" y="1278" on="0"/>
        <pt x="696" y="1198" on="0"/>
        <pt x="696" y="1147" on="1"/>
        <pt x="696" y="1088" on="0"/>
        <pt x="736" y="982" on="0"/>
        <pt x="776" y="922" on="1"/>
        <pt x="839" y="949" on="0"/>
        <pt x="928" y="1003" on="0"/>
        <pt x="984" y="1065" on="0"/>
        <pt x="1010" y="1140" on="0"/>
      </contour>
    </TTGlyph>
    <TTGlyph name="anoteleia" xMin="174" yMin="562" xMax="518" yMax="893">
      <contour>
        <pt x="518" y="746" on="1"/>
        <pt x="518" y="695" on="0"/>
        <pt x="487" y="624" on="0"/>
        <pt x="436" y="581" on="0"/>
        <pt x="372" y="562" on="0"/>
        <pt x="340" y="562" on="1"/>
        <pt x="266" y="562" on="0"/>
        <pt x="174" y="634" on="0"/>
        <pt x="174" y="709" on="1"/>
        <pt x="174" y="751" on="0"/>
        <pt x="199" y="819" on="0"/>
        <pt x="246" y="867" on="0"/>
        <pt x="311" y="893" on="0"/>
        <pt x="352" y="893" on="1"/>
        <pt x="387" y="893" on="0"/>
        <pt x="448" y="875" on="0"/>
        <pt x="493" y="839" on="0"/>
        <pt x="518" y="783" on="0"/>
      </contour>
    </TTGlyph>
    <TTGlyph name="aring" xMin="82" yMin="-20" xMax="1292" yMax="1655">
      <component glyphName="a" x="0" y="0" flags="0x1204"/>
      <component glyphName="ring" x="299" y="0" flags="0x1004"/>
    </TTGlyph>
    <TTGlyph name="asciicircum" xMin="137" yMin="537" xMax="1092" yMax="1462">
      <contour>
        <pt x="569" y="1462" on="1"/>
        <pt x="657" y="1462" on="1"/>
        <pt x="1092" y="537" on="1"/>
        <pt x="932" y="537" on="1"/>
        <pt x="612" y="1239" on="1"/>
        <pt x="297" y="537" on="1"/>
        <pt x="137" y="537" on="1"/>
      </contour>
    </TTGlyph>
    <TTGlyph name="asciitilde" xMin="100" yMin="598" xMax="1024" yMax="866">
      <contour>
        <pt x="528" y="664" on="1"/>
        <pt x="491" y="680" on="0"/>
        <pt x="436" y="701" on="0"/>
        <pt x="391" y="714" on="0"/>
        <pt x="350" y="719" on="0"/>
        <pt x="328" y="719" on="1"/>
        <pt x="299" y="719" on="0"/>
        <pt x="240" y="700" on="0"/>
        <pt x="181" y="668" on="0"/>
        <pt x="125" y="623" on="0"/>
        <pt x="100" y="598" on="1"/>
        <pt x="100" y="756" on="1"/>
        <pt x="200" y="864" on="0"/>
        <pt x="348" y="864" on="1"/>
        <pt x="377" y="864" on="0"/>
        <pt x="427" y="859" on="0"/>
        <pt x="482" y="846" on="0"/>
        <pt x="549" y="821" on="0"/>
        <pt x="596" y="801" on="1"/>
        <pt x="633" y="785" on="0"/>
        <pt x="688" y="763" on="0"/>
        <pt x="735" y="750" on="0"/>
        <pt x="775" y="745" on="0"/>
        <pt x="797" y="745" on="1"/>
        <pt x="825" y="745" on="0"/>
        <pt x="885" y="764" on="0"/>
        <pt x="943" y="797" on="0"/>
        <pt x="999" y="841" on="0"/>
        <pt x="1024" y="866" on="1"/>
        <pt x="1024" y="709" on="1"/>
        <pt x="974" y="655" on="0"/>
        <pt x="852" y="600" on="0"/>
        <pt x="776" y="600" on="1"/>
        <pt x="747" y="600" on="0"/>
        <pt x="697" y="605" on="0"/>
        <pt x="642" y="619" on="0"/>
        <pt x="575" y="644" on="0"/>
      </contour>
    </TTGlyph>
    <TTGlyph name="asterisk" xMin="260" yMin="733" xMax="1159" yMax="1567">
      <contour>
        <pt x="295" y="1323" on="1"/>
        <pt x="428" y="1507" on="1"/>
        <pt x="680" y="1227" on="1"/>
        <pt x="684" y="1567" on="1"/>
        <pt x="909" y="1520" on="1"/>
        <pt x="768" y="1212" on="1"/>
        <pt x="1112" y="1358" on="1"/>
        <pt x="1159" y="1139" on="1"/>
        <pt x="831" y="1126" on="1"/>
        <pt x="1126" y="979" on="1"/>
        <pt x="993" y="801" on="1"/>
        <pt x="737" y="1073" on="1"/>
        <pt x="739" y="733" on="1"/>
        <pt x="516" y="780" on="1"/>
        <pt x="651" y="1094" on="1"/>
        <pt x="309" y="944" on="1"/>
        <pt x="260" y="1161" on="1"/>
        <pt x="590" y="1178" on="1"/>
      </contour>
    </TTGlyph>
    <TTGlyph name="at" xMin="88" yMin="-291" xMax="1790" yMax="1462">
      <contour>
        <pt x="1790" y="803" on="1"/>
        <pt x="1790" y="650" on="0"/>
        <pt x="1716" y="410" on="0"/>
        <pt x="1596" y="245" on="0"/>
        <pt x="1445" y="158" on="0"/>
        <pt x="1368" y="158" on="1"/>
        <pt x="1277" y="158" on="0"/>
        <pt x="1150" y="247" on="0"/>
        <pt x="1116" y="350" on="1"/>
        <pt x="1104" y="350" on="1"/>
        <pt x="1083" y="310" on="0"/>
        <pt x="1029" y="240" on="0"/>
        <pt x="961" y="188" on="0"/>
        <pt x="875" y="158" on="0"/>
        <pt x="821" y="158" on="1"/>
        <pt x="756" y="158" on="0"/>
        <pt x="640" y="200" on="0"/>
        <pt x="552" y="286" on="0"/>
        <pt x="500" y="418" on="0"/>
        <pt x="500" y="508" on="1"/>
        <pt x="500" y="563" on="0"/>
        <pt x="526" y="691" on="0"/>
        <pt x="582" y="818" on="0"/>
        <pt x="670" y="937" on="0"/>
        <pt x="792" y="1028" on="0"/>
        <pt x="951" y="1083" on="0"/>
        <pt x="1051" y="1083" on="1"/>
        <pt x="1122" y="1083" on="0"/>
        <pt x="1223" y="1047" on="0"/>
        <pt x="1255" y="1022" on="1"/>
        <pt x="1341" y="1065" on="1"/>
        <pt x="1391" y="1065" on="1"/>
        <pt x="1305" y="553" on="1"/>
        <pt x="1302" y="541" on="0"/>
        <pt x="1297" y="503" on="0"/>
        <pt x="1293" y="463" on="0"/>
        <pt x="1290" y="426" on="0"/>
        <pt x="1290" y="414" on="1"/>
        <pt x="1290" y="372" on="0"/>
        <pt x="1308" y="318" on="0"/>
        <pt x="1336" y="287" on="0"/>
        <pt x="1372" y="276" on="0"/>
        <pt x="1389" y="276" on="1"/>
        <pt x="1429" y="276" on="0"/>
        <pt x="1513" y="344" on="0"/>
        <pt x="1581" y="475" on="0"/>
        <pt x="1624" y="669" on="0"/>
        <pt x="1624" y="795" on="1"/>
        <pt x="1624" y="935" on="0"/>
        <pt x="1539" y="1146" on="0"/>
        <pt x="1387" y="1287" on="0"/>
        <pt x="1178" y="1358" on="0"/>
        <pt x="1055" y="1358" on="1"/>
        <pt x="958" y="1358" on="0"/>
        <pt x="769" y="1304" on="0"/>
        <pt x="598" y="1200" on="0"/>
        <pt x="454" y="1049" on="0"/>
        <pt x="348" y="856" on="0"/>
        <pt x="289" y="622" on="0"/>
        <pt x="289" y="487" on="1"/>
        <pt x="289" y="306" on="0"/>
        <pt x="397" y="50" on="0"/>
        <pt x="582" y="-112" on="0"/>
        <pt x="829" y="-186" on="0"/>
        <pt x="967" y="-186" on="1"/>
        <pt x="1050" y="-186" on="0"/>
        <pt x="1208" y="-156" on="0"/>
        <pt x="1350" y="-108" on="0"/>
        <pt x="1472" y="-46" on="0"/>
        <pt x="1520" y="-14" on="1"/>
        <pt x="1569" y="-92" on="1"/>
        <pt x="1515" y="-133" on="0"/>
        <pt x="1377" y="-205" on="0"/>
        <pt x="1217" y="-259" on="0"/>
        <pt x="1035" y="-291" on="0"/>
        <pt x="938" y="-291" on="1"/>
        <pt x="821" y="-291" on="0"/>
        <pt x="605" y="-248" on="0"/>
        <pt x="416" y="-160" on="0"/>
        <pt x="260" y="-29" on="0"/>
        <pt x="149" y="147" on="0"/>
        <pt x="88" y="367" on="0"/>
        <pt x="88" y="500" on="1"/>
        <pt x="88" y="637" on="0"/>
        <pt x="155" y="887" on="0"/>
        <pt x="278" y="1100" on="0"/>
        <pt x="454" y="1273" on="0"/>
        <pt x="672" y="1396" on="0"/>
        <pt x="927" y="1462" on="0"/>
        <pt x="1069" y="1462" on="1"/>
        <pt x="1246" y="1462" on="0"/>
        <pt x="1516" y="1360" on="0"/>
        <pt x="1698" y="1183" on="0"/>
        <pt x="1790" y="942" on="0"/>
      </contour>
      <contour>
        <pt x="752" y="487" on="1"/>
        <pt x="752" y="385" on="0"/>
        <pt x="824" y="276" on="0"/>
        <pt x="883" y="276" on="1"/>
        <pt x="926" y="276" on="0"/>
        <pt x="989" y="318" on="0"/>
        <pt x="1033" y="387" on="0"/>
        <pt x="1061" y="473" on="0"/>
        <pt x="1069" y="518" on="1"/>
        <pt x="1151" y="936" on="1"/>
        <pt x="1145" y="950" on="0"/>
        <pt x="1122" y="971" on="0"/>
        <pt x="1092" y="986" on="0"/>
        <pt x="1058" y="993" on="0"/>
        <pt x="1042" y="993" on="1"/>
        <pt x="990" y="993" on="0"/>
        <pt x="907" y="941" on="0"/>
        <pt x="843" y="856" on="0"/>
        <pt x="796" y="747" on="0"/>
        <pt x="766" y="635" on="0"/>
        <pt x="752" y="528" on="0"/>
      </contour>
    </TTGlyph>
    <TTGlyph name="atilde" xMin="82" yMin="-20" xMax="1292" yMax="1565">
      <component glyphName="a" x="0" y="0" flags="0x1204"/>
      <component glyphName="tilde" x="74" y="0" flags="0x1004"/>
    </TTGlyph>
    <TTGlyph name="b" xMin="43" yMin="-20" xMax="1194" yMax="1556">
      <contour>
        <pt x="315" y="1274" on="1"/>
        <pt x="318" y="1287" on="0"/>
        <pt x="324" y="1315" on="0"/>
        <pt x="328" y="1340" on="0"/>
        <pt x="330" y="1358" on="0"/>
        <pt x="330" y="1362" on="1"/>
        <pt x="330" y="1390" on="0"/>
        <pt x="318" y="1424" on="0"/>
        <pt x="292" y="1442" on="0"/>
        <pt x="250" y="1448" on="0"/>
        <pt x="221" y="1448" on="1"/>
        <pt x="174" y="1448" on="1"/>
        <pt x="193" y="1556" on="1"/>
        <pt x="690" y="1556" on="1"/>
        <pt x="608" y="1167" on="1"/>
        <pt x="604" y="1148" on="0"/>
        <pt x="587" y="1090" on="0"/>
        <pt x="566" y="1022" on="0"/>
        <pt x="541" y="951" on="0"/>
        <pt x="519" y="887" on="0"/>
        <pt x="501" y="835" on="0"/>
        <pt x="496" y="821" on="1"/>
        <pt x="506" y="821" on="1"/>
        <pt x="543" y="896" on="0"/>
        <pt x="623" y="1007" on="0"/>
        <pt x="717" y="1081" on="0"/>
        <pt x="827" y="1118" on="0"/>
        <pt x="895" y="1118" on="1"/>
        <pt x="960" y="1118" on="0"/>
        <pt x="1070" y="1070" on="0"/>
        <pt x="1149" y="977" on="0"/>
        <pt x="1194" y="838" on="0"/>
        <pt x="1194" y="748" on="1"/>
        <pt x="1194" y="665" on="0"/>
        <pt x="1154" y="487" on="0"/>
        <pt x="1076" y="316" on="0"/>
        <pt x="963" y="163" on="0"/>
        <pt x="816" y="48" on="0"/>
        <pt x="638" y="-20" on="0"/>
        <pt x="535" y="-20" on="1"/>
        <pt x="493" y="-20" on="0"/>
        <pt x="415" y="-8" on="0"/>
        <pt x="348" y="12" on="0"/>
        <pt x="293" y="38" on="0"/>
        <pt x="274" y="53" on="1"/>
        <pt x="158" y="-6" on="1"/>
        <pt x="43" y="-6" on="1"/>
      </contour>
      <contour>
        <pt x="883" y="733" on="1"/>
        <pt x="883" y="794" on="0"/>
        <pt x="866" y="878" on="0"/>
        <pt x="836" y="930" on="0"/>
        <pt x="796" y="954" on="0"/>
        <pt x="774" y="954" on="1"/>
        <pt x="736" y="954" on="0"/>
        <pt x="666" y="909" on="0"/>
        <pt x="603" y="837" on="0"/>
        <pt x="550" y="748" on="0"/>
        <pt x="509" y="659" on="0"/>
        <pt x="481" y="580" on="0"/>
        <pt x="475" y="555" on="1"/>
        <pt x="391" y="168" on="1"/>
        <pt x="413" y="143" on="0"/>
        <pt x="481" y="111" on="0"/>
        <pt x="524" y="111" on="1"/>
        <pt x="584" y="111" on="0"/>
        <pt x="684" y="174" on="0"/>
        <pt x="764" y="277" on="0"/>
        <pt x="823" y="409" on="0"/>
        <pt x="863" y="547" on="0"/>
        <pt x="883" y="680" on="0"/>
      </contour>
    </TTGlyph>
    <TTGlyph name="backslash" xMin="221" yMin="-248" xMax="475" yMax="1556">
      <contour>
        <pt x="221" y="1556" on="1"/>
        <pt x="365" y="1556" on="1"/>
        <pt x="475" y="-248" on="1"/>
        <pt x="332" y="-248" on="1"/>
      </contour>
    </TTGlyph>
    <TTGlyph name="bar" xMin="530" yMin="-492" xMax="678" yMax="1556">
      <contour>
        <pt x="678" y="-492" on="1"/>
        <pt x="530" y="-492" on="1"/>
        <pt x="530" y="1556" on="1"/>
        <pt x="678" y="1556" on="1"/>
      </contour>
    </TTGlyph>
    <TTGlyph name="braceleft" xMin="80" yMin="-256" xMax="1067" yMax="1556">
      <contour>
        <pt x="487" y="-256" on="1"/>
        <pt x="341" y="-256" on="0"/>
        <pt x="195" y="-138" on="0"/>
        <pt x="195" y="-33" on="1"/>
        <pt x="195" y="-24" on="0"/>
        <pt x="196" y="-2" on="0"/>
        <pt x="200" y="30" on="0"/>
        <pt x="208" y="77" on="0"/>
        <pt x="215" y="111" on="1"/>
        <pt x="276" y="397" on="1"/>
        <pt x="283" y="426" on="0"/>
        <pt x="283" y="453" on="1"/>
        <pt x="283" y="493" on="0"/>
        <pt x="252" y="545" on="0"/>
        <pt x="197" y="576" on="0"/>
        <pt x="123" y="588" on="0"/>
        <pt x="80" y="590" on="1"/>
        <pt x="106" y="715" on="1"/>
        <pt x="157" y="716" on="0"/>
        <pt x="248" y="733" on="0"/>
        <pt x="321" y="775" on="0"/>
        <pt x="373" y="848" on="0"/>
        <pt x="385" y="905" on="1"/>
        <pt x="459" y="1257" on="1"/>
        <pt x="475" y="1334" on="0"/>
        <pt x="535" y="1447" on="0"/>
        <pt x="632" y="1520" on="0"/>
        <pt x="774" y="1556" on="0"/>
        <pt x="872" y="1556" on="1"/>
        <pt x="1067" y="1556" on="1"/>
        <pt x="1044" y="1448" on="1"/>
        <pt x="965" y="1448" on="1"/>
        <pt x="921" y="1448" on="0"/>
        <pt x="860" y="1422" on="0"/>
        <pt x="817" y="1372" on="0"/>
        <pt x="789" y="1297" on="0"/>
        <pt x="778" y="1249" on="1"/>
        <pt x="702" y="901" on="1"/>
        <pt x="682" y="808" on="0"/>
        <pt x="553" y="689" on="0"/>
        <pt x="428" y="662" on="1"/>
        <pt x="424" y="645" on="1"/>
        <pt x="517" y="620" on="0"/>
        <pt x="604" y="529" on="0"/>
        <pt x="604" y="461" on="1"/>
        <pt x="604" y="434" on="0"/>
        <pt x="598" y="403" on="1"/>
        <pt x="522" y="53" on="1"/>
        <pt x="516" y="27" on="0"/>
        <pt x="512" y="-19" on="0"/>
        <pt x="512" y="-39" on="1"/>
        <pt x="512" y="-92" on="0"/>
        <pt x="564" y="-147" on="0"/>
        <pt x="627" y="-147" on="1"/>
        <pt x="707" y="-147" on="1"/>
        <pt x="682" y="-256" on="1"/>
      </contour>
    </TTGlyph>
    <TTGlyph name="braceright" xMin="-111" yMin="-254" xMax="877" yMax="1559">
      <contour>
        <pt x="469" y="1559" on="1"/>
        <pt x="616" y="1559" on="0"/>
        <pt x="762" y="1441" on="0"/>
        <pt x="762" y="1335" on="1"/>
        <pt x="762" y="1326" on="0"/>
        <pt x="761" y="1304" on="0"/>
        <pt x="756" y="1272" on="0"/>
        <pt x="748" y="1226" on="0"/>
        <pt x="741" y="1192" on="1"/>
        <pt x="680" y="905" on="1"/>
        <pt x="674" y="875" on="0"/>
        <pt x="674" y="850" on="1"/>
        <pt x="674" y="809" on="0"/>
        <pt x="705" y="757" on="0"/>
        <pt x="760" y="727" on="0"/>
        <pt x="834" y="714" on="0"/>
        <pt x="877" y="713" on="1"/>
        <pt x="850" y="588" on="1"/>
        <pt x="799" y="586" on="0"/>
        <pt x="709" y="570" on="0"/>
        <pt x="636" y="528" on="0"/>
        <pt x="583" y="455" on="0"/>
        <pt x="571" y="397" on="1"/>
        <pt x="498" y="45" on="1"/>
        <pt x="482" y="-32" on="0"/>
        <pt x="422" y="-145" on="0"/>
        <pt x="324" y="-218" on="0"/>
        <pt x="182" y="-254" on="0"/>
        <pt x="84" y="-254" on="1"/>
        <pt x="-111" y="-254" on="1"/>
        <pt x="-88" y="-145" on="1"/>
        <pt x="-8" y="-145" on="1"/>
        <pt x="36" y="-145" on="0"/>
        <pt x="97" y="-119" on="0"/>
        <pt x="140" y="-69" on="0"/>
        <pt x="167" y="5" on="0"/>
        <pt x="178" y="53" on="1"/>
        <pt x="254" y="401" on="1"/>
        <pt x="274" y="494" on="0"/>
        <pt x="403" y="613" on="0"/>
        <pt x="528" y="641" on="1"/>
        <pt x="532" y="657" on="1"/>
        <pt x="440" y="682" on="0"/>
        <pt x="352" y="774" on="0"/>
        <pt x="352" y="842" on="1"/>
        <pt x="352" y="869" on="0"/>
        <pt x="358" y="899" on="1"/>
        <pt x="434" y="1249" on="1"/>
        <pt x="440" y="1275" on="0"/>
        <pt x="444" y="1321" on="0"/>
        <pt x="444" y="1341" on="1"/>
        <pt x="444" y="1394" on="0"/>
        <pt x="393" y="1450" on="0"/>
        <pt x="330" y="1450" on="1"/>
        <pt x="250" y="1450" on="1"/>
        <pt x="274" y="1559" on="1"/>
      </contour>
    </TTGlyph>
    <TTGlyph name="bracketleft" xMin="43" yMin="-262" xMax="997" yMax="1556">
      <contour>
        <pt x="43" y="-262" on="1"/>
        <pt x="430" y="1556" on="1"/>
        <pt x="997" y="1556" on="1"/>
        <pt x="975" y="1448" on="1"/>
        <pt x="887" y="1448" on="1"/>
        <pt x="853" y="1448" on="0"/>
        <pt x="790" y="1438" on="0"/>
        <pt x="736" y="1407" on="0"/>
        <pt x="696" y="1349" on="0"/>
        <pt x="686" y="1300" on="1"/>
        <pt x="410" y="-6" on="1"/>
        <pt x="407" y="-22" on="0"/>
        <pt x="403" y="-46" on="0"/>
        <pt x="403" y="-57" on="1"/>
        <pt x="403" y="-89" on="0"/>
        <pt x="425" y="-127" on="0"/>
        <pt x="464" y="-147" on="0"/>
        <pt x="516" y="-154" on="0"/>
        <pt x="545" y="-154" on="1"/>
        <pt x="633" y="-154" on="1"/>
        <pt x="610" y="-262" on="1"/>
      </contour>
    </TTGlyph>
    <TTGlyph name="bracketright" xMin="-109" yMin="-262" xMax="844" yMax="1556">
      <contour>
        <pt x="844" y="1556" on="1"/>
        <pt x="457" y="-262" on="1"/>
        <pt x="-109" y="-262" on="1"/>
        <pt x="-86" y="-154" on="1"/>
        <pt x="2" y="-154" on="1"/>
        <pt x="36" y="-154" on="0"/>
        <pt x="99" y="-144" on="0"/>
        <pt x="151" y="-113" on="0"/>
        <pt x="191" y="-54" on="0"/>
        <pt x="201" y="-6" on="1"/>
        <pt x="477" y="1300" on="1"/>
        <pt x="483" y="1331" on="0"/>
        <pt x="483" y="1352" on="1"/>
        <pt x="483" y="1383" on="0"/>
        <pt x="461" y="1421" on="0"/>
        <pt x="423" y="1442" on="0"/>
        <pt x="371" y="1448" on="0"/>
        <pt x="342" y="1448" on="1"/>
        <pt x="254" y="1448" on="1"/>
        <pt x="276" y="1556" on="1"/>
      </contour>
    </TTGlyph>
    <TTGlyph name="brokenbar" xMin="528" yMin="-492" xMax="676" yMax="1556">
      <contour>
        <pt x="676" y="737" on="1"/>
        <pt x="528" y="737" on="1"/>
        <pt x="528" y="1556" on="1"/>
        <pt x="676" y="1556" on="1"/>
      </contour>
      <contour>
        <pt x="676" y="-492" on="1"/>
        <pt x="528" y="-492" on="1"/>
        <pt x="528" y="328" on="1"/>
        <pt x="676" y="328" on="1"/>
      </contour>
    </TTGlyph>
    <TTGlyph name="bullet" xMin="158" yMin="406" xMax="760" yMax="1053">
      <contour>
        <pt x="760" y="766" on="1"/>
        <pt x="760" y="665" on="0"/>
        <pt x="705" y="528" on="0"/>
        <pt x="616" y="443" on="0"/>
        <pt x="505" y="406" on="0"/>
        <pt x="449" y="406" on="1"/>
        <pt x="384" y="406" on="0"/>
        <pt x="277" y="441" on="0"/>
        <pt x="200" y="512" on="0"/>
        <pt x="158" y="619" on="0"/>
        <pt x="158" y="692" on="1"/>
        <pt x="158" y="773" on="0"/>
        <pt x="202" y="907" on="0"/>
        <pt x="283" y="1001" on="0"/>
        <pt x="398" y="1053" on="0"/>
        <pt x="469" y="1053" on="1"/>
        <pt x="531" y="1053" on="0"/>
        <pt x="638" y="1018" on="0"/>
        <pt x="716" y="947" on="0"/>
        <pt x="760" y="839" on="0"/>
      </contour>
    </TTGlyph>
    <TTGlyph name="c" xMin="82" yMin="-20" xMax="1081" yMax="1118">
      <contour>
        <pt x="621" y="135" on="1"/>
        <pt x="675" y="135" on="0"/>
        <pt x="762" y="164" on="0"/>
        <pt x="832" y="212" on="0"/>
        <pt x="886" y="272" on="0"/>
        <pt x="907" y="303" on="1"/>
        <pt x="920" y="291" on="0"/>
        <pt x="938" y="244" on="0"/>
        <pt x="938" y="213" on="1"/>
        <pt x="938" y="173" on="0"/>
        <pt x="891" y="90" on="0"/>
        <pt x="792" y="23" on="0"/>
        <pt x="640" y="-20" on="0"/>
        <pt x="535" y="-20" on="1"/>
        <pt x="442" y="-20" on="0"/>
        <pt x="277" y="32" on="0"/>
        <pt x="154" y="138" on="0"/>
        <pt x="82" y="296" on="0"/>
        <pt x="82" y="403" on="1"/>
        <pt x="82" y="479" on="0"/>
        <pt x="120" y="644" on="0"/>
        <pt x="196" y="803" on="0"/>
        <pt x="309" y="946" on="0"/>
        <pt x="459" y="1054" on="0"/>
        <pt x="645" y="1118" on="0"/>
        <pt x="756" y="1118" on="1"/>
        <pt x="841" y="1118" on="0"/>
        <pt x="964" y="1083" on="0"/>
        <pt x="1043" y="1024" on="0"/>
        <pt x="1081" y="945" on="0"/>
        <pt x="1081" y="901" on="1"/>
        <pt x="1081" y="869" on="0"/>
        <pt x="1054" y="808" on="0"/>
        <pt x="994" y="759" on="0"/>
        <pt x="899" y="729" on="0"/>
        <pt x="831" y="729" on="1"/>
        <pt x="831" y="783" on="0"/>
        <pt x="812" y="880" on="0"/>
        <pt x="774" y="953" on="0"/>
        <pt x="719" y="995" on="0"/>
        <pt x="682" y="995" on="1"/>
        <pt x="638" y="995" on="0"/>
        <pt x="561" y="936" on="0"/>
        <pt x="497" y="839" on="0"/>
        <pt x="448" y="714" on="0"/>
        <pt x="413" y="581" on="0"/>
        <pt x="395" y="452" on="0"/>
        <pt x="395" y="399" on="1"/>
        <pt x="395" y="274" on="0"/>
        <pt x="509" y="135" on="0"/>
      </contour>
    </TTGlyph>
    <TTGlyph name="ccedilla" xMin="82" yMin="-492" xMax="1081" yMax="1118">
      <component glyphName="c" x="0" y="0" flags="0x1204"/>
      <component glyphName="cedilla" x="100" y="0" flags="0x1004"/>
    </TTGlyph>
    <TTGlyph name="cedilla" xMin="51" yMin="-492" xMax="569" yMax="18">
      <contour>
        <pt x="387" y="-70" on="1"/>
        <pt x="428" y="-75" on="0"/>
        <pt x="495" y="-105" on="0"/>
        <pt x="543" y="-150" on="0"/>
        <pt x="569" y="-207" on="0"/>
        <pt x="569" y="-240" on="1"/>
        <pt x="569" y="-306" on="0"/>
        <pt x="508" y="-401" on="0"/>
        <pt x="406" y="-463" on="0"/>
        <pt x="275" y="-492" on="0"/>
        <pt x="205" y="-492" on="1"/>
        <pt x="173" y="-492" on="0"/>
        <pt x="86" y="-477" on="0"/>
        <pt x="51" y="-465" on="1"/>
        <pt x="78" y="-344" on="1"/>
        <pt x="113" y="-352" on="0"/>
        <pt x="183" y="-360" on="0"/>
        <pt x="211" y="-360" on="1"/>
        <pt x="242" y="-360" on="0"/>
        <pt x="298" y="-348" on="0"/>
        <pt x="338" y="-323" on="0"/>
        <pt x="362" y="-284" on="0"/>
        <pt x="362" y="-256" on="1"/>
        <pt x="362" y="-236" on="0"/>
        <pt x="341" y="-203" on="0"/>
        <pt x="305" y="-178" on="0"/>
        <pt x="255" y="-164" on="0"/>
        <pt x="227" y="-162" on="1"/>
        <pt x="309" y="18" on="1"/>
        <pt x="426" y="18" on="1"/>
      </contour>
    </TTGlyph>
    <TTGlyph name="cent" xMin="137" yMin="0" xMax="1178" yMax="1462">
      <contour>
        <pt x="692" y="324" on="1"/>
        <pt x="751" y="324" on="0"/>
        <pt x="845" y="353" on="0"/>
        <pt x="920" y="401" on="0"/>
        <pt x="978" y="461" on="0"/>
        <pt x="1001" y="492" on="1"/>
        <pt x="1014" y="479" on="0"/>
        <pt x="1034" y="432" on="0"/>
        <pt x="1034" y="401" on="1"/>
        <pt x="1034" y="363" on="0"/>
        <pt x="988" y="283" on="0"/>
        <pt x="892" y="216" on="0"/>
        <pt x="744" y="171" on="0"/>
        <pt x="643" y="168" on="1"/>
        <pt x="608" y="0" on="1"/>
        <pt x="481" y="0" on="1"/>
        <pt x="518" y="174" on="1"/>
        <pt x="437" y="186" on="0"/>
        <pt x="297" y="249" on="0"/>
        <pt x="195" y="353" on="0"/>
        <pt x="137" y="498" on="0"/>
        <pt x="137" y="592" on="1"/>
        <pt x="137" y="663" on="0"/>
        <pt x="172" y="818" on="0"/>
        <pt x="242" y="970" on="0"/>
        <pt x="347" y="1109" on="0"/>
        <pt x="485" y="1221" on="0"/>
        <pt x="656" y="1296" on="0"/>
        <pt x="758" y="1307" on="1"/>
        <pt x="791" y="1462" on="1"/>
        <pt x="918" y="1462" on="1"/>
        <pt x="885" y="1311" on="1"/>
        <pt x="962" y="1306" on="0"/>
        <pt x="1073" y="1268" on="0"/>
        <pt x="1144" y="1210" on="0"/>
        <pt x="1178" y="1136" on="0"/>
        <pt x="1178" y="1096" on="1"/>
        <pt x="1178" y="1064" on="0"/>
        <pt x="1150" y="1003" on="0"/>
        <pt x="1090" y="954" on="0"/>
        <pt x="995" y="924" on="0"/>
        <pt x="928" y="924" on="1"/>
        <pt x="928" y="998" on="0"/>
        <pt x="890" y="1120" on="0"/>
        <pt x="852" y="1155" on="1"/>
        <pt x="676" y="324" on="1"/>
      </contour>
      <contour>
        <pt x="451" y="588" on="1"/>
        <pt x="451" y="504" on="0"/>
        <pt x="504" y="387" on="0"/>
        <pt x="557" y="356" on="1"/>
        <pt x="731" y="1186" on="1"/>
        <pt x="687" y="1176" on="0"/>
        <pt x="612" y="1107" on="0"/>
        <pt x="550" y="1007" on="0"/>
        <pt x="502" y="885" on="0"/>
        <pt x="468" y="759" on="0"/>
        <pt x="451" y="637" on="0"/>
      </contour>
    </TTGlyph>
    <TTGlyph name="circumflex" xMin="324" yMin="1241" xMax="1057" yMax="1569">
      <contour>
        <pt x="330" y="1268" on="1"/>
        <pt x="360" y="1297" on="0"/>
        <pt x="436" y="1372" on="0"/>
        <pt x="516" y="1452" on="0"/>
        <pt x="592" y="1533" on="0"/>
        <pt x="621" y="1569" on="1"/>
        <pt x="897" y="1569" on="1"/>
        <pt x="910" y="1537" on="0"/>
        <pt x="950" y="1457" on="0"/>
        <pt x="995" y="1375" on="0"/>
        <pt x="1039" y="1297" on="0"/>
        <pt x="1057" y="1268" on="1"/>
        <pt x="1051" y="1241" on="1"/>
        <pt x="922" y="1241" on="1"/>
        <pt x="904" y="1258" on="0"/>
        <pt x="856" y="1304" on="0"/>
        <pt x="806" y="1354" on="0"/>
        <pt x="757" y="1404" on="0"/>
        <pt x="739" y="1425" on="1"/>
        <pt x="712" y="1404" on="0"/>
        <pt x="644" y="1354" on="0"/>
        <pt x="574" y="1304" on="0"/>
        <pt x="508" y="1258" on="0"/>
        <pt x="483" y="1241" on="1"/>
        <pt x="324" y="1241" on="1"/>
      </contour>
    </TTGlyph>
    <TTGlyph name="colon" xMin="90" yMin="-16" xMax="614" yMax="1108">
      <contour>
        <pt x="434" y="168" on="1"/>
        <pt x="434" y="117" on="0"/>
        <pt x="403" y="46" on="0"/>
        <pt x="352" y="3" on="0"/>
        <pt x="288" y="-16" on="0"/>
        <pt x="256" y="-16" on="1"/>
        <pt x="182" y="-16" on="0"/>
        <pt x="90" y="56" on="0"/>
        <pt x="90" y="131" on="1"/>
        <pt x="90" y="173" on="0"/>
        <pt x="115" y="241" on="0"/>
        <pt x="162" y="289" on="0"/>
        <pt x="227" y="315" on="0"/>
        <pt x="268" y="315" on="1"/>
        <pt x="303" y="315" on="0"/>
        <pt x="364" y="297" on="0"/>
        <pt x="409" y="261" on="0"/>
        <pt x="434" y="205" on="0"/>
      </contour>
      <contour>
        <pt x="614" y="961" on="1"/>
        <pt x="614" y="909" on="0"/>
        <pt x="583" y="838" on="0"/>
        <pt x="532" y="795" on="0"/>
        <pt x="468" y="776" on="0"/>
        <pt x="436" y="776" on="1"/>
        <pt x="362" y="776" on="0"/>
        <pt x="270" y="848" on="0"/>
        <pt x="270" y="924" on="1"/>
        <pt x="270" y="965" on="0"/>
        <pt x="295" y="1033" on="0"/>
        <pt x="342" y="1081" on="0"/>
        <pt x="408" y="1108" on="0"/>
        <pt x="449" y="1108" on="1"/>
        <pt x="484" y="1108" on="0"/>
        <pt x="545" y="1090" on="0"/>
        <pt x="589" y="1054" on="0"/>
        <pt x="614" y="998" on="0"/>
      </contour>
    </TTGlyph>
    <TTGlyph name="comma" xMin="-23" yMin="-309" xMax="428" yMax="313">
      <contour>
        <pt x="428" y="127" on="1"/>
        <pt x="428" y="49" on="0"/>
        <pt x="371" y="-91" on="0"/>
        <pt x="258" y="-205" on="0"/>
        <pt x="89" y="-288" on="0"/>
        <pt x="-23" y="-309" on="1"/>
        <pt x="0" y="-201" on="1"/>
        <pt x="211" y="-151" on="0"/>
        <pt x="211" y="-31" on="1"/>
        <pt x="211" y="-10" on="0"/>
        <pt x="194" y="21" on="0"/>
        <pt x="168" y="46" on="0"/>
        <pt x="139" y="70" on="0"/>
        <pt x="113" y="101" on="0"/>
        <pt x="96" y="142" on="0"/>
        <pt x="96" y="172" on="1"/>
        <pt x="96" y="205" on="0"/>
        <pt x="121" y="257" on="0"/>
        <pt x="163" y="294" on="0"/>
        <pt x="219" y="313" on="0"/>
        <pt x="250" y="313" on="1"/>
        <pt x="287" y="313" on="0"/>
        <pt x="352" y="288" on="0"/>
        <pt x="400" y="241" on="0"/>
        <pt x="428" y="172" on="0"/>
      </contour>
    </TTGlyph>
    <TTGlyph name="copyright" xMin="129" yMin="-20" xMax="1634" yMax="1485">
      <contour>
        <pt x="129" y="731" on="1"/>
        <pt x="129" y="835" on="0"/>
        <pt x="183" y="1028" on="0"/>
        <pt x="280" y="1195" on="0"/>
        <pt x="418" y="1333" on="0"/>
        <pt x="585" y="1431" on="0"/>
        <pt x="777" y="1485" on="0"/>
        <pt x="881" y="1485" on="1"/>
        <pt x="985" y="1485" on="0"/>
        <pt x="1177" y="1431" on="0"/>
        <pt x="1344" y="1333" on="0"/>
        <pt x="1482" y="1195" on="0"/>
        <pt x="1580" y="1028" on="0"/>
        <pt x="1634" y="835" on="0"/>
        <pt x="1634" y="731" on="1"/>
        <pt x="1634" y="627" on="0"/>
        <pt x="1580" y="435" on="0"/>
        <pt x="1482" y="268" on="0"/>
        <pt x="1344" y="131" on="0"/>
        <pt x="1177" y="33" on="0"/>
        <pt x="985" y="-20" on="0"/>
        <pt x="881" y="-20" on="1"/>
        <pt x="777" y="-20" on="0"/>
        <pt x="585" y="33" on="0"/>
        <pt x="418" y="131" on="0"/>
        <pt x="280" y="268" on="0"/>
        <pt x="183" y="435" on="0"/>
        <pt x="129" y="627" on="0"/>
      </contour>
      <contour>
        <pt x="242" y="731" on="1"/>
        <pt x="242" y="643" on="0"/>
        <pt x="288" y="480" on="0"/>
        <pt x="371" y="338" on="0"/>
        <pt x="487" y="221" on="0"/>
        <pt x="629" y="138" on="0"/>
        <pt x="793" y="92" on="0"/>
        <pt x="881" y="92" on="1"/>
        <pt x="970" y="92" on="0"/>
        <pt x="1133" y="138" on="0"/>
        <pt x="1276" y="221" on="0"/>
        <pt x="1393" y="338" on="0"/>
        <pt x="1476" y="480" on="0"/>
        <pt x="1522" y="643" on="0"/>
        <pt x="1522" y="731" on="1"/>
        <pt x="1522" y="864" on="0"/>
        <pt x="1421" y="1097" on="0"/>
        <pt x="1247" y="1271" on="0"/>
        <pt x="1014" y="1372" on="0"/>
        <pt x="881" y="1372" on="1"/>
        <pt x="793" y="1372" on="0"/>
        <pt x="629" y="1326" on="0"/>
        <pt x="487" y="1243" on="0"/>
        <pt x="371" y="1126" on="0"/>
        <pt x="288" y="983" on="0"/>
        <pt x="242" y="819" on="0"/>
      </contour>
      <contour>
        <pt x="918" y="365" on="1"/>
        <pt x="964" y="365" on="0"/>
        <pt x="1044" y="389" on="0"/>
        <pt x="1109" y="429" on="0"/>
        <pt x="1155" y="478" on="0"/>
        <pt x="1169" y="504" on="1"/>
        <pt x="1182" y="495" on="0"/>
        <pt x="1198" y="462" on="0"/>
        <pt x="1198" y="440" on="1"/>
        <pt x="1198" y="412" on="0"/>
        <pt x="1160" y="354" on="0"/>
        <pt x="1083" y="306" on="0"/>
        <pt x="968" y="276" on="0"/>
        <pt x="891" y="276" on="1"/>
        <pt x="789" y="276" on="0"/>
        <pt x="635" y="342" on="0"/>
        <pt x="532" y="462" on="0"/>
        <pt x="481" y="630" on="0"/>
        <pt x="481" y="733" on="1"/>
        <pt x="481" y="833" on="0"/>
        <pt x="537" y="999" on="0"/>
        <pt x="648" y="1119" on="0"/>
        <pt x="812" y="1186" on="0"/>
        <pt x="920" y="1186" on="1"/>
        <pt x="990" y="1186" on="0"/>
        <pt x="1096" y="1163" on="0"/>
        <pt x="1165" y="1124" on="0"/>
        <pt x="1200" y="1071" on="0"/>
        <pt x="1200" y="1040" on="1"/>
        <pt x="1200" y="1018" on="0"/>
        <pt x="1178" y="982" on="0"/>
        <pt x="1141" y="957" on="0"/>
        <pt x="1090" y="944" on="0"/>
        <pt x="1061" y="944" on="1"/>
        <pt x="1061" y="972" on="0"/>
        <pt x="1046" y="1028" on="0"/>
        <pt x="1012" y="1073" on="0"/>
        <pt x="956" y="1100" on="0"/>
        <pt x="915" y="1100" on="1"/>
        <pt x="843" y="1100" on="0"/>
        <pt x="742" y="1052" on="0"/>
        <pt x="678" y="958" on="0"/>
        <pt x="649" y="821" on="0"/>
        <pt x="649" y="733" on="1"/>
        <pt x="649" y="556" on="0"/>
        <pt x="787" y="365" on="0"/>
      </contour>
    </TTGlyph>
    <TTGlyph name="currency" xMin="168" yMin="299" xMax="1038" yMax="1169">
      <contour>
        <pt x="227" y="729" on="1"/>
        <pt x="227" y="788" on="0"/>
        <pt x="261" y="897" on="0"/>
        <pt x="293" y="942" on="1"/>
        <pt x="170" y="1065" on="1"/>
        <pt x="272" y="1167" on="1"/>
        <pt x="395" y="1044" on="1"/>
        <pt x="440" y="1073" on="0"/>
        <pt x="543" y="1106" on="0"/>
        <pt x="602" y="1106" on="1"/>
        <pt x="659" y="1106" on="0"/>
        <pt x="764" y="1073" on="0"/>
        <pt x="809" y="1042" on="1"/>
        <pt x="936" y="1169" on="1"/>
        <pt x="1038" y="1065" on="1"/>
        <pt x="913" y="938" on="1"/>
        <pt x="944" y="893" on="0"/>
        <pt x="979" y="788" on="0"/>
        <pt x="979" y="729" on="1"/>
        <pt x="979" y="670" on="0"/>
        <pt x="947" y="567" on="0"/>
        <pt x="918" y="522" on="1"/>
        <pt x="1038" y="401" on="1"/>
        <pt x="936" y="299" on="1"/>
        <pt x="815" y="420" on="1"/>
        <pt x="769" y="389" on="0"/>
        <pt x="661" y="354" on="0"/>
        <pt x="602" y="354" on="1"/>
        <pt x="543" y="354" on="0"/>
        <pt x="436" y="387" on="0"/>
        <pt x="391" y="418" on="1"/>
        <pt x="272" y="299" on="1"/>
        <pt x="168" y="403" on="1"/>
        <pt x="287" y="522" on="1"/>
        <pt x="227" y="614" on="0"/>
      </contour>
      <contour>
        <pt x="367" y="729" on="1"/>
        <pt x="367" y="680" on="0"/>
        <pt x="404" y="594" on="0"/>
        <pt x="467" y="529" on="0"/>
        <pt x="553" y="492" on="0"/>
        <pt x="602" y="492" on="1"/>
        <pt x="653" y="492" on="0"/>
        <pt x="739" y="529" on="0"/>
        <pt x="802" y="594" on="0"/>
        <pt x="838" y="680" on="0"/>
        <pt x="838" y="729" on="1"/>
        <pt x="838" y="780" on="0"/>
        <pt x="802" y="867" on="0"/>
        <pt x="739" y="932" on="0"/>
        <pt x="653" y="969" on="0"/>
        <pt x="602" y="969" on="1"/>
        <pt x="553" y="969" on="0"/>
        <pt x="467" y="932" on="0"/>
        <pt x="404" y="867" on="0"/>
        <pt x="367" y="780" on="0"/>
      </contour>
    </TTGlyph>
    <TTGlyph name="d" xMin="82" yMin="-20" xMax="1329" yMax="1556">
      <contour>
        <pt x="393" y="352" on="1"/>
        <pt x="393" y="294" on="0"/>
        <pt x="410" y="214" on="0"/>
        <pt x="439" y="165" on="0"/>
        <pt x="480" y="143" on="0"/>
        <pt x="504" y="143" on="1"/>
        <pt x="549" y="143" on="0"/>
        <pt x="644" y="221" on="0"/>
        <pt x="728" y="347" on="0"/>
        <pt x="795" y="507" on="0"/>
        <pt x="813" y="590" on="1"/>
        <pt x="885" y="930" on="1"/>
        <pt x="863" y="958" on="0"/>
        <pt x="787" y="987" on="0"/>
        <pt x="750" y="987" on="1"/>
        <pt x="692" y="987" on="0"/>
        <pt x="594" y="924" on="0"/>
        <pt x="515" y="821" on="0"/>
        <pt x="454" y="688" on="0"/>
        <pt x="414" y="547" on="0"/>
        <pt x="393" y="408" on="0"/>
      </contour>
      <contour>
        <pt x="1092" y="440" on="1"/>
        <pt x="1089" y="425" on="0"/>
        <pt x="1078" y="370" on="0"/>
        <pt x="1068" y="310" on="0"/>
        <pt x="1061" y="252" on="0"/>
        <pt x="1061" y="233" on="1"/>
        <pt x="1061" y="185" on="0"/>
        <pt x="1105" y="141" on="0"/>
        <pt x="1133" y="141" on="1"/>
        <pt x="1159" y="141" on="0"/>
        <pt x="1222" y="169" on="0"/>
        <pt x="1247" y="184" on="1"/>
        <pt x="1292" y="104" on="1"/>
        <pt x="1265" y="82" on="0"/>
        <pt x="1197" y="38" on="0"/>
        <pt x="1116" y="2" on="0"/>
        <pt x="1022" y="-20" on="0"/>
        <pt x="969" y="-20" on="1"/>
        <pt x="924" y="-20" on="0"/>
        <pt x="850" y="1" on="0"/>
        <pt x="797" y="41" on="0"/>
        <pt x="768" y="102" on="0"/>
        <pt x="768" y="143" on="1"/>
        <pt x="768" y="162" on="0"/>
        <pt x="770" y="192" on="0"/>
        <pt x="773" y="221" on="0"/>
        <pt x="778" y="254" on="0"/>
        <pt x="782" y="276" on="1"/>
        <pt x="770" y="276" on="1"/>
        <pt x="732" y="197" on="0"/>
        <pt x="648" y="85" on="0"/>
        <pt x="553" y="13" on="0"/>
        <pt x="444" y="-20" on="0"/>
        <pt x="381" y="-20" on="1"/>
        <pt x="302" y="-20" on="0"/>
        <pt x="189" y="40" on="0"/>
        <pt x="116" y="142" on="0"/>
        <pt x="82" y="278" on="0"/>
        <pt x="82" y="354" on="1"/>
        <pt x="82" y="434" on="0"/>
        <pt x="119" y="609" on="0"/>
        <pt x="192" y="779" on="0"/>
        <pt x="299" y="933" on="0"/>
        <pt x="439" y="1049" on="0"/>
        <pt x="610" y="1118" on="0"/>
        <pt x="711" y="1118" on="1"/>
        <pt x="771" y="1118" on="0"/>
        <pt x="875" y="1092" on="0"/>
        <pt x="915" y="1069" on="1"/>
        <pt x="918" y="1082" on="0"/>
        <pt x="924" y="1117" on="0"/>
        <pt x="931" y="1152" on="0"/>
        <pt x="938" y="1183" on="0"/>
        <pt x="940" y="1192" on="1"/>
        <pt x="958" y="1274" on="1"/>
        <pt x="961" y="1287" on="0"/>
        <pt x="967" y="1315" on="0"/>
        <pt x="971" y="1340" on="0"/>
        <pt x="973" y="1358" on="0"/>
        <pt x="973" y="1362" on="1"/>
        <pt x="973" y="1390" on="0"/>
        <pt x="961" y="1424" on="0"/>
        <pt x="935" y="1442" on="0"/>
        <pt x="893" y="1448" on="0"/>
        <pt x="864" y="1448" on="1"/>
        <pt x="817" y="1448" on="1"/>
        <pt x="836" y="1556" on="1"/>
        <pt x="1329" y="1556" on="1"/>
      </contour>
    </TTGlyph>
    <TTGlyph name="degree" xMin="225" yMin="842" xMax="846" yMax="1462">
      <contour>
        <pt x="225" y="1151" on="1"/>
        <pt x="225" y="1215" on="0"/>
        <pt x="273" y="1329" on="0"/>
        <pt x="357" y="1413" on="0"/>
        <pt x="470" y="1462" on="0"/>
        <pt x="535" y="1462" on="1"/>
        <pt x="599" y="1462" on="0"/>
        <pt x="713" y="1413" on="0"/>
        <pt x="797" y="1329" on="0"/>
        <pt x="846" y="1215" on="0"/>
        <pt x="846" y="1151" on="1"/>
        <pt x="846" y="1086" on="0"/>
        <pt x="797" y="974" on="0"/>
        <pt x="713" y="890" on="0"/>
        <pt x="599" y="842" on="0"/>
        <pt x="535" y="842" on="1"/>
        <pt x="470" y="842" on="0"/>
        <pt x="357" y="890" on="0"/>
        <pt x="273" y="974" on="0"/>
        <pt x="225" y="1086" on="0"/>
      </contour>
      <contour>
        <pt x="367" y="1151" on="1"/>
        <pt x="367" y="1116" on="0"/>
        <pt x="393" y="1055" on="0"/>
        <pt x="439" y="1008" on="0"/>
        <pt x="500" y="981" on="0"/>
        <pt x="535" y="981" on="1"/>
        <pt x="571" y="981" on="0"/>
        <pt x="633" y="1008" on="0"/>
        <pt x="679" y="1055" on="0"/>
        <pt x="705" y="1116" on="0"/>
        <pt x="705" y="1151" on="1"/>
        <pt x="705" y="1187" on="0"/>
        <pt x="679" y="1250" on="0"/>
        <pt x="633" y="1296" on="0"/>
        <pt x="571" y="1323" on="0"/>
        <pt x="535" y="1323" on="1"/>
        <pt x="500" y="1323" on="0"/>
        <pt x="439" y="1296" on="0"/>
        <pt x="393" y="1250" on="0"/>
        <pt x="367" y="1187" on="0"/>
      </contour>
    </TTGlyph>
    <TTGlyph name="dieresis" xMin="381" yMin="1274" xMax="1044" yMax="1530">
      <contour>
        <pt x="616" y="1417" on="1"/>
        <pt x="616" y="1377" on="0"/>
        <pt x="594" y="1323" on="0"/>
        <pt x="560" y="1289" on="0"/>
        <pt x="516" y="1274" on="0"/>
        <pt x="494" y="1274" on="1"/>
        <pt x="443" y="1274" on="0"/>
        <pt x="381" y="1329" on="0"/>
        <pt x="381" y="1386" on="1"/>
        <pt x="381" y="1452" on="0"/>
        <pt x="447" y="1530" on="0"/>
        <pt x="504" y="1530" on="1"/>
        <pt x="553" y="1530" on="0"/>
        <pt x="616" y="1474" on="0"/>
      </contour>
      <contour>
        <pt x="1044" y="1417" on="1"/>
        <pt x="1044" y="1377" on="0"/>
        <pt x="1022" y="1323" on="0"/>
        <pt x="988" y="1289" on="0"/>
        <pt x="944" y="1274" on="0"/>
        <pt x="922" y="1274" on="1"/>
        <pt x="871" y="1274" on="0"/>
        <pt x="809" y="1329" on="0"/>
        <pt x="809" y="1386" on="1"/>
        <pt x="809" y="1452" on="0"/>
        <pt x="875" y="1530" on="0"/>
        <pt x="932" y="1530" on="1"/>
        <pt x="981" y="1530" on="0"/>
        <pt x="1044" y="1474" on="0"/>
      </contour>
    </TTGlyph>
    <TTGlyph name="divide" xMin="166" yMin="219" xMax="1044" yMax="1245">
      <contour>
        <pt x="492" y="1120" on="1"/>
        <pt x="492" y="1190" on="0"/>
        <pt x="557" y="1245" on="0"/>
        <pt x="606" y="1245" on="1"/>
        <pt x="630" y="1245" on="0"/>
        <pt x="672" y="1232" on="0"/>
        <pt x="703" y="1203" on="0"/>
        <pt x="721" y="1155" on="0"/>
        <pt x="721" y="1120" on="1"/>
        <pt x="721" y="1085" on="0"/>
        <pt x="703" y="1038" on="0"/>
        <pt x="672" y="1008" on="0"/>
        <pt x="630" y="995" on="0"/>
        <pt x="606" y="995" on="1"/>
        <pt x="557" y="995" on="0"/>
        <pt x="492" y="1051" on="0"/>
      </contour>
      <contour>
        <pt x="492" y="344" on="1"/>
        <pt x="492" y="414" on="0"/>
        <pt x="557" y="469" on="0"/>
        <pt x="606" y="469" on="1"/>
        <pt x="630" y="469" on="0"/>
        <pt x="672" y="456" on="0"/>
        <pt x="703" y="427" on="0"/>
        <pt x="721" y="379" on="0"/>
        <pt x="721" y="344" on="1"/>
        <pt x="721" y="309" on="0"/>
        <pt x="703" y="262" on="0"/>
        <pt x="672" y="232" on="0"/>
        <pt x="630" y="219" on="0"/>
        <pt x="606" y="219" on="1"/>
        <pt x="557" y="219" on="0"/>
        <pt x="492" y="275" on="0"/>
      </contour>
      <contour>
        <pt x="1044" y="659" on="1"/>
        <pt x="166" y="659" on="1"/>
        <pt x="166" y="805" on="1"/>
        <pt x="1044" y="805" on="1"/>
      </contour>
    </TTGlyph>
    <TTGlyph name="dollar" xMin="51" yMin="-162" xMax="1141" yMax="1556">
      <contour>
        <pt x="1030" y="481" on="1"/>
        <pt x="1030" y="386" on="0"/>
        <pt x="961" y="238" on="0"/>
        <pt x="832" y="134" on="0"/>
        <pt x="649" y="78" on="0"/>
        <pt x="535" y="76" on="1"/>
        <pt x="485" y="-162" on="1"/>
        <pt x="371" y="-162" on="1"/>
        <pt x="422" y="78" on="1"/>
        <pt x="235" y="93" on="0"/>
        <pt x="51" y="237" on="0"/>
        <pt x="51" y="352" on="1"/>
        <pt x="51" y="449" on="0"/>
        <pt x="170" y="537" on="0"/>
        <pt x="279" y="537" on="1"/>
        <pt x="279" y="465" on="0"/>
        <pt x="303" y="355" on="0"/>
        <pt x="348" y="275" on="0"/>
        <pt x="410" y="223" on="0"/>
        <pt x="449" y="209" on="1"/>
        <pt x="541" y="645" on="1"/>
        <pt x="468" y="684" on="0"/>
        <pt x="356" y="763" on="0"/>
        <pt x="279" y="856" on="0"/>
        <pt x="240" y="967" on="0"/>
        <pt x="240" y="1038" on="1"/>
        <pt x="240" y="1123" on="0"/>
        <pt x="307" y="1258" on="0"/>
        <pt x="429" y="1352" on="0"/>
        <pt x="600" y="1404" on="0"/>
        <pt x="705" y="1407" on="1"/>
        <pt x="737" y="1556" on="1"/>
        <pt x="852" y="1556" on="1"/>
        <pt x="817" y="1403" on="1"/>
        <pt x="979" y="1390" on="0"/>
        <pt x="1141" y="1280" on="0"/>
        <pt x="1141" y="1196" on="1"/>
        <pt x="1141" y="1154" on="0"/>
        <pt x="1117" y="1088" on="0"/>
        <pt x="1063" y="1042" on="0"/>
        <pt x="974" y="1018" on="0"/>
        <pt x="909" y="1018" on="1"/>
        <pt x="909" y="1055" on="0"/>
        <pt x="895" y="1132" on="0"/>
        <pt x="867" y="1203" on="0"/>
        <pt x="822" y="1260" on="0"/>
        <pt x="791" y="1276" on="1"/>
        <pt x="705" y="872" on="1"/>
        <pt x="752" y="848" on="1"/>
        <pt x="893" y="774" on="0"/>
        <pt x="1030" y="598" on="0"/>
      </contour>
      <contour>
        <pt x="768" y="389" on="1"/>
        <pt x="768" y="417" on="0"/>
        <pt x="758" y="466" on="0"/>
        <pt x="730" y="512" on="0"/>
        <pt x="681" y="560" on="0"/>
        <pt x="643" y="586" on="1"/>
        <pt x="559" y="193" on="1"/>
        <pt x="607" y="194" on="0"/>
        <pt x="684" y="223" on="0"/>
        <pt x="738" y="275" on="0"/>
        <pt x="768" y="347" on="0"/>
      </contour>
      <contour>
        <pt x="504" y="1106" on="1"/>
        <pt x="504" y="1047" on="0"/>
        <pt x="553" y="969" on="0"/>
        <pt x="602" y="934" on="1"/>
        <pt x="678" y="1290" on="1"/>
        <pt x="643" y="1285" on="0"/>
        <pt x="580" y="1260" on="0"/>
        <pt x="532" y="1215" on="0"/>
        <pt x="504" y="1150" on="0"/>
      </contour>
    </TTGlyph>
    <TTGlyph name="dotlessi" xMin="117" yMin="-20" xMax="692" yMax="1098">
      <contour>
        <pt x="621" y="1098" on="1"/>
        <pt x="479" y="432" on="1"/>
        <pt x="467" y="376" on="0"/>
        <pt x="451" y="279" on="0"/>
        <pt x="451" y="236" on="1"/>
        <pt x="451" y="191" on="0"/>
        <pt x="488" y="143" on="0"/>
        <pt x="522" y="143" on="1"/>
        <pt x="554" y="143" on="0"/>
        <pt x="608" y="167" on="0"/>
        <pt x="643" y="190" on="1"/>
        <pt x="692" y="121" on="1"/>
        <pt x="668" y="95" on="0"/>
        <pt x="606" y="44" on="0"/>
        <pt x="528" y="4" on="0"/>
        <pt x="435" y="-20" on="0"/>
        <pt x="379" y="-20" on="1"/>
        <pt x="261" y="-20" on="0"/>
        <pt x="135" y="91" on="0"/>
        <pt x="135" y="190" on="1"/>
        <pt x="135" y="234" on="0"/>
        <pt x="151" y="356" on="0"/>
        <pt x="168" y="434" on="1"/>
        <pt x="248" y="815" on="1"/>
        <pt x="251" y="828" on="0"/>
        <pt x="256" y="856" on="0"/>
        <pt x="260" y="881" on="0"/>
        <pt x="262" y="899" on="0"/>
        <pt x="262" y="903" on="1"/>
        <pt x="262" y="931" on="0"/>
        <pt x="250" y="965" on="0"/>
        <pt x="224" y="983" on="0"/>
        <pt x="183" y="989" on="0"/>
        <pt x="154" y="989" on="1"/>
        <pt x="117" y="989" on="1"/>
        <pt x="135" y="1098" on="1"/>
      </contour>
    </TTGlyph>
    <TTGlyph name="e" xMin="82" yMin="-20" xMax="1085" yMax="1118">
      <contour>
        <pt x="618" y="135" on="1"/>
        <pt x="668" y="135" on="0"/>
        <pt x="758" y="164" on="0"/>
        <pt x="835" y="211" on="0"/>
        <pt x="896" y="270" on="0"/>
        <pt x="918" y="301" on="1"/>
        <pt x="930" y="286" on="0"/>
        <pt x="944" y="239" on="0"/>
        <pt x="944" y="213" on="1"/>
        <pt x="944" y="176" on="0"/>
        <pt x="896" y="94" on="0"/>
        <pt x="797" y="25" on="0"/>
        <pt x="644" y="-20" on="0"/>
        <pt x="539" y="-20" on="1"/>
        <pt x="445" y="-20" on="0"/>
        <pt x="279" y="32" on="0"/>
        <pt x="154" y="137" on="0"/>
        <pt x="82" y="296" on="0"/>
        <pt x="82" y="403" on="1"/>
        <pt x="82" y="479" on="0"/>
        <pt x="122" y="645" on="0"/>
        <pt x="201" y="804" on="0"/>
        <pt x="318" y="947" on="0"/>
        <pt x="472" y="1055" on="0"/>
        <pt x="663" y="1118" on="0"/>
        <pt x="776" y="1118" on="1"/>
        <pt x="923" y="1118" on="0"/>
        <pt x="1085" y="991" on="0"/>
        <pt x="1085" y="877" on="1"/>
        <pt x="1085" y="794" on="0"/>
        <pt x="993" y="642" on="0"/>
        <pt x="831" y="527" on="0"/>
        <pt x="607" y="459" on="0"/>
        <pt x="475" y="459" on="1"/>
        <pt x="458" y="459" on="0"/>
        <pt x="418" y="459" on="0"/>
        <pt x="399" y="461" on="1"/>
        <pt x="396" y="441" on="0"/>
        <pt x="395" y="400" on="0"/>
        <pt x="395" y="383" on="1"/>
        <pt x="395" y="264" on="0"/>
        <pt x="506" y="135" on="0"/>
      </contour>
      <contour>
        <pt x="690" y="995" on="1"/>
        <pt x="640" y="995" on="0"/>
        <pt x="550" y="920" on="0"/>
        <pt x="478" y="800" on="0"/>
        <pt x="426" y="651" on="0"/>
        <pt x="414" y="578" on="1"/>
        <pt x="432" y="578" on="1"/>
        <pt x="508" y="578" on="0"/>
        <pt x="639" y="618" on="0"/>
        <pt x="736" y="693" on="0"/>
        <pt x="791" y="797" on="0"/>
        <pt x="791" y="862" on="1"/>
        <pt x="791" y="925" on="0"/>
        <pt x="738" y="995" on="0"/>
      </contour>
    </TTGlyph>
    <TTGlyph name="eacute" xMin="82" yMin="-20" xMax="1198" yMax="1569">
      <component glyphName="e" x="0" y="0" flags="0x1204"/>
      <component glyphName="acute" x="129" y="0" flags="0x1004"/>
    </TTGlyph>
    <TTGlyph name="ecircumflex" xMin="82" yMin="-20" xMax="1098" yMax="1569">
      <component glyphName="e" x="0" y="0" flags="0x1204"/>
      <component glyphName="circumflex" x="41" y="0" flags="0x1004"/>
    </TTGlyph>
    <TTGlyph name="edieresis" xMin="82" yMin="-20" xMax="1085" yMax="1530">
      <component glyphName="e" x="0" y="0" flags="0x1204"/>
      <component glyphName="dieresis" x="18" y="0" flags="0x1004"/>
    </TTGlyph>
    <TTGlyph name="egrave" xMin="82" yMin="-20" xMax="1085" yMax="1569">
      <component glyphName="e" x="0" y="0" flags="0x1204"/>
      <component glyphName="grave" x="-69" y="0" flags="0x1004"/>
    </TTGlyph>
    <TTGlyph name="eight" xMin="27" yMin="-20" xMax="1161" yMax="1483">
      <contour>
        <pt x="506" y="-20" on="1"/>
        <pt x="398" y="-20" on="0"/>
        <pt x="222" y="32" on="0"/>
        <pt x="96" y="126" on="0"/>
        <pt x="27" y="255" on="0"/>
        <pt x="27" y="332" on="1"/>
        <pt x="27" y="418" on="0"/>
        <pt x="89" y="542" on="0"/>
        <pt x="197" y="636" on="0"/>
        <pt x="344" y="708" on="0"/>
        <pt x="430" y="741" on="1"/>
        <pt x="386" y="774" on="0"/>
        <pt x="314" y="855" on="0"/>
        <pt x="262" y="947" on="0"/>
        <pt x="233" y="1049" on="0"/>
        <pt x="233" y="1104" on="1"/>
        <pt x="233" y="1181" on="0"/>
        <pt x="290" y="1319" on="0"/>
        <pt x="415" y="1422" on="0"/>
        <pt x="612" y="1483" on="0"/>
        <pt x="752" y="1483" on="1"/>
        <pt x="849" y="1483" on="0"/>
        <pt x="1001" y="1438" on="0"/>
        <pt x="1106" y="1358" on="0"/>
        <pt x="1161" y="1248" on="0"/>
        <pt x="1161" y="1184" on="1"/>
        <pt x="1161" y="1106" on="0"/>
        <pt x="1111" y="987" on="0"/>
        <pt x="1020" y="893" on="0"/>
        <pt x="893" y="818" on="0"/>
        <pt x="817" y="784" on="1"/>
        <pt x="870" y="750" on="0"/>
        <pt x="961" y="673" on="0"/>
        <pt x="1027" y="582" on="0"/>
        <pt x="1065" y="476" on="0"/>
        <pt x="1065" y="414" on="1"/>
        <pt x="1065" y="302" on="0"/>
        <pt x="983" y="138" on="0"/>
        <pt x="834" y="32" on="0"/>
        <pt x="629" y="-20" on="0"/>
      </contour>
      <contour>
        <pt x="522" y="98" on="1"/>
        <pt x="576" y="98" on="0"/>
        <pt x="672" y="130" on="0"/>
        <pt x="744" y="195" on="0"/>
        <pt x="786" y="291" on="0"/>
        <pt x="786" y="356" on="1"/>
        <pt x="786" y="406" on="0"/>
        <pt x="756" y="490" on="0"/>
        <pt x="698" y="565" on="0"/>
        <pt x="611" y="632" on="0"/>
        <pt x="553" y="664" on="1"/>
        <pt x="436" y="616" on="0"/>
        <pt x="303" y="450" on="0"/>
        <pt x="303" y="324" on="1"/>
        <pt x="303" y="218" on="0"/>
        <pt x="419" y="98" on="0"/>
      </contour>
      <contour>
        <pt x="903" y="1169" on="1"/>
        <pt x="903" y="1211" on="0"/>
        <pt x="884" y="1282" on="0"/>
        <pt x="844" y="1334" on="0"/>
        <pt x="783" y="1364" on="0"/>
        <pt x="741" y="1364" on="1"/>
        <pt x="693" y="1364" on="0"/>
        <pt x="611" y="1329" on="0"/>
        <pt x="551" y="1264" on="0"/>
        <pt x="516" y="1172" on="0"/>
        <pt x="516" y="1114" on="1"/>
        <pt x="516" y="954" on="0"/>
        <pt x="690" y="848" on="1"/>
        <pt x="749" y="879" on="0"/>
        <pt x="831" y="950" on="0"/>
        <pt x="881" y="1030" on="0"/>
        <pt x="903" y="1120" on="0"/>
      </contour>
    </TTGlyph>
    <TTGlyph name="emdash" xMin="-25" yMin="477" xMax="2073" yMax="623">
      <contour>
        <pt x="2042" y="477" on="1"/>
        <pt x="-25" y="477" on="1"/>
        <pt x="4" y="623" on="1"/>
        <pt x="2073" y="623" on="1"/>
      </contour>
    </TTGlyph>
    <TTGlyph name="endash" xMin="-25" yMin="477" xMax="1049" yMax="623">
      <contour>
        <pt x="1018" y="477" on="1"/>
        <pt x="-25" y="477" on="1"/>
        <pt x="4" y="623" on="1"/>
        <pt x="1049" y="623" on="1"/>
      </contour>
    </TTGlyph>
    <TTGlyph name="equal" xMin="166" yMin="461" xMax="1053" yMax="1001">
      <contour>
        <pt x="1053" y="604" on="1"/>
        <pt x="1053" y="461" on="1"/>
        <pt x="166" y="461" on="1"/>
        <pt x="166" y="604" on="1"/>
      </contour>
      <contour>
        <pt x="1053" y="1001" on="1"/>
        <pt x="1053" y="858" on="1"/>
        <pt x="166" y="858" on="1"/>
        <pt x="166" y="1001" on="1"/>
      </contour>
    </TTGlyph>
    <TTGlyph name="eth" xMin="82" yMin="-20" xMax="1178" yMax="1571">
      <contour>
        <pt x="82" y="410" on="1"/>
        <pt x="82" y="473" on="0"/>
        <pt x="115" y="617" on="0"/>
        <pt x="181" y="759" on="0"/>
        <pt x="281" y="891" on="0"/>
        <pt x="417" y="991" on="0"/>
        <pt x="588" y="1051" on="0"/>
        <pt x="692" y="1051" on="1"/>
        <pt x="743" y="1051" on="0"/>
        <pt x="838" y="1021" on="0"/>
        <pt x="870" y="995" on="1"/>
        <pt x="856" y="1076" on="0"/>
        <pt x="791" y="1206" on="0"/>
        <pt x="741" y="1260" on="1"/>
        <pt x="420" y="1110" on="1"/>
        <pt x="449" y="1253" on="1"/>
        <pt x="643" y="1343" on="1"/>
        <pt x="595" y="1378" on="0"/>
        <pt x="487" y="1427" on="0"/>
        <pt x="428" y="1446" on="1"/>
        <pt x="467" y="1571" on="1"/>
        <pt x="558" y="1549" on="0"/>
        <pt x="731" y="1475" on="0"/>
        <pt x="809" y="1421" on="1"/>
        <pt x="1114" y="1561" on="1"/>
        <pt x="1083" y="1415" on="1"/>
        <pt x="913" y="1337" on="1"/>
        <pt x="972" y="1281" on="0"/>
        <pt x="1070" y="1149" on="0"/>
        <pt x="1140" y="992" on="0"/>
        <pt x="1178" y="808" on="0"/>
        <pt x="1178" y="700" on="1"/>
        <pt x="1178" y="611" on="0"/>
        <pt x="1143" y="435" on="0"/>
        <pt x="1072" y="275" on="0"/>
        <pt x="964" y="138" on="0"/>
        <pt x="816" y="37" on="0"/>
        <pt x="627" y="-20" on="0"/>
        <pt x="512" y="-20" on="1"/>
        <pt x="417" y="-20" on="0"/>
        <pt x="259" y="33" on="0"/>
        <pt x="145" y="139" on="0"/>
        <pt x="82" y="301" on="0"/>
      </contour>
      <contour>
        <pt x="393" y="393" on="1"/>
        <pt x="393" y="324" on="0"/>
        <pt x="416" y="227" on="0"/>
        <pt x="459" y="167" on="0"/>
        <pt x="521" y="139" on="0"/>
        <pt x="559" y="139" on="1"/>
        <pt x="614" y="139" on="0"/>
        <pt x="702" y="190" on="0"/>
        <pt x="770" y="275" on="0"/>
        <pt x="819" y="385" on="0"/>
        <pt x="850" y="503" on="0"/>
        <pt x="864" y="620" on="0"/>
        <pt x="864" y="670" on="1"/>
        <pt x="864" y="795" on="0"/>
        <pt x="779" y="909" on="0"/>
        <pt x="700" y="909" on="1"/>
        <pt x="644" y="909" on="0"/>
        <pt x="555" y="858" on="0"/>
        <pt x="487" y="773" on="0"/>
        <pt x="439" y="665" on="0"/>
        <pt x="408" y="550" on="0"/>
        <pt x="393" y="438" on="0"/>
      </contour>
    </TTGlyph>
    <TTGlyph name="exclam" xMin="158" yMin="-16" xMax="786" yMax="1462">
      <contour>
        <pt x="430" y="1462" on="1"/>
        <pt x="786" y="1462" on="1"/>
        <pt x="432" y="467" on="1"/>
        <pt x="313" y="467" on="1"/>
      </contour>
      <contour>
        <pt x="502" y="168" on="1"/>
        <pt x="502" y="117" on="0"/>
        <pt x="471" y="46" on="0"/>
        <pt x="420" y="3" on="0"/>
        <pt x="356" y="-16" on="0"/>
        <pt x="324" y="-16" on="1"/>
        <pt x="249" y="-16" on="0"/>
        <pt x="158" y="56" on="0"/>
        <pt x="158" y="131" on="1"/>
        <pt x="158" y="173" on="0"/>
        <pt x="183" y="241" on="0"/>
        <pt x="229" y="289" on="0"/>
        <pt x="295" y="315" on="0"/>
        <pt x="336" y="315" on="1"/>
        <pt x="371" y="315" on="0"/>
        <pt x="432" y="297" on="0"/>
        <pt x="477" y="261" on="0"/>
        <pt x="502" y="205" on="0"/>
      </contour>
    </TTGlyph>
    <TTGlyph name="exclamdown" xMin="25" yMin="-367" xMax="653" yMax="1112">
      <contour>
        <pt x="381" y="-367" on="1"/>
        <pt x="25" y="-367" on="1"/>
        <pt x="379" y="629" on="1"/>
        <pt x="498" y="629" on="1"/>
      </contour>
      <contour>
        <pt x="309" y="928" on="1"/>
        <pt x="309" y="979" on="0"/>
        <pt x="340" y="1050" on="0"/>
        <pt x="391" y="1093" on="0"/>
        <pt x="455" y="1112" on="0"/>
        <pt x="487" y="1112" on="1"/>
        <pt x="562" y="1112" on="0"/>
        <pt x="653" y="1040" on="0"/>
        <pt x="653" y="965" on="1"/>
        <pt x="653" y="923" on="0"/>
        <pt x="628" y="855" on="0"/>
        <pt x="582" y="807" on="0"/>
        <pt x="516" y="780" on="0"/>
        <pt x="475" y="780" on="1"/>
        <pt x="440" y="780" on="0"/>
        <pt x="379" y="798" on="0"/>
        <pt x="334" y="834" on="0"/>
        <pt x="309" y="890" on="0"/>
      </contour>
    </TTGlyph>
    <TTGlyph name="f" xMin="-285" yMin="-492" xMax="1153" yMax="1577">
      <contour>
        <pt x="870" y="958" on="1"/>
        <pt x="610" y="958" on="1"/>
        <pt x="416" y="43" on="1"/>
        <pt x="393" y="-66" on="0"/>
        <pt x="320" y="-230" on="0"/>
        <pt x="229" y="-349" on="0"/>
        <pt x="123" y="-427" on="0"/>
        <pt x="11" y="-473" on="0"/>
        <pt x="-105" y="-492" on="0"/>
        <pt x="-160" y="-492" on="1"/>
        <pt x="-175" y="-492" on="0"/>
        <pt x="-211" y="-489" on="0"/>
        <pt x="-245" y="-484" on="0"/>
        <pt x="-275" y="-478" on="0"/>
        <pt x="-285" y="-475" on="1"/>
        <pt x="-260" y="-356" on="1"/>
        <pt x="-243" y="-361" on="0"/>
        <pt x="-189" y="-371" on="0"/>
        <pt x="-166" y="-371" on="1"/>
        <pt x="-116" y="-371" on="0"/>
        <pt x="-39" y="-337" on="0"/>
        <pt x="22" y="-256" on="0"/>
        <pt x="71" y="-120" on="0"/>
        <pt x="92" y="-18" on="1"/>
        <pt x="299" y="958" on="1"/>
        <pt x="113" y="958" on="1"/>
        <pt x="133" y="1055" on="1"/>
        <pt x="330" y="1098" on="1"/>
        <pt x="346" y="1174" on="1"/>
        <pt x="370" y="1275" on="0"/>
        <pt x="450" y="1426" on="0"/>
        <pt x="568" y="1527" on="0"/>
        <pt x="727" y="1577" on="0"/>
        <pt x="831" y="1577" on="1"/>
        <pt x="910" y="1577" on="0"/>
        <pt x="1031" y="1549" on="0"/>
        <pt x="1112" y="1501" on="0"/>
        <pt x="1153" y="1436" on="0"/>
        <pt x="1153" y="1399" on="1"/>
        <pt x="1153" y="1331" on="0"/>
        <pt x="1033" y="1255" on="0"/>
        <pt x="918" y="1255" on="1"/>
        <pt x="918" y="1294" on="0"/>
        <pt x="909" y="1367" on="0"/>
        <pt x="887" y="1423" on="0"/>
        <pt x="851" y="1456" on="0"/>
        <pt x="823" y="1456" on="1"/>
        <pt x="758" y="1456" on="0"/>
        <pt x="689" y="1344" on="0"/>
        <pt x="668" y="1229" on="1"/>
        <pt x="641" y="1098" on="1"/>
        <pt x="899" y="1098" on="1"/>
      </contour>
    </TTGlyph>
    <TTGlyph name="five" xMin="20" yMin="-20" xMax="1167" yMax="1462">
      <contour>
        <pt x="434" y="123" on="1"/>
        <pt x="501" y="123" on="0"/>
        <pt x="610" y="169" on="0"/>
        <pt x="687" y="261" on="0"/>
        <pt x="729" y="400" on="0"/>
        <pt x="729" y="492" on="1"/>
        <pt x="729" y="558" on="0"/>
        <pt x="691" y="656" on="0"/>
        <pt x="625" y="722" on="0"/>
        <pt x="534" y="754" on="0"/>
        <pt x="481" y="754" on="1"/>
        <pt x="444" y="754" on="0"/>
        <pt x="384" y="746" on="0"/>
        <pt x="334" y="733" on="0"/>
        <pt x="290" y="717" on="0"/>
        <pt x="270" y="709" on="1"/>
        <pt x="184" y="752" on="1"/>
        <pt x="393" y="1462" on="1"/>
        <pt x="1167" y="1462" on="1"/>
        <pt x="1108" y="1090" on="1"/>
        <pt x="983" y="1090" on="1"/>
        <pt x="985" y="1116" on="0"/>
        <pt x="989" y="1175" on="0"/>
        <pt x="989" y="1188" on="1"/>
        <pt x="989" y="1211" on="0"/>
        <pt x="947" y="1239" on="0"/>
        <pt x="889" y="1239" on="1"/>
        <pt x="477" y="1239" on="1"/>
        <pt x="356" y="856" on="1"/>
        <pt x="394" y="867" on="0"/>
        <pt x="494" y="889" on="0"/>
        <pt x="569" y="889" on="1"/>
        <pt x="675" y="889" on="0"/>
        <pt x="847" y="839" on="0"/>
        <pt x="968" y="742" on="0"/>
        <pt x="1034" y="599" on="0"/>
        <pt x="1034" y="506" on="1"/>
        <pt x="1034" y="394" on="0"/>
        <pt x="948" y="201" on="0"/>
        <pt x="787" y="60" on="0"/>
        <pt x="555" y="-20" on="0"/>
        <pt x="408" y="-20" on="1"/>
        <pt x="301" y="-20" on="0"/>
        <pt x="153" y="18" on="0"/>
        <pt x="61" y="83" on="0"/>
        <pt x="20" y="170" on="0"/>
        <pt x="20" y="219" on="1"/>
        <pt x="20" y="253" on="0"/>
        <pt x="43" y="312" on="0"/>
        <pt x="90" y="357" on="0"/>
        <pt x="162" y="383" on="0"/>
        <pt x="211" y="383" on="1"/>
        <pt x="212" y="339" on="0"/>
        <pt x="231" y="247" on="0"/>
        <pt x="280" y="171" on="0"/>
        <pt x="366" y="123" on="0"/>
      </contour>
    </TTGlyph>
    <TTGlyph name="four" xMin="0" yMin="0" xMax="1110" yMax="1462">
      <contour>
        <pt x="674" y="874" on="1"/>
        <pt x="682" y="915" on="0"/>
        <pt x="704" y="1012" on="0"/>
        <pt x="729" y="1116" on="0"/>
        <pt x="757" y="1220" on="0"/>
        <pt x="772" y="1268" on="1"/>
        <pt x="750" y="1233" on="0"/>
        <pt x="692" y="1149" on="0"/>
        <pt x="631" y="1064" on="0"/>
        <pt x="573" y="988" on="0"/>
        <pt x="551" y="961" on="1"/>
        <pt x="188" y="516" on="1"/>
        <pt x="598" y="516" on="1"/>
      </contour>
      <contour>
        <pt x="264" y="0" on="1"/>
        <pt x="285" y="109" on="1"/>
        <pt x="344" y="109" on="1"/>
        <pt x="374" y="109" on="0"/>
        <pt x="436" y="116" on="0"/>
        <pt x="490" y="145" on="0"/>
        <pt x="532" y="204" on="0"/>
        <pt x="543" y="256" on="1"/>
        <pt x="569" y="381" on="1"/>
        <pt x="0" y="381" on="1"/>
        <pt x="29" y="508" on="1"/>
        <pt x="813" y="1462" on="1"/>
        <pt x="1100" y="1462" on="1"/>
        <pt x="897" y="516" on="1"/>
        <pt x="1110" y="516" on="1"/>
        <pt x="1081" y="381" on="1"/>
        <pt x="868" y="381" on="1"/>
        <pt x="842" y="254" on="1"/>
        <pt x="839" y="242" on="0"/>
        <pt x="834" y="200" on="0"/>
        <pt x="834" y="190" on="1"/>
        <pt x="834" y="164" on="0"/>
        <pt x="853" y="132" on="0"/>
        <pt x="888" y="115" on="0"/>
        <pt x="938" y="109" on="0"/>
        <pt x="969" y="109" on="1"/>
        <pt x="1006" y="109" on="1"/>
        <pt x="983" y="0" on="1"/>
      </contour>
    </TTGlyph>
    <TTGlyph name="foursuperior" xMin="57" yMin="588" xMax="831" yMax="1473">
      <contour>
        <pt x="647" y="827" on="1"/>
        <pt x="639" y="791" on="1"/>
        <pt x="634" y="769" on="0"/>
        <pt x="631" y="735" on="0"/>
        <pt x="631" y="729" on="1"/>
        <pt x="631" y="712" on="0"/>
        <pt x="642" y="692" on="0"/>
        <pt x="662" y="681" on="0"/>
        <pt x="688" y="678" on="0"/>
        <pt x="702" y="678" on="1"/>
        <pt x="743" y="678" on="1"/>
        <pt x="725" y="588" on="1"/>
        <pt x="254" y="588" on="1"/>
        <pt x="272" y="678" on="1"/>
        <pt x="330" y="678" on="1"/>
        <pt x="347" y="678" on="0"/>
        <pt x="378" y="683" on="0"/>
        <pt x="405" y="699" on="0"/>
        <pt x="425" y="730" on="0"/>
        <pt x="430" y="756" on="1"/>
        <pt x="444" y="827" on="1"/>
        <pt x="57" y="827" on="1"/>
        <pt x="74" y="909" on="1"/>
        <pt x="602" y="1473" on="1"/>
        <pt x="784" y="1473" on="1"/>
        <pt x="672" y="936" on="1"/>
        <pt x="831" y="936" on="1"/>
        <pt x="807" y="827" on="1"/>
      </contour>
      <contour>
        <pt x="516" y="1165" on="1"/>
        <pt x="522" y="1197" on="0"/>
        <pt x="544" y="1260" on="0"/>
        <pt x="555" y="1298" on="1"/>
        <pt x="544" y="1281" on="0"/>
        <pt x="518" y="1249" on="0"/>
        <pt x="512" y="1241" on="1"/>
        <pt x="225" y="936" on="1"/>
        <pt x="469" y="936" on="1"/>
      </contour>
    </TTGlyph>
    <TTGlyph name="fraction" xMin="-543" yMin="0" xMax="668" yMax="1462">
      <contour>
        <pt x="-369" y="0" on="1"/>
        <pt x="-543" y="0" on="1"/>
        <pt x="496" y="1462" on="1"/>
        <pt x="668" y="1462" on="1"/>
      </contour>
    </TTGlyph>
    <TTGlyph name="g" xMin="-119" yMin="-492" xMax="1284" yMax="1192">
      <contour>
        <pt x="182" y="674" on="1"/>
        <pt x="182" y="745" on="0"/>
        <pt x="245" y="902" on="0"/>
        <pt x="372" y="1033" on="0"/>
        <pt x="564" y="1118" on="0"/>
        <pt x="694" y="1118" on="1"/>
        <pt x="762" y="1118" on="0"/>
        <pt x="881" y="1087" on="0"/>
        <pt x="926" y="1053" on="1"/>
        <pt x="949" y="1082" on="0"/>
        <pt x="1001" y="1133" on="0"/>
        <pt x="1059" y="1170" on="0"/>
        <pt x="1125" y="1192" on="0"/>
        <pt x="1163" y="1192" on="1"/>
        <pt x="1226" y="1192" on="0"/>
        <pt x="1284" y="1131" on="0"/>
        <pt x="1284" y="1083" on="1"/>
        <pt x="1284" y="1058" on="0"/>
        <pt x="1271" y="1006" on="0"/>
        <pt x="1241" y="964" on="0"/>
        <pt x="1190" y="938" on="0"/>
        <pt x="1153" y="938" on="1"/>
        <pt x="1153" y="980" on="0"/>
        <pt x="1116" y="1026" on="0"/>
        <pt x="1081" y="1026" on="1"/>
        <pt x="1053" y="1026" on="0"/>
        <pt x="1007" y="1006" on="0"/>
        <pt x="987" y="989" on="1"/>
        <pt x="1009" y="960" on="0"/>
        <pt x="1038" y="872" on="0"/>
        <pt x="1038" y="825" on="1"/>
        <pt x="1038" y="780" on="0"/>
        <pt x="1012" y="681" on="0"/>
        <pt x="960" y="584" on="0"/>
        <pt x="880" y="495" on="0"/>
        <pt x="770" y="427" on="0"/>
        <pt x="630" y="387" on="0"/>
        <pt x="545" y="387" on="1"/>
        <pt x="536" y="387" on="0"/>
        <pt x="507" y="388" on="0"/>
        <pt x="477" y="389" on="0"/>
        <pt x="449" y="391" on="0"/>
        <pt x="440" y="393" on="1"/>
        <pt x="392" y="372" on="0"/>
        <pt x="328" y="317" on="0"/>
        <pt x="328" y="285" on="1"/>
        <pt x="328" y="268" on="0"/>
        <pt x="345" y="246" on="0"/>
        <pt x="374" y="233" on="0"/>
        <pt x="414" y="225" on="0"/>
        <pt x="438" y="223" on="1"/>
        <pt x="668" y="201" on="1"/>
        <pt x="818" y="187" on="0"/>
        <pt x="985" y="52" on="0"/>
        <pt x="985" y="-78" on="1"/>
        <pt x="985" y="-171" on="0"/>
        <pt x="900" y="-324" on="0"/>
        <pt x="737" y="-432" on="0"/>
        <pt x="500" y="-492" on="0"/>
        <pt x="348" y="-492" on="1"/>
        <pt x="223" y="-492" on="0"/>
        <pt x="46" y="-455" on="0"/>
        <pt x="-66" y="-387" on="0"/>
        <pt x="-119" y="-290" on="0"/>
        <pt x="-119" y="-231" on="1"/>
        <pt x="-119" y="-177" on="0"/>
        <pt x="-64" y="-89" on="0"/>
        <pt x="28" y="-24" on="0"/>
        <pt x="146" y="20" on="0"/>
        <pt x="209" y="31" on="1"/>
        <pt x="189" y="41" on="0"/>
        <pt x="151" y="76" on="0"/>
        <pt x="122" y="121" on="0"/>
        <pt x="104" y="172" on="0"/>
        <pt x="104" y="199" on="1"/>
        <pt x="104" y="231" on="0"/>
        <pt x="130" y="287" on="0"/>
        <pt x="184" y="341" on="0"/>
        <pt x="268" y="396" on="0"/>
        <pt x="326" y="428" on="1"/>
        <pt x="258" y="460" on="0"/>
        <pt x="182" y="586" on="0"/>
      </contour>
      <contour>
        <pt x="721" y="-174" on="1"/>
        <pt x="721" y="-116" on="0"/>
        <pt x="632" y="-54" on="0"/>
        <pt x="526" y="-45" on="1"/>
        <pt x="344" y="-29" on="1"/>
        <pt x="299" y="-35" on="0"/>
        <pt x="220" y="-69" on="0"/>
        <pt x="160" y="-119" on="0"/>
        <pt x="125" y="-182" on="0"/>
        <pt x="125" y="-217" on="1"/>
        <pt x="125" y="-249" on="0"/>
        <pt x="148" y="-304" on="0"/>
        <pt x="205" y="-345" on="0"/>
        <pt x="304" y="-369" on="0"/>
        <pt x="379" y="-369" on="1"/>
        <pt x="469" y="-369" on="0"/>
        <pt x="598" y="-337" on="0"/>
        <pt x="681" y="-283" on="0"/>
        <pt x="721" y="-212" on="0"/>
      </contour>
      <contour>
        <pt x="551" y="512" on="1"/>
        <pt x="587" y="512" on="0"/>
        <pt x="647" y="546" on="0"/>
        <pt x="695" y="602" on="0"/>
        <pt x="731" y="673" on="0"/>
        <pt x="754" y="749" on="0"/>
        <pt x="766" y="822" on="0"/>
        <pt x="766" y="852" on="1"/>
        <pt x="766" y="924" on="0"/>
        <pt x="709" y="991" on="0"/>
        <pt x="655" y="991" on="1"/>
        <pt x="602" y="991" on="0"/>
        <pt x="522" y="921" on="0"/>
        <pt x="468" y="817" on="0"/>
        <pt x="440" y="700" on="0"/>
        <pt x="440" y="653" on="1"/>
        <pt x="440" y="578" on="0"/>
        <pt x="498" y="512" on="0"/>
      </contour>
    </TTGlyph>
    <TTGlyph name="germandbls" xMin="-299" yMin="-492" xMax="1352" yMax="1579">
      <contour>
        <pt x="895" y="1460" on="1"/>
        <pt x="840" y="1460" on="0"/>
        <pt x="755" y="1421" on="0"/>
        <pt x="692" y="1348" on="0"/>
        <pt x="649" y="1243" on="0"/>
        <pt x="637" y="1176" on="1"/>
        <pt x="381" y="-16" on="1"/>
        <pt x="361" y="-110" on="0"/>
        <pt x="292" y="-254" on="0"/>
        <pt x="205" y="-360" on="0"/>
        <pt x="103" y="-431" on="0"/>
        <pt x="-5" y="-474" on="0"/>
        <pt x="-116" y="-492" on="0"/>
        <pt x="-168" y="-492" on="1"/>
        <pt x="-208" y="-492" on="0"/>
        <pt x="-279" y="-479" on="0"/>
        <pt x="-299" y="-471" on="1"/>
        <pt x="-270" y="-358" on="1"/>
        <pt x="-253" y="-363" on="0"/>
        <pt x="-206" y="-371" on="0"/>
        <pt x="-174" y="-371" on="1"/>
        <pt x="-129" y="-371" on="0"/>
        <pt x="-57" y="-332" on="0"/>
        <pt x="2" y="-247" on="0"/>
        <pt x="50" y="-113" on="0"/>
        <pt x="72" y="-18" on="1"/>
        <pt x="279" y="958" on="1"/>
        <pt x="113" y="958" on="1"/>
        <pt x="139" y="1098" on="1"/>
        <pt x="309" y="1098" on="1"/>
        <pt x="326" y="1161" on="1"/>
        <pt x="353" y="1277" on="0"/>
        <pt x="462" y="1436" on="0"/>
        <pt x="614" y="1535" on="0"/>
        <pt x="802" y="1579" on="0"/>
        <pt x="909" y="1579" on="1"/>
        <pt x="1020" y="1579" on="0"/>
        <pt x="1186" y="1533" on="0"/>
        <pt x="1297" y="1450" on="0"/>
        <pt x="1352" y="1332" on="0"/>
        <pt x="1352" y="1260" on="1"/>
        <pt x="1352" y="1234" on="0"/>
        <pt x="1345" y="1169" on="0"/>
        <pt x="1335" y="1101" on="0"/>
        <pt x="1322" y="1034" on="0"/>
        <pt x="1315" y="1006" on="1"/>
        <pt x="1198" y="1006" on="1"/>
        <pt x="1137" y="1006" on="0"/>
        <pt x="1049" y="982" on="0"/>
        <pt x="992" y="939" on="0"/>
        <pt x="965" y="879" on="0"/>
        <pt x="965" y="842" on="1"/>
        <pt x="965" y="813" on="0"/>
        <pt x="982" y="765" on="0"/>
        <pt x="1022" y="719" on="0"/>
        <pt x="1091" y="670" on="0"/>
        <pt x="1143" y="639" on="1"/>
        <pt x="1242" y="582" on="0"/>
        <pt x="1327" y="437" on="0"/>
        <pt x="1327" y="338" on="1"/>
        <pt x="1327" y="257" on="0"/>
        <pt x="1262" y="125" on="0"/>
        <pt x="1143" y="31" on="0"/>
        <pt x="976" y="-20" on="0"/>
        <pt x="874" y="-20" on="1"/>
        <pt x="797" y="-20" on="0"/>
        <pt x="671" y="10" on="0"/>
        <pt x="581" y="68" on="0"/>
        <pt x="532" y="150" on="0"/>
        <pt x="532" y="203" on="1"/>
        <pt x="532" y="243" on="0"/>
        <pt x="562" y="306" on="0"/>
        <pt x="618" y="349" on="0"/>
        <pt x="695" y="371" on="0"/>
        <pt x="743" y="371" on="1"/>
        <pt x="743" y="323" on="0"/>
        <pt x="759" y="229" on="0"/>
        <pt x="796" y="153" on="0"/>
        <pt x="855" y="106" on="0"/>
        <pt x="897" y="106" on="1"/>
        <pt x="965" y="106" on="0"/>
        <pt x="1036" y="196" on="0"/>
        <pt x="1036" y="270" on="1"/>
        <pt x="1036" y="302" on="0"/>
        <pt x="1024" y="359" on="0"/>
        <pt x="990" y="413" on="0"/>
        <pt x="929" y="465" on="0"/>
        <pt x="881" y="494" on="1"/>
        <pt x="785" y="549" on="0"/>
        <pt x="678" y="701" on="0"/>
        <pt x="678" y="801" on="1"/>
        <pt x="678" y="884" on="0"/>
        <pt x="741" y="1003" on="0"/>
        <pt x="844" y="1080" on="0"/>
        <pt x="974" y="1116" on="0"/>
        <pt x="1042" y="1116" on="1"/>
        <pt x="1052" y="1163" on="0"/>
        <pt x="1063" y="1240" on="0"/>
        <pt x="1063" y="1274" on="1"/>
        <pt x="1063" y="1358" on="0"/>
        <pt x="981" y="1460" on="0"/>
      </contour>
    </TTGlyph>
    <TTGlyph name="grave" xMin="498" yMin="1241" xMax="958" yMax="1569">
      <contour>
        <pt x="831" y="1241" on="1"/>
        <pt x="787" y="1267" on="0"/>
        <pt x="688" y="1347" on="0"/>
        <pt x="596" y="1434" on="0"/>
        <pt x="519" y="1518" on="0"/>
        <pt x="498" y="1548" on="1"/>
        <pt x="504" y="1569" on="1"/>
        <pt x="805" y="1569" on="1"/>
        <pt x="817" y="1532" on="0"/>
        <pt x="856" y="1446" on="0"/>
        <pt x="898" y="1364" on="0"/>
        <pt x="941" y="1292" on="0"/>
        <pt x="958" y="1268" on="1"/>
        <pt x="952" y="1241" on="1"/>
      </contour>
    </TTGlyph>
    <TTGlyph name="greater" xMin="166" yMin="213" xMax="1044" yMax="1253">
      <contour>
        <pt x="166" y="213" on="1"/>
        <pt x="166" y="375" on="1"/>
        <pt x="825" y="731" on="1"/>
        <pt x="166" y="1092" on="1"/>
        <pt x="166" y="1253" on="1"/>
        <pt x="1044" y="774" on="1"/>
        <pt x="1044" y="690" on="1"/>
      </contour>
    </TTGlyph>
    <TTGlyph name="guillemotleft" xMin="121" yMin="143" xMax="1087" yMax="963">
      <contour>
        <pt x="143" y="621" on="1"/>
        <pt x="532" y="963" on="1"/>
        <pt x="676" y="963" on="1"/>
        <pt x="383" y="553" on="1"/>
        <pt x="502" y="143" on="1"/>
        <pt x="358" y="143" on="1"/>
        <pt x="121" y="514" on="1"/>
      </contour>
      <contour>
        <pt x="555" y="621" on="1"/>
        <pt x="944" y="963" on="1"/>
        <pt x="1087" y="963" on="1"/>
        <pt x="795" y="553" on="1"/>
        <pt x="913" y="143" on="1"/>
        <pt x="770" y="143" on="1"/>
        <pt x="532" y="514" on="1"/>
      </contour>
    </TTGlyph>
    <TTGlyph name="guillemotright" xMin="45" yMin="143" xMax="1010" yMax="963">
      <contour>
        <pt x="987" y="487" on="1"/>
        <pt x="600" y="143" on="1"/>
        <pt x="457" y="143" on="1"/>
        <pt x="752" y="553" on="1"/>
        <pt x="631" y="963" on="1"/>
        <pt x="774" y="963" on="1"/>
        <pt x="1010" y="594" on="1"/>
      </contour>
      <contour>
        <pt x="575" y="487" on="1"/>
        <pt x="188" y="143" on="1"/>
        <pt x="45" y="143" on="1"/>
        <pt x="340" y="553" on="1"/>
        <pt x="219" y="963" on="1"/>
        <pt x="362" y="963" on="1"/>
        <pt x="598" y="594" on="1"/>
      </contour>
    </TTGlyph>
    <TTGlyph name="guilsinglleft" xMin="125" yMin="143" xMax="676" yMax="963">
      <contour>
        <pt x="147" y="623" on="1"/>
        <pt x="532" y="963" on="1"/>
        <pt x="676" y="963" on="1"/>
        <pt x="383" y="553" on="1"/>
        <pt x="502" y="143" on="1"/>
        <pt x="358" y="143" on="1"/>
        <pt x="125" y="516" on="1"/>
      </contour>
    </TTGlyph>
    <TTGlyph name="guilsinglright" xMin="45" yMin="143" xMax="596" yMax="963">
      <contour>
        <pt x="573" y="485" on="1"/>
        <pt x="188" y="143" on="1"/>
        <pt x="45" y="143" on="1"/>
        <pt x="340" y="553" on="1"/>
        <pt x="219" y="963" on="1"/>
        <pt x="362" y="963" on="1"/>
        <pt x="596" y="592" on="1"/>
      </contour>
    </TTGlyph>
    <TTGlyph name="h" xMin="43" yMin="-20" xMax="1311" yMax="1556">
      <contour>
        <pt x="754" y="190" on="1"/>
        <pt x="754" y="234" on="0"/>
        <pt x="769" y="356" on="0"/>
        <pt x="786" y="434" on="1"/>
        <pt x="821" y="596" on="1"/>
        <pt x="826" y="616" on="0"/>
        <pt x="839" y="674" on="0"/>
        <pt x="850" y="737" on="0"/>
        <pt x="858" y="800" on="0"/>
        <pt x="858" y="825" on="1"/>
        <pt x="858" y="844" on="0"/>
        <pt x="851" y="886" on="0"/>
        <pt x="833" y="920" on="0"/>
        <pt x="799" y="942" on="0"/>
        <pt x="772" y="942" on="1"/>
        <pt x="737" y="942" on="0"/>
        <pt x="668" y="895" on="0"/>
        <pt x="604" y="818" on="0"/>
        <pt x="547" y="719" on="0"/>
        <pt x="500" y="615" on="0"/>
        <pt x="466" y="515" on="0"/>
        <pt x="457" y="475" on="1"/>
        <pt x="350" y="0" on="1"/>
        <pt x="43" y="0" on="1"/>
        <pt x="313" y="1274" on="1"/>
        <pt x="316" y="1287" on="0"/>
        <pt x="322" y="1315" on="0"/>
        <pt x="326" y="1340" on="0"/>
        <pt x="328" y="1358" on="0"/>
        <pt x="328" y="1362" on="1"/>
        <pt x="328" y="1390" on="0"/>
        <pt x="316" y="1424" on="0"/>
        <pt x="290" y="1442" on="0"/>
        <pt x="248" y="1448" on="0"/>
        <pt x="219" y="1448" on="1"/>
        <pt x="176" y="1448" on="1"/>
        <pt x="195" y="1556" on="1"/>
        <pt x="690" y="1556" on="1"/>
        <pt x="594" y="1106" on="1"/>
        <pt x="586" y="1075" on="0"/>
        <pt x="567" y="997" on="0"/>
        <pt x="558" y="962" on="1"/>
        <pt x="547" y="921" on="0"/>
        <pt x="537" y="879" on="1"/>
        <pt x="549" y="879" on="1"/>
        <pt x="588" y="940" on="0"/>
        <pt x="671" y="1030" on="0"/>
        <pt x="767" y="1089" on="0"/>
        <pt x="880" y="1118" on="0"/>
        <pt x="948" y="1118" on="1"/>
        <pt x="1013" y="1118" on="0"/>
        <pt x="1103" y="1080" on="0"/>
        <pt x="1158" y="1015" on="0"/>
        <pt x="1182" y="930" on="0"/>
        <pt x="1182" y="883" on="1"/>
        <pt x="1182" y="857" on="0"/>
        <pt x="1174" y="798" on="0"/>
        <pt x="1163" y="738" on="0"/>
        <pt x="1150" y="678" on="0"/>
        <pt x="1145" y="651" on="1"/>
        <pt x="1098" y="432" on="1"/>
        <pt x="1085" y="376" on="0"/>
        <pt x="1069" y="279" on="0"/>
        <pt x="1069" y="236" on="1"/>
        <pt x="1069" y="191" on="0"/>
        <pt x="1107" y="143" on="0"/>
        <pt x="1141" y="143" on="1"/>
        <pt x="1173" y="143" on="0"/>
        <pt x="1226" y="167" on="0"/>
        <pt x="1262" y="190" on="1"/>
        <pt x="1311" y="121" on="1"/>
        <pt x="1286" y="95" on="0"/>
        <pt x="1224" y="44" on="0"/>
        <pt x="1147" y="4" on="0"/>
        <pt x="1053" y="-20" on="0"/>
        <pt x="997" y="-20" on="1"/>
        <pt x="880" y="-20" on="0"/>
        <pt x="754" y="91" on="0"/>
      </contour>
    </TTGlyph>
    <TTGlyph name="hyphen" xMin="20" yMin="451" xMax="600" yMax="666">
      <contour>
        <pt x="20" y="451" on="1"/>
        <pt x="68" y="666" on="1"/>
        <pt x="600" y="666" on="1"/>
        <pt x="553" y="451" on="1"/>
      </contour>
    </TTGlyph>
    <TTGlyph name="i" xMin="117" yMin="-20" xMax="692" yMax="1577">
      <contour>
        <pt x="621" y="1098" on="1"/>
        <pt x="479" y="432" on="1"/>
        <pt x="467" y="376" on="0"/>
        <pt x="451" y="279" on="0"/>
        <pt x="451" y="236" on="1"/>
        <pt x="451" y="191" on="0"/>
        <pt x="488" y="143" on="0"/>
        <pt x="522" y="143" on="1"/>
        <pt x="554" y="143" on="0"/>
        <pt x="608" y="167" on="0"/>
        <pt x="643" y="190" on="1"/>
        <pt x="692" y="121" on="1"/>
        <pt x="668" y="95" on="0"/>
        <pt x="606" y="44" on="0"/>
        <pt x="528" y="4" on="0"/>
        <pt x="435" y="-20" on="0"/>
        <pt x="379" y="-20" on="1"/>
        <pt x="261" y="-20" on="0"/>
        <pt x="135" y="91" on="0"/>
        <pt x="135" y="190" on="1"/>
        <pt x="135" y="234" on="0"/>
        <pt x="151" y="356" on="0"/>
        <pt x="168" y="434" on="1"/>
        <pt x="248" y="815" on="1"/>
        <pt x="251" y="828" on="0"/>
        <pt x="256" y="856" on="0"/>
        <pt x="260" y="881" on="0"/>
        <pt x="262" y="899" on="0"/>
        <pt x="262" y="903" on="1"/>
        <pt x="262" y="931" on="0"/>
        <pt x="250" y="965" on="0"/>
        <pt x="224" y="983" on="0"/>
        <pt x="183" y="989" on="0"/>
        <pt x="154" y="989" on="1"/>
        <pt x="117" y="989" on="1"/>
        <pt x="135" y="1098" on="1"/>
      </contour>
      <contour>
        <pt x="479" y="1282" on="1"/>
        <pt x="445" y="1282" on="0"/>
        <pt x="387" y="1297" on="0"/>
        <pt x="344" y="1329" on="0"/>
        <pt x="319" y="1377" on="0"/>
        <pt x="319" y="1409" on="1"/>
        <pt x="319" y="1454" on="0"/>
        <pt x="350" y="1517" on="0"/>
        <pt x="402" y="1558" on="0"/>
        <pt x="472" y="1577" on="0"/>
        <pt x="510" y="1577" on="1"/>
        <pt x="543" y="1577" on="0"/>
        <pt x="602" y="1563" on="0"/>
        <pt x="647" y="1531" on="0"/>
        <pt x="674" y="1482" on="0"/>
        <pt x="674" y="1448" on="1"/>
        <pt x="674" y="1406" on="0"/>
        <pt x="641" y="1343" on="0"/>
        <pt x="586" y="1302" on="0"/>
        <pt x="516" y="1282" on="0"/>
      </contour>
    </TTGlyph>
    <TTGlyph name="iacute" xMin="117" yMin="-20" xMax="910" yMax="1569">
      <component glyphName="dotlessi" x="0" y="0" flags="0x1204"/>
      <component glyphName="acute" x="-159" y="0" flags="0x1004"/>
    </TTGlyph>
    <TTGlyph name="icircumflex" xMin="63" yMin="-20" xMax="796" yMax="1569">
      <component glyphName="dotlessi" x="0" y="0" flags="0x1204"/>
      <component glyphName="circumflex" x="-261" y="0" flags="0x1004"/>
    </TTGlyph>
    <TTGlyph name="idieresis" xMin="117" yMin="-20" xMax="783" yMax="1530">
      <component glyphName="dotlessi" x="0" y="0" flags="0x1204"/>
      <component glyphName="dieresis" x="-261" y="0" flags="0x1004"/>
    </TTGlyph>
    <TTGlyph name="igrave" xMin="117" yMin="-20" xMax="692" yMax="1569">
      <component glyphName="dotlessi" x="0" y="0" flags="0x1204"/>
      <component glyphName="grave" x="-374" y="0" flags="0x1004"/>
    </TTGlyph>
    <TTGlyph name="j" xMin="-287" yMin="-492" xMax="674" yMax="1577">
      <contour>
        <pt x="479" y="1282" on="1"/>
        <pt x="445" y="1282" on="0"/>
        <pt x="387" y="1297" on="0"/>
        <pt x="344" y="1329" on="0"/>
        <pt x="319" y="1377" on="0"/>
        <pt x="319" y="1409" on="1"/>
        <pt x="319" y="1454" on="0"/>
        <pt x="350" y="1517" on="0"/>
        <pt x="402" y="1558" on="0"/>
        <pt x="472" y="1577" on="0"/>
        <pt x="510" y="1577" on="1"/>
        <pt x="543" y="1577" on="0"/>
        <pt x="602" y="1563" on="0"/>
        <pt x="647" y="1531" on="0"/>
        <pt x="674" y="1482" on="0"/>
        <pt x="674" y="1448" on="1"/>
        <pt x="674" y="1406" on="0"/>
        <pt x="641" y="1343" on="0"/>
        <pt x="586" y="1302" on="0"/>
        <pt x="516" y="1282" on="0"/>
      </contour>
      <contour>
        <pt x="621" y="1098" on="1"/>
        <pt x="383" y="-16" on="1"/>
        <pt x="355" y="-153" on="0"/>
        <pt x="261" y="-336" on="0"/>
        <pt x="138" y="-446" on="0"/>
        <pt x="-6" y="-492" on="0"/>
        <pt x="-84" y="-492" on="1"/>
        <pt x="-149" y="-492" on="0"/>
        <pt x="-243" y="-478" on="0"/>
        <pt x="-287" y="-467" on="1"/>
        <pt x="-262" y="-360" on="1"/>
        <pt x="-247" y="-365" on="0"/>
        <pt x="-192" y="-375" on="0"/>
        <pt x="-170" y="-375" on="1"/>
        <pt x="-122" y="-375" on="0"/>
        <pt x="-51" y="-340" on="0"/>
        <pt x="5" y="-256" on="0"/>
        <pt x="50" y="-118" on="0"/>
        <pt x="72" y="-16" on="1"/>
        <pt x="248" y="815" on="1"/>
        <pt x="251" y="828" on="0"/>
        <pt x="256" y="856" on="0"/>
        <pt x="260" y="881" on="0"/>
        <pt x="262" y="899" on="0"/>
        <pt x="262" y="903" on="1"/>
        <pt x="262" y="931" on="0"/>
        <pt x="250" y="965" on="0"/>
        <pt x="224" y="983" on="0"/>
        <pt x="183" y="989" on="0"/>
        <pt x="154" y="989" on="1"/>
        <pt x="117" y="989" on="1"/>
        <pt x="135" y="1098" on="1"/>
      </contour>
    </TTGlyph>
    <TTGlyph name="k" xMin="43" yMin="0" xMax="1300" yMax="1556">
      <contour>
        <pt x="438" y="408" on="1"/>
        <pt x="350" y="0" on="1"/>
        <pt x="43" y="0" on="1"/>
        <pt x="313" y="1274" on="1"/>
        <pt x="316" y="1287" on="0"/>
        <pt x="322" y="1315" on="0"/>
        <pt x="326" y="1340" on="0"/>
        <pt x="328" y="1358" on="0"/>
        <pt x="328" y="1362" on="1"/>
        <pt x="328" y="1390" on="0"/>
        <pt x="316" y="1424" on="0"/>
        <pt x="290" y="1442" on="0"/>
        <pt x="248" y="1448" on="0"/>
        <pt x="219" y="1448" on="1"/>
        <pt x="176" y="1448" on="1"/>
        <pt x="195" y="1556" on="1"/>
        <pt x="690" y="1556" on="1"/>
        <pt x="582" y="1057" on="1"/>
        <pt x="564" y="976" on="0"/>
        <pt x="537" y="849" on="0"/>
        <pt x="510" y="735" on="0"/>
        <pt x="481" y="621" on="0"/>
        <pt x="463" y="553" on="1"/>
        <pt x="782" y="842" on="1"/>
        <pt x="807" y="864" on="0"/>
        <pt x="837" y="898" on="0"/>
        <pt x="854" y="923" on="0"/>
        <pt x="860" y="942" on="0"/>
        <pt x="860" y="950" on="1"/>
        <pt x="860" y="972" on="0"/>
        <pt x="810" y="995" on="0"/>
        <pt x="764" y="995" on="1"/>
        <pt x="784" y="1098" on="1"/>
        <pt x="1300" y="1098" on="1"/>
        <pt x="1280" y="995" on="1"/>
        <pt x="1209" y="995" on="0"/>
        <pt x="1053" y="912" on="0"/>
        <pt x="954" y="821" on="1"/>
        <pt x="791" y="670" on="1"/>
        <pt x="944" y="336" on="1"/>
        <pt x="977" y="264" on="0"/>
        <pt x="1039" y="176" on="0"/>
        <pt x="1093" y="126" on="0"/>
        <pt x="1139" y="109" on="0"/>
        <pt x="1157" y="109" on="1"/>
        <pt x="1165" y="109" on="1"/>
        <pt x="1143" y="0" on="1"/>
        <pt x="1038" y="0" on="1"/>
        <pt x="963" y="0" on="0"/>
        <pt x="845" y="21" on="0"/>
        <pt x="755" y="68" on="0"/>
        <pt x="691" y="141" on="0"/>
        <pt x="670" y="193" on="1"/>
        <pt x="549" y="479" on="1"/>
      </contour>
    </TTGlyph>
    <TTGlyph name="l" xMin="102" yMin="-20" xMax="690" yMax="1556">
      <contour>
        <pt x="489" y="143" on="1"/>
        <pt x="521" y="143" on="0"/>
        <pt x="575" y="167" on="0"/>
        <pt x="610" y="190" on="1"/>
        <pt x="659" y="121" on="1"/>
        <pt x="635" y="95" on="0"/>
        <pt x="573" y="44" on="0"/>
        <pt x="496" y="4" on="0"/>
        <pt x="402" y="-20" on="0"/>
        <pt x="346" y="-20" on="1"/>
        <pt x="228" y="-20" on="0"/>
        <pt x="102" y="91" on="0"/>
        <pt x="102" y="190" on="1"/>
        <pt x="102" y="278" on="0"/>
        <pt x="135" y="434" on="1"/>
        <pt x="313" y="1274" on="1"/>
        <pt x="316" y="1287" on="0"/>
        <pt x="322" y="1315" on="0"/>
        <pt x="326" y="1340" on="0"/>
        <pt x="328" y="1358" on="0"/>
        <pt x="328" y="1362" on="1"/>
        <pt x="328" y="1390" on="0"/>
        <pt x="316" y="1424" on="0"/>
        <pt x="290" y="1442" on="0"/>
        <pt x="248" y="1448" on="0"/>
        <pt x="219" y="1448" on="1"/>
        <pt x="176" y="1448" on="1"/>
        <pt x="195" y="1556" on="1"/>
        <pt x="690" y="1556" on="1"/>
        <pt x="446" y="432" on="1"/>
        <pt x="434" y="376" on="0"/>
        <pt x="418" y="279" on="0"/>
        <pt x="418" y="236" on="1"/>
        <pt x="418" y="191" on="0"/>
        <pt x="455" y="143" on="0"/>
      </contour>
    </TTGlyph>
    <TTGlyph name="less" xMin="166" yMin="213" xMax="1044" yMax="1253">
      <contour>
        <pt x="166" y="690" on="1"/>
        <pt x="166" y="774" on="1"/>
        <pt x="1044" y="1253" on="1"/>
        <pt x="1044" y="1092" on="1"/>
        <pt x="385" y="731" on="1"/>
        <pt x="1044" y="375" on="1"/>
        <pt x="1044" y="213" on="1"/>
      </contour>
    </TTGlyph>
    <TTGlyph name="logicalnot" xMin="166" yMin="293" xMax="1044" yMax="805">
      <contour>
        <pt x="1044" y="805" on="1"/>
        <pt x="1044" y="293" on="1"/>
        <pt x="897" y="293" on="1"/>
        <pt x="897" y="659" on="1"/>
        <pt x="166" y="659" on="1"/>
        <pt x="166" y="805" on="1"/>
      </contour>
    </TTGlyph>
    <TTGlyph name="m" xMin="76" yMin="-14" xMax="1952" yMax="1124">
      <contour>
        <pt x="1638" y="-14" on="1"/>
        <pt x="1521" y="-14" on="0"/>
        <pt x="1395" y="98" on="0"/>
        <pt x="1395" y="197" on="1"/>
        <pt x="1395" y="240" on="0"/>
        <pt x="1410" y="362" on="0"/>
        <pt x="1427" y="440" on="1"/>
        <pt x="1462" y="602" on="1"/>
        <pt x="1467" y="622" on="0"/>
        <pt x="1480" y="680" on="0"/>
        <pt x="1491" y="743" on="0"/>
        <pt x="1499" y="806" on="0"/>
        <pt x="1499" y="831" on="1"/>
        <pt x="1499" y="850" on="0"/>
        <pt x="1492" y="892" on="0"/>
        <pt x="1474" y="926" on="0"/>
        <pt x="1442" y="948" on="0"/>
        <pt x="1417" y="948" on="1"/>
        <pt x="1384" y="948" on="0"/>
        <pt x="1319" y="902" on="0"/>
        <pt x="1257" y="827" on="0"/>
        <pt x="1202" y="730" on="0"/>
        <pt x="1157" y="628" on="0"/>
        <pt x="1125" y="529" on="0"/>
        <pt x="1118" y="489" on="1"/>
        <pt x="1102" y="403" on="1"/>
        <pt x="1098" y="382" on="0"/>
        <pt x="1087" y="309" on="0"/>
        <pt x="1075" y="225" on="0"/>
        <pt x="1063" y="137" on="0"/>
        <pt x="1054" y="62" on="0"/>
        <pt x="1049" y="8" on="0"/>
        <pt x="1049" y="0" on="1"/>
        <pt x="731" y="0" on="1"/>
        <pt x="731" y="12" on="0"/>
        <pt x="738" y="72" on="0"/>
        <pt x="750" y="153" on="0"/>
        <pt x="766" y="247" on="0"/>
        <pt x="782" y="341" on="0"/>
        <pt x="798" y="426" on="0"/>
        <pt x="805" y="457" on="1"/>
        <pt x="836" y="600" on="1"/>
        <pt x="840" y="619" on="0"/>
        <pt x="851" y="677" on="0"/>
        <pt x="862" y="740" on="0"/>
        <pt x="870" y="804" on="0"/>
        <pt x="870" y="829" on="1"/>
        <pt x="870" y="848" on="0"/>
        <pt x="866" y="888" on="0"/>
        <pt x="853" y="921" on="0"/>
        <pt x="826" y="942" on="0"/>
        <pt x="803" y="942" on="1"/>
        <pt x="769" y="942" on="0"/>
        <pt x="702" y="900" on="0"/>
        <pt x="640" y="830" on="0"/>
        <pt x="584" y="740" on="0"/>
        <pt x="539" y="645" on="0"/>
        <pt x="506" y="552" on="0"/>
        <pt x="498" y="514" on="1"/>
        <pt x="383" y="0" on="1"/>
        <pt x="76" y="0" on="1"/>
        <pt x="248" y="815" on="1"/>
        <pt x="251" y="828" on="0"/>
        <pt x="256" y="856" on="0"/>
        <pt x="260" y="881" on="0"/>
        <pt x="262" y="899" on="0"/>
        <pt x="262" y="903" on="1"/>
        <pt x="262" y="931" on="0"/>
        <pt x="250" y="965" on="0"/>
        <pt x="224" y="983" on="0"/>
        <pt x="183" y="989" on="0"/>
        <pt x="154" y="989" on="1"/>
        <pt x="117" y="989" on="1"/>
        <pt x="135" y="1098" on="1"/>
        <pt x="610" y="1098" on="1"/>
        <pt x="571" y="889" on="1"/>
        <pt x="586" y="889" on="1"/>
        <pt x="626" y="951" on="0"/>
        <pt x="711" y="1038" on="0"/>
        <pt x="805" y="1093" on="0"/>
        <pt x="910" y="1118" on="0"/>
        <pt x="971" y="1118" on="1"/>
        <pt x="1035" y="1118" on="0"/>
        <pt x="1121" y="1082" on="0"/>
        <pt x="1173" y="1020" on="0"/>
        <pt x="1196" y="940" on="0"/>
        <pt x="1196" y="895" on="1"/>
        <pt x="1196" y="879" on="1"/>
        <pt x="1208" y="879" on="1"/>
        <pt x="1246" y="940" on="0"/>
        <pt x="1327" y="1032" on="0"/>
        <pt x="1421" y="1093" on="0"/>
        <pt x="1531" y="1124" on="0"/>
        <pt x="1597" y="1124" on="1"/>
        <pt x="1660" y="1124" on="0"/>
        <pt x="1746" y="1086" on="0"/>
        <pt x="1800" y="1021" on="0"/>
        <pt x="1823" y="936" on="0"/>
        <pt x="1823" y="889" on="1"/>
        <pt x="1823" y="863" on="0"/>
        <pt x="1815" y="804" on="0"/>
        <pt x="1804" y="744" on="0"/>
        <pt x="1791" y="684" on="0"/>
        <pt x="1786" y="657" on="1"/>
        <pt x="1739" y="438" on="1"/>
        <pt x="1726" y="383" on="0"/>
        <pt x="1710" y="285" on="0"/>
        <pt x="1710" y="242" on="1"/>
        <pt x="1710" y="197" on="0"/>
        <pt x="1748" y="150" on="0"/>
        <pt x="1782" y="150" on="1"/>
        <pt x="1814" y="150" on="0"/>
        <pt x="1867" y="174" on="0"/>
        <pt x="1903" y="197" on="1"/>
        <pt x="1952" y="127" on="1"/>
        <pt x="1927" y="101" on="0"/>
        <pt x="1865" y="50" on="0"/>
        <pt x="1788" y="10" on="0"/>
        <pt x="1694" y="-14" on="0"/>
      </contour>
    </TTGlyph>
    <TTGlyph name="mu" xMin="-4" yMin="-492" xMax="1354" yMax="1098">
      <contour>
        <pt x="803" y="188" on="1"/>
        <pt x="768" y="141" on="0"/>
        <pt x="701" y="64" on="0"/>
        <pt x="627" y="10" on="0"/>
        <pt x="543" y="-20" on="0"/>
        <pt x="492" y="-20" on="1"/>
        <pt x="401" y="-20" on="0"/>
        <pt x="275" y="61" on="0"/>
        <pt x="238" y="127" on="1"/>
        <pt x="231" y="91" on="0"/>
        <pt x="220" y="15" on="0"/>
        <pt x="213" y="-57" on="0"/>
        <pt x="209" y="-122" on="0"/>
        <pt x="209" y="-147" on="1"/>
        <pt x="209" y="-182" on="0"/>
        <pt x="222" y="-239" on="0"/>
        <pt x="259" y="-281" on="0"/>
        <pt x="324" y="-308" on="0"/>
        <pt x="375" y="-313" on="1"/>
        <pt x="367" y="-358" on="0"/>
        <pt x="320" y="-426" on="0"/>
        <pt x="253" y="-470" on="0"/>
        <pt x="171" y="-492" on="0"/>
        <pt x="129" y="-492" on="1"/>
        <pt x="100" y="-492" on="0"/>
        <pt x="51" y="-477" on="0"/>
        <pt x="16" y="-442" on="0"/>
        <pt x="-4" y="-386" on="0"/>
        <pt x="-4" y="-344" on="1"/>
        <pt x="-4" y="-283" on="0"/>
        <pt x="30" y="-131" on="0"/>
        <pt x="84" y="63" on="0"/>
        <pt x="150" y="307" on="0"/>
        <pt x="182" y="461" on="1"/>
        <pt x="317" y="1098" on="1"/>
        <pt x="629" y="1098" on="1"/>
        <pt x="492" y="455" on="1"/>
        <pt x="489" y="440" on="0"/>
        <pt x="481" y="400" on="0"/>
        <pt x="474" y="355" on="0"/>
        <pt x="469" y="310" on="0"/>
        <pt x="469" y="291" on="1"/>
        <pt x="469" y="263" on="0"/>
        <pt x="482" y="213" on="0"/>
        <pt x="511" y="176" on="0"/>
        <pt x="554" y="154" on="0"/>
        <pt x="584" y="154" on="1"/>
        <pt x="679" y="154" on="0"/>
        <pt x="809" y="337" on="0"/>
        <pt x="850" y="532" on="1"/>
        <pt x="971" y="1098" on="1"/>
        <pt x="1282" y="1098" on="1"/>
        <pt x="1141" y="432" on="1"/>
        <pt x="1128" y="376" on="0"/>
        <pt x="1112" y="279" on="0"/>
        <pt x="1112" y="236" on="1"/>
        <pt x="1112" y="191" on="0"/>
        <pt x="1150" y="143" on="0"/>
        <pt x="1184" y="143" on="1"/>
        <pt x="1216" y="143" on="0"/>
        <pt x="1269" y="167" on="0"/>
        <pt x="1305" y="190" on="1"/>
        <pt x="1354" y="121" on="1"/>
        <pt x="1329" y="95" on="0"/>
        <pt x="1267" y="44" on="0"/>
        <pt x="1187" y="4" on="0"/>
        <pt x="1089" y="-20" on="0"/>
        <pt x="1028" y="-20" on="1"/>
        <pt x="965" y="-20" on="0"/>
        <pt x="882" y="15" on="0"/>
        <pt x="833" y="72" on="0"/>
        <pt x="813" y="147" on="0"/>
        <pt x="813" y="188" on="1"/>
      </contour>
    </TTGlyph>
    <TTGlyph name="multiply" xMin="199" yMin="328" xMax="1010" yMax="1141">
      <contour>
        <pt x="604" y="631" on="1"/>
        <pt x="303" y="328" on="1"/>
        <pt x="199" y="432" on="1"/>
        <pt x="500" y="735" on="1"/>
        <pt x="199" y="1036" on="1"/>
        <pt x="303" y="1139" on="1"/>
        <pt x="604" y="838" on="1"/>
        <pt x="905" y="1141" on="1"/>
        <pt x="1010" y="1036" on="1"/>
        <pt x="707" y="733" on="1"/>
        <pt x="1010" y="430" on="1"/>
        <pt x="907" y="328" on="1"/>
      </contour>
    </TTGlyph>
    <TTGlyph name="n" xMin="76" yMin="-20" xMax="1343" yMax="1118">
      <contour>
        <pt x="786" y="190" on="1"/>
        <pt x="786" y="278" on="0"/>
        <pt x="819" y="434" on="1"/>
        <pt x="852" y="596" on="1"/>
        <pt x="856" y="616" on="0"/>
        <pt x="868" y="674" on="0"/>
        <pt x="880" y="737" on="0"/>
        <pt x="889" y="800" on="0"/>
        <pt x="889" y="825" on="1"/>
        <pt x="889" y="844" on="0"/>
        <pt x="882" y="886" on="0"/>
        <pt x="863" y="920" on="0"/>
        <pt x="830" y="942" on="0"/>
        <pt x="803" y="942" on="1"/>
        <pt x="768" y="942" on="0"/>
        <pt x="699" y="895" on="0"/>
        <pt x="635" y="818" on="0"/>
        <pt x="577" y="719" on="0"/>
        <pt x="530" y="615" on="0"/>
        <pt x="496" y="515" on="0"/>
        <pt x="487" y="475" on="1"/>
        <pt x="383" y="0" on="1"/>
        <pt x="76" y="0" on="1"/>
        <pt x="248" y="815" on="1"/>
        <pt x="251" y="828" on="0"/>
        <pt x="256" y="856" on="0"/>
        <pt x="260" y="881" on="0"/>
        <pt x="262" y="899" on="0"/>
        <pt x="262" y="903" on="1"/>
        <pt x="262" y="931" on="0"/>
        <pt x="250" y="965" on="0"/>
        <pt x="224" y="983" on="0"/>
        <pt x="183" y="989" on="0"/>
        <pt x="154" y="989" on="1"/>
        <pt x="117" y="989" on="1"/>
        <pt x="135" y="1098" on="1"/>
        <pt x="590" y="1098" on="1"/>
        <pt x="567" y="879" on="1"/>
        <pt x="580" y="879" on="1"/>
        <pt x="619" y="940" on="0"/>
        <pt x="702" y="1030" on="0"/>
        <pt x="798" y="1089" on="0"/>
        <pt x="911" y="1118" on="0"/>
        <pt x="979" y="1118" on="1"/>
        <pt x="1044" y="1118" on="0"/>
        <pt x="1133" y="1080" on="0"/>
        <pt x="1188" y="1015" on="0"/>
        <pt x="1212" y="930" on="0"/>
        <pt x="1212" y="883" on="1"/>
        <pt x="1212" y="857" on="0"/>
        <pt x="1205" y="798" on="0"/>
        <pt x="1194" y="738" on="0"/>
        <pt x="1181" y="678" on="0"/>
        <pt x="1176" y="651" on="1"/>
        <pt x="1130" y="432" on="1"/>
        <pt x="1118" y="376" on="0"/>
        <pt x="1102" y="279" on="0"/>
        <pt x="1102" y="236" on="1"/>
        <pt x="1102" y="191" on="0"/>
        <pt x="1139" y="143" on="0"/>
        <pt x="1174" y="143" on="1"/>
        <pt x="1206" y="143" on="0"/>
        <pt x="1259" y="167" on="0"/>
        <pt x="1294" y="190" on="1"/>
        <pt x="1343" y="121" on="1"/>
        <pt x="1319" y="95" on="0"/>
        <pt x="1257" y="44" on="0"/>
        <pt x="1180" y="4" on="0"/>
        <pt x="1086" y="-20" on="0"/>
        <pt x="1030" y="-20" on="1"/>
        <pt x="912" y="-20" on="0"/>
        <pt x="786" y="91" on="0"/>
      </contour>
    </TTGlyph>
    <TTGlyph name="nine" xMin="57" yMin="-20" xMax="1139" yMax="1483">
      <contour>
        <pt x="391" y="109" on="1"/>
        <pt x="466" y="109" on="0"/>
        <pt x="587" y="187" on="0"/>
        <pt x="688" y="337" on="0"/>
        <pt x="772" y="558" on="0"/>
        <pt x="811" y="702" on="1"/>
        <pt x="785" y="675" on="0"/>
        <pt x="721" y="625" on="0"/>
        <pt x="645" y="586" on="0"/>
        <pt x="555" y="563" on="0"/>
        <pt x="502" y="563" on="1"/>
        <pt x="420" y="563" on="0"/>
        <pt x="292" y="614" on="0"/>
        <pt x="205" y="704" on="0"/>
        <pt x="160" y="829" on="0"/>
        <pt x="160" y="903" on="1"/>
        <pt x="160" y="1031" on="0"/>
        <pt x="253" y="1245" on="0"/>
        <pt x="411" y="1398" on="0"/>
        <pt x="620" y="1483" on="0"/>
        <pt x="737" y="1483" on="1"/>
        <pt x="829" y="1483" on="0"/>
        <pt x="978" y="1429" on="0"/>
        <pt x="1083" y="1326" on="0"/>
        <pt x="1139" y="1176" on="0"/>
        <pt x="1139" y="1079" on="1"/>
        <pt x="1139" y="1055" on="0"/>
        <pt x="1135" y="983" on="0"/>
        <pt x="1126" y="899" on="0"/>
        <pt x="1111" y="806" on="0"/>
        <pt x="1100" y="760" on="1"/>
        <pt x="1078" y="661" on="0"/>
        <pt x="1011" y="469" on="0"/>
        <pt x="918" y="296" on="0"/>
        <pt x="799" y="148" on="0"/>
        <pt x="651" y="41" on="0"/>
        <pt x="474" y="-20" on="0"/>
        <pt x="369" y="-20" on="1"/>
        <pt x="287" y="-20" on="0"/>
        <pt x="169" y="14" on="0"/>
        <pt x="93" y="71" on="0"/>
        <pt x="57" y="147" on="0"/>
        <pt x="57" y="190" on="1"/>
        <pt x="57" y="259" on="0"/>
        <pt x="142" y="332" on="0"/>
        <pt x="217" y="332" on="1"/>
        <pt x="218" y="293" on="0"/>
        <pt x="238" y="213" on="0"/>
        <pt x="280" y="149" on="0"/>
        <pt x="345" y="109" on="0"/>
      </contour>
      <contour>
        <pt x="606" y="711" on="1"/>
        <pt x="646" y="712" on="0"/>
        <pt x="715" y="740" on="0"/>
        <pt x="774" y="785" on="0"/>
        <pt x="822" y="841" on="0"/>
        <pt x="840" y="870" on="1"/>
        <pt x="846" y="895" on="0"/>
        <pt x="857" y="955" on="0"/>
        <pt x="865" y="1015" on="0"/>
        <pt x="870" y="1071" on="0"/>
        <pt x="870" y="1092" on="1"/>
        <pt x="870" y="1159" on="0"/>
        <pt x="848" y="1256" on="0"/>
        <pt x="807" y="1317" on="0"/>
        <pt x="752" y="1346" on="0"/>
        <pt x="719" y="1346" on="1"/>
        <pt x="661" y="1346" on="0"/>
        <pt x="564" y="1270" on="0"/>
        <pt x="494" y="1147" on="0"/>
        <pt x="455" y="992" on="0"/>
        <pt x="455" y="913" on="1"/>
        <pt x="455" y="813" on="0"/>
        <pt x="537" y="711" on="0"/>
      </contour>
    </TTGlyph>
    <TTGlyph name="ntilde" xMin="90" yMin="-20" xMax="1357" yMax="1565">
      <component glyphName="n" x="14" y="0" flags="0x1204"/>
      <component glyphName="tilde" x="90" y="0" flags="0x1004"/>
    </TTGlyph>
    <TTGlyph name="numbersign" xMin="57" yMin="0" xMax="1157" yMax="1462">
      <contour>
        <pt x="1036" y="551" on="1"/>
        <pt x="1022" y="410" on="1"/>
        <pt x="766" y="410" on="1"/>
        <pt x="647" y="0" on="1"/>
        <pt x="502" y="0" on="1"/>
        <pt x="621" y="410" on="1"/>
        <pt x="408" y="410" on="1"/>
        <pt x="287" y="0" on="1"/>
        <pt x="141" y="0" on="1"/>
        <pt x="262" y="410" on="1"/>
        <pt x="57" y="410" on="1"/>
        <pt x="72" y="551" on="1"/>
        <pt x="303" y="551" on="1"/>
        <pt x="414" y="922" on="1"/>
        <pt x="176" y="922" on="1"/>
        <pt x="193" y="1065" on="1"/>
        <pt x="457" y="1065" on="1"/>
        <pt x="569" y="1462" on="1"/>
        <pt x="717" y="1462" on="1"/>
        <pt x="602" y="1065" on="1"/>
        <pt x="815" y="1065" on="1"/>
        <pt x="932" y="1462" on="1"/>
        <pt x="1077" y="1462" on="1"/>
        <pt x="961" y="1065" on="1"/>
        <pt x="1157" y="1065" on="1"/>
        <pt x="1141" y="922" on="1"/>
        <pt x="918" y="922" on="1"/>
        <pt x="809" y="551" on="1"/>
      </contour>
      <contour>
        <pt x="449" y="551" on="1"/>
        <pt x="664" y="551" on="1"/>
        <pt x="774" y="922" on="1"/>
        <pt x="559" y="922" on="1"/>
      </contour>
    </TTGlyph>
    <TTGlyph name="o" xMin="82" yMin="-20" xMax="1182" yMax="1118">
      <contour>
        <pt x="82" y="410" on="1"/>
        <pt x="82" y="487" on="0"/>
        <pt x="118" y="651" on="0"/>
        <pt x="191" y="809" on="0"/>
        <pt x="301" y="950" on="0"/>
        <pt x="450" y="1056" on="0"/>
        <pt x="639" y="1118" on="0"/>
        <pt x="754" y="1118" on="1"/>
        <pt x="842" y="1118" on="0"/>
        <pt x="998" y="1069" on="0"/>
        <pt x="1114" y="965" on="0"/>
        <pt x="1182" y="802" on="0"/>
        <pt x="1182" y="688" on="1"/>
        <pt x="1182" y="614" on="0"/>
        <pt x="1148" y="452" on="0"/>
        <pt x="1077" y="295" on="0"/>
        <pt x="968" y="152" on="0"/>
        <pt x="820" y="44" on="0"/>
        <pt x="632" y="-20" on="0"/>
        <pt x="516" y="-20" on="1"/>
        <pt x="420" y="-20" on="0"/>
        <pt x="260" y="33" on="0"/>
        <pt x="146" y="140" on="0"/>
        <pt x="82" y="302" on="0"/>
      </contour>
      <contour>
        <pt x="553" y="127" on="1"/>
        <pt x="608" y="127" on="0"/>
        <pt x="697" y="190" on="0"/>
        <pt x="768" y="293" on="0"/>
        <pt x="820" y="425" on="0"/>
        <pt x="853" y="565" on="0"/>
        <pt x="870" y="700" on="0"/>
        <pt x="870" y="754" on="1"/>
        <pt x="870" y="875" on="0"/>
        <pt x="787" y="981" on="0"/>
        <pt x="715" y="981" on="1"/>
        <pt x="663" y="981" on="0"/>
        <pt x="575" y="921" on="0"/>
        <pt x="504" y="821" on="0"/>
        <pt x="450" y="692" on="0"/>
        <pt x="413" y="554" on="0"/>
        <pt x="395" y="417" on="0"/>
        <pt x="395" y="360" on="1"/>
        <pt x="395" y="235" on="0"/>
        <pt x="479" y="127" on="0"/>
      </contour>
    </TTGlyph>
    <TTGlyph name="oacute" xMin="82" yMin="-20" xMax="1239" yMax="1569">
      <component glyphName="o" x="0" y="0" flags="0x1204"/>
      <component glyphName="acute" x="170" y="0" flags="0x1004"/>
    </TTGlyph>
    <TTGlyph name="ocircumflex" xMin="82" yMin="-20" xMax="1182" yMax="1569">
      <component glyphName="o" x="0" y="0" flags="0x1204"/>
      <component glyphName="circumflex" x="78" y="0" flags="0x1004"/>
    </TTGlyph>
    <TTGlyph name="odieresis" xMin="82" yMin="-20" xMax="1182" yMax="1530">
      <component glyphName="o" x="0" y="0" flags="0x1204"/>
      <component glyphName="dieresis" x="74" y="0" flags="0x1004"/>
    </TTGlyph>
    <TTGlyph name="ograve" xMin="82" yMin="-20" xMax="1182" yMax="1569">
      <component glyphName="o" x="0" y="0" flags="0x1204"/>
      <component glyphName="grave" x="-73" y="0" flags="0x1004"/>
    </TTGlyph>
    <TTGlyph name="one" xMin="82" yMin="0" xMax="969" yMax="1470">
      <contour>
        <pt x="969" y="1470" on="1"/>
        <pt x="709" y="248" on="1"/>
        <pt x="706" y="235" on="0"/>
        <pt x="696" y="189" on="0"/>
        <pt x="696" y="176" on="1"/>
        <pt x="696" y="154" on="0"/>
        <pt x="719" y="127" on="0"/>
        <pt x="761" y="113" on="0"/>
        <pt x="817" y="109" on="0"/>
        <pt x="850" y="109" on="1"/>
        <pt x="950" y="109" on="1"/>
        <pt x="928" y="0" on="1"/>
        <pt x="82" y="0" on="1"/>
        <pt x="104" y="109" on="1"/>
        <pt x="225" y="109" on="1"/>
        <pt x="298" y="109" on="0"/>
        <pt x="388" y="168" on="0"/>
        <pt x="403" y="242" on="1"/>
        <pt x="561" y="987" on="1"/>
        <pt x="574" y="1049" on="0"/>
        <pt x="598" y="1151" on="0"/>
        <pt x="608" y="1189" on="1"/>
        <pt x="619" y="1233" on="0"/>
        <pt x="629" y="1268" on="1"/>
        <pt x="621" y="1268" on="1"/>
        <pt x="573" y="1218" on="0"/>
        <pt x="492" y="1139" on="0"/>
        <pt x="422" y="1084" on="0"/>
        <pt x="357" y="1055" on="0"/>
        <pt x="324" y="1055" on="1"/>
        <pt x="280" y="1055" on="0"/>
        <pt x="225" y="1134" on="0"/>
        <pt x="225" y="1206" on="1"/>
        <pt x="260" y="1215" on="0"/>
        <pt x="334" y="1239" on="0"/>
        <pt x="418" y="1275" on="0"/>
        <pt x="515" y="1326" on="0"/>
        <pt x="573" y="1364" on="1"/>
        <pt x="739" y="1470" on="1"/>
      </contour>
    </TTGlyph>
    <TTGlyph name="onehalf" xMin="54" yMin="0" xMax="1667" yMax="1473">
      <component glyphName="onesuperior" x="-77" y="0" flags="0x1004"/>
      <component glyphName="fraction" x="819" y="0" flags="0x1004"/>
      <component glyphName="twosuperior" x="840" y="-585" flags="0x1004"/>
    </TTGlyph>
    <TTGlyph name="onequarter" xMin="54" yMin="0" xMax="1650" yMax="1473">
      <component glyphName="onesuperior" x="-77" y="0" flags="0x1004"/>
      <component glyphName="fraction" x="829" y="0" flags="0x1004"/>
      <component glyphName="foursuperior" x="819" y="-587" flags="0x1004"/>
    </TTGlyph>
    <TTGlyph name="onesuperior" xMin="131" yMin="588" xMax="727" yMax="1473">
      <contour>
        <pt x="717" y="1473" on="1"/>
        <pt x="571" y="784" on="1"/>
        <pt x="566" y="766" on="0"/>
        <pt x="563" y="736" on="0"/>
        <pt x="563" y="731" on="1"/>
        <pt x="563" y="713" on="0"/>
        <pt x="576" y="692" on="0"/>
        <pt x="598" y="681" on="0"/>
        <pt x="627" y="678" on="0"/>
        <pt x="643" y="678" on="1"/>
        <pt x="727" y="678" on="1"/>
        <pt x="709" y="588" on="1"/>
        <pt x="131" y="588" on="1"/>
        <pt x="150" y="678" on="1"/>
        <pt x="254" y="678" on="1"/>
        <pt x="273" y="678" on="0"/>
        <pt x="308" y="683" on="0"/>
        <pt x="336" y="699" on="0"/>
        <pt x="357" y="730" on="0"/>
        <pt x="362" y="756" on="1"/>
        <pt x="485" y="1337" on="1"/>
        <pt x="427" y="1280" on="0"/>
        <pt x="336" y="1210" on="0"/>
        <pt x="299" y="1210" on="1"/>
        <pt x="270" y="1210" on="0"/>
        <pt x="240" y="1269" on="0"/>
        <pt x="240" y="1311" on="1"/>
        <pt x="264" y="1315" on="0"/>
        <pt x="312" y="1329" on="0"/>
        <pt x="364" y="1351" on="0"/>
        <pt x="424" y="1383" on="0"/>
        <pt x="459" y="1405" on="1"/>
        <pt x="565" y="1473" on="1"/>
      </contour>
    </TTGlyph>
    <TTGlyph name="ordfeminine" xMin="156" yMin="782" xMax="981" yMax="1470">
      <contour>
        <pt x="772" y="782" on="1"/>
        <pt x="704" y="782" on="0"/>
        <pt x="629" y="837" on="0"/>
        <pt x="629" y="885" on="1"/>
        <pt x="629" y="910" on="0"/>
        <pt x="636" y="974" on="0"/>
        <pt x="639" y="997" on="1"/>
        <pt x="631" y="997" on="1"/>
        <pt x="605" y="949" on="0"/>
        <pt x="546" y="871" on="0"/>
        <pt x="478" y="815" on="0"/>
        <pt x="399" y="784" on="0"/>
        <pt x="354" y="784" on="1"/>
        <pt x="303" y="784" on="0"/>
        <pt x="228" y="819" on="0"/>
        <pt x="179" y="880" on="0"/>
        <pt x="156" y="962" on="0"/>
        <pt x="156" y="1010" on="1"/>
        <pt x="156" y="1058" on="0"/>
        <pt x="180" y="1164" on="0"/>
        <pt x="230" y="1267" on="0"/>
        <pt x="307" y="1359" on="0"/>
        <pt x="410" y="1429" on="0"/>
        <pt x="541" y="1470" on="0"/>
        <pt x="621" y="1470" on="1"/>
        <pt x="676" y="1470" on="0"/>
        <pt x="749" y="1446" on="0"/>
        <pt x="780" y="1427" on="1"/>
        <pt x="852" y="1456" on="1"/>
        <pt x="922" y="1456" on="1"/>
        <pt x="846" y="1083" on="1"/>
        <pt x="838" y="1041" on="0"/>
        <pt x="823" y="974" on="0"/>
        <pt x="823" y="948" on="1"/>
        <pt x="823" y="895" on="0"/>
        <pt x="866" y="895" on="1"/>
        <pt x="886" y="895" on="0"/>
        <pt x="931" y="914" on="0"/>
        <pt x="954" y="928" on="1"/>
        <pt x="981" y="879" on="1"/>
        <pt x="968" y="865" on="0"/>
        <pt x="925" y="831" on="0"/>
        <pt x="871" y="802" on="0"/>
        <pt x="806" y="782" on="0"/>
      </contour>
      <contour>
        <pt x="395" y="1022" on="1"/>
        <pt x="395" y="988" on="0"/>
        <pt x="405" y="943" on="0"/>
        <pt x="423" y="915" on="0"/>
        <pt x="446" y="903" on="0"/>
        <pt x="459" y="903" on="1"/>
        <pt x="486" y="903" on="0"/>
        <pt x="544" y="952" on="0"/>
        <pt x="594" y="1027" on="0"/>
        <pt x="634" y="1113" on="0"/>
        <pt x="643" y="1151" on="1"/>
        <pt x="692" y="1346" on="1"/>
        <pt x="680" y="1364" on="0"/>
        <pt x="629" y="1384" on="0"/>
        <pt x="604" y="1384" on="1"/>
        <pt x="570" y="1384" on="0"/>
        <pt x="512" y="1349" on="0"/>
        <pt x="466" y="1290" on="0"/>
        <pt x="431" y="1214" on="0"/>
        <pt x="407" y="1134" on="0"/>
        <pt x="395" y="1055" on="0"/>
      </contour>
    </TTGlyph>
</ttFont>
